SplineFontDB: 3.0
FontName: Tuffy-Bold
FullName: Tuffy Bold
FamilyName: Tuffy
Weight: Bold
Copyright: Created by Thatcher Ulrich (http://tulrich.com), Karoly Barta and Michael Everson with FontForge  (http://fontforge.sf.net)\n\nLicensed under SIL OFL v1.1 (see LICENSE.txt)\n
FontLog: "2010-08-20: Merged accented and extended characters from Karoly Barta and Michael Everson.+AAoA-2004-9-1: Created.+AAoA" 
Version: 001.270
DefaultBaseFilename: Tuffy_Bold
ItalicAngle: 0
UnderlinePosition: -204
UnderlineWidth: 102
Ascent: 1597
Descent: 451
LayerCount: 2
Layer: 0 0 "Back"  1
Layer: 1 0 "Fore"  0
XUID: [1021 745 1046372284 8541740]
FSType: 0
OS2Version: 0
OS2_WeightWidthSlopeOnly: 0
OS2_UseTypoMetrics: 0
CreationTime: 1166531129
ModificationTime: 1314198545
PfmFamily: 33
TTFWeight: 700
TTFWidth: 5
LineGap: 190
VLineGap: 0
Panose: 2 11 8 3 6 1 0 0 0 0
OS2TypoAscent: 0
OS2TypoAOffset: 1
OS2TypoDescent: 0
OS2TypoDOffset: 1
OS2TypoLinegap: 0
OS2WinAscent: 0
OS2WinAOffset: 1
OS2WinDescent: 0
OS2WinDOffset: 1
HheadAscent: 0
HheadAOffset: 1
HheadDescent: 0
HheadDOffset: 1
OS2Vendor: 'PfEd'
Lookup: 258 0 0 "'kern' Horizontal Kerning in Latin lookup 0"  {"'kern' Horizontal Kerning in Latin lookup 0 subtable"  } ['kern' ('latn' <'dflt' > ) ]
MarkAttachClasses: 1
DEI: 91125
ShortTable: cvt  2
  33
  633
EndShort

StartChar: exclam
Encoding: 33 33 1
Width: 457
Flags: W
HStem: -33 328<122.958 343.439> 1463 20G<205.5 257.5>
VStem: 69 328<20.9582 241.439> 92 280<1057.17 1450.47> 133 199<394.911 771.826>
LayerCount: 2
Fore
SplineSet
69 131 m 0xe0
 69 222 143 295 233 295 c 0
 324 295 397 222 397 131 c 0
 397 41 324 -33 233 -33 c 0
 143 -33 69 41 69 131 c 0xe0
332 440 m 1xc8
 332 406 262 381 233 381 c 1
 201 381 133 406 133 440 c 1xc8
 92 1389 l 1
 92 1442 180 1483 231 1483 c 1
 284 1483 372 1440 372 1391 c 1xd0
 332 440 l 1xc8
EndSplineSet
EndChar

StartChar: quotedbl
Encoding: 34 34 2
Width: 874
Flags: W
HStem: 1044 498<151.503 338.376 524.702 713.206>
VStem: 129 231<1210.68 1522.75> 504 231<1197.92 1522.75>
LayerCount: 2
Back
SplineSet
442.368 1091.58 m 1
 421.886 1466.37 l 1
 421.89 1515.74 458.062 1542.25 493.697 1542.25 c 0
 495.021 1542.25 496.343 1542.22 497.664 1542.14 c 0
 529.511 1542.14 561.359 1523.8 569.437 1485.79 c 0
 570.71 1479.81 571.39 1473.33 571.39 1466.37 c 1
 550.912 1091.58 l 1
 548.864 1060.86 520.192 1044.48 495.616 1044.48 c 0
 473.258 1044.48 449.204 1056.35 443.505 1083.16 c 0
 442.938 1085.82 442.553 1088.63 442.368 1091.58 c 1
149.504 1091.58 m 1
 129.021 1466.37 l 1
 129.026 1515.74 165.198 1542.25 200.834 1542.25 c 0
 202.156 1542.25 203.48 1542.22 204.8 1542.14 c 0
 236.646 1542.14 268.495 1523.8 276.572 1485.79 c 0
 277.846 1479.81 278.526 1473.33 278.526 1466.37 c 1
 258.048 1091.58 l 1
 256 1060.86 227.328 1044.48 202.752 1044.48 c 0
 180.394 1044.48 156.34 1056.35 150.64 1083.16 c 0
 150.074 1085.82 149.688 1088.63 149.504 1091.58 c 1
EndSplineSet
Fore
SplineSet
524 1092 m 1
 504 1466 l 1
 504 1516 581 1542 617 1542 c 0
 618 1542 619 1542 621 1542 c 0
 652 1542 725 1524 733 1486 c 0
 735 1480 735 1473 735 1466 c 1
 715 1092 l 1
 713 1061 643 1044 618 1044 c 0
 596 1044 531 1056 525 1083 c 0
 525 1086 524 1089 524 1092 c 1
150 1092 m 1
 129 1466 l 1
 129 1516 206 1542 242 1542 c 0
 243 1542 244 1542 246 1542 c 0
 278 1542 350 1524 358 1486 c 0
 360 1480 360 1473 360 1466 c 1
 340 1092 l 1
 338 1061 268 1044 244 1044 c 0
 221 1044 156 1056 151 1083 c 0
 150 1086 150 1089 150 1092 c 1
EndSplineSet
EndChar

StartChar: numbersign
Encoding: 35 35 3
Width: 1565
Flags: HMW
LayerCount: 2
Back
SplineSet
958.464 546.816 m 0
 958.464 884.736 l 0
 616.448 884.736 l 0
 616.448 546.816 l 0
 958.464 546.816 l 0
1107.97 405.504 m 0
 1107.97 53.248 l 1
 958.464 53.248 l 1
 958.464 405.504 l 0
 616.448 405.504 l 0
 616.448 53.248 l 1
 466.944 53.248 l 1
 466.944 405.504 l 0
 118.784 405.504 l 1
 118.784 546.816 l 1
 466.944 546.816 l 0
 466.944 884.736 l 0
 118.784 884.736 l 1
 118.784 1024 l 1
 466.944 1024 l 0
 466.944 1402.88 l 1
 616.448 1402.88 l 1
 616.448 1024 l 0
 958.464 1024 l 0
 958.464 1402.88 l 1
 1107.97 1402.88 l 1
 1107.97 1024 l 0
 1468.42 1024 l 1
 1468.42 884.736 l 1
 1107.97 884.736 l 0
 1107.97 546.816 l 0
 1468.42 546.816 l 1
 1468.42 405.504 l 1
 1107.97 405.504 l 0
EndSplineSet
Fore
SplineSet
876 596 m 0
 876 836 l 0
 691 836 l 0
 691 596 l 0
 876 596 l 0
1130 356 m 0
 1130 47 l 1
 876 47 l 1
 876 356 l 0
 691 356 l 0
 691 47 l 1
 437 47 l 1
 437 356 l 0
 119 356 l 1
 119 596 l 1
 437 596 l 0
 437 836 l 0
 119 836 l 1
 119 1073 l 1
 437 1073 l 0
 437 1403 l 1
 691 1403 l 1
 691 1073 l 0
 876 1073 l 0
 876 1403 l 1
 1130 1403 l 1
 1130 1073 l 0
 1441 1073 l 1
 1441 836 l 1
 1130 836 l 0
 1130 596 l 0
 1441 596 l 1
 1441 356 l 1
 1130 356 l 0
EndSplineSet
EndChar

StartChar: dollar
Encoding: 36 36 4
Width: 927
Flags: W
HStem: -26 251<364.367 434 602 695.586> 1073 21G<688.5 771.39>
VStem: 43 276<929.616 1134.8> 434 168<-155 -21.4047 225 578 885 1159 1401.29 1537> 741 275<267.394 505.714>
LayerCount: 2
Back
SplineSet
18.4316 343.497 m 1
 266.127 426.394 l 1
 333.824 282.624 372.736 212.992 530.432 212.992 c 1
 684.032 212.992 741.376 278.528 741.376 393.216 c 1
 741.376 507.371 649.912 578.865 464.896 626.688 c 0
 277.113 675.808 45.0557 769.688 45.0557 1028.1 c 1
 45.0557 1301.06 265.624 1409.64 513.186 1409.64 c 1
 742.695 1409.64 879.372 1331.23 968.09 1151.04 c 1
 705.098 1073.14 l 1
 662.622 1149.38 624.193 1169.41 509.952 1169.41 c 1
 400.085 1169.41 319.488 1156.44 319.488 1028.1 c 1
 319.488 897.611 480.215 863.31 583.537 831.054 c 0
 791.046 760.94 1015.81 671.55 1015.81 393.216 c 1
 1015.81 122.88 811.008 -28.6719 530.432 -28.6719 c 1
 253.952 -28.6719 114.688 102.4 18.4316 343.497 c 1
EndSplineSet
Fore
SplineSet
432 1537 m 1
 602 1537 l 1
 602 1404 l 1
 770 1391 887 1309 971 1155 c 1
 707 1073 l 1
 670 1128 659 1145 602 1159 c 1
 602 823 l 1
 801 756 1016 662 1016 385 c 0
 1016 170 866 0 602 -26 c 1
 602 -155 l 1
 434 -155 l 1
 434 -26 l 1
 213 -8 72 186 20 344 c 1
 266 426 l 1
 303 348 352 238 434 225 c 1
 434 639 l 1
 221 686 43 799 43 1051 c 0
 43 1255 231 1393 432 1405 c 1
 432 1537 l 1
434 885 m 1
 434 1167 l 1
 344 1157 319 1077 319 1044 c 0
 319 952 358 915 434 885 c 1
602 578 m 1
 602 217 l 1
 705 240 741 309 741 387 c 0
 741 430 727 526 602 578 c 1
EndSplineSet
EndChar

StartChar: percent
Encoding: 37 37 5
Width: 1435
Flags: W
HStem: 63 207<956.41 1099.11> 479 205<958.143 1096.63> 768 207<325.007 468.476> 1184 205<327.446 465.991>
VStem: 94 215<988.786 1169.1> 483 219<987.671 1168.65> 725 215<283.629 463.962> 1114 217<283.248 464.23>
LayerCount: 2
Back
SplineSet
880.64 372.736 m 0
 880.64 286.72 935.937 219.136 1021.95 219.136 c 0
 1101.82 219.136 1169.41 282.624 1169.41 372.736 c 0
 1169.41 452.608 1105.92 522.24 1021.95 522.24 c 0
 944.128 522.24 880.64 452.608 880.64 372.736 c 0
751.616 372.736 m 0
 751.616 522.24 872.448 643.072 1024 643.072 c 0
 1175.55 643.072 1298.43 522.24 1298.43 372.736 c 0
 1298.43 223.232 1175.55 104.448 1024 104.448 c 0
 872.448 104.448 751.616 223.232 751.616 372.736 c 0
221.184 1077.25 m 0
 221.184 991.232 278.528 923.648 364.544 923.648 c 0
 444.416 923.648 512 987.136 512 1077.25 c 0
 512 1157.12 448.512 1226.75 364.544 1226.75 c 0
 286.72 1226.75 221.184 1157.12 221.184 1077.25 c 0
94.208 1077.25 m 0
 94.208 1226.75 215.04 1347.58 366.592 1347.58 c 0
 518.144 1347.58 641.024 1226.75 641.024 1077.25 c 0
 641.024 927.744 518.144 808.96 366.592 808.96 c 0
 215.04 808.96 94.208 927.744 94.208 1077.25 c 0
413.696 137.216 m 1
 264.192 137.216 l 1
 985.088 1318.91 l 0
 1128.45 1318.91 l 1
 413.696 137.216 l 1
EndSplineSet
Fore
SplineSet
940 371 m 0
 940 308 979 270 1028 270 c 0
 1077 270 1114 305 1114 371 c 0
 1114 429 1076 479 1026 479 c 0
 979 479 940 429 940 371 c 0
725 370 m 0
 725 544 859 684 1028 684 c 0
 1195 684 1331 544 1331 371 c 0
 1331 200 1195 63 1028 63 c 0
 859 63 725 199 725 370 c 0
309 1075 m 0
 309 1012 348 975 397 975 c 0
 446 975 483 1009 483 1075 c 0
 483 1133 445 1184 395 1184 c 0
 349 1184 309 1133 309 1075 c 0
94 1076 m 0
 94 1249 229 1389 397 1389 c 0
 566 1389 702 1248 702 1075 c 0
 702 904 566 768 397 768 c 0
 229 768 94 904 94 1076 c 0
485 119 m 1
 275 119 l 1
 946 1337 l 0
 1147 1337 l 1
 485 119 l 1
EndSplineSet
EndChar

StartChar: ampersand
Encoding: 38 38 6
Width: 1284
Flags: W
HStem: -53 241<416.109 708.31> 358 217<598 772 1026 1184> 707 239<428.125 727> 1278 242<422.678 655.416>
VStem: 59 261<285.907 595.699> 106 269<999.308 1228.78>
LayerCount: 2
Back
SplineSet
751.616 1228.8 m 17xf4
 729.088 1292.29 626.688 1351.68 540.672 1351.68 c 1
 432.128 1351.68 319.488 1282.05 319.488 1134.59 c 1xf4
 319.488 978.944 425.984 897.024 557.056 897.024 c 1
 727.04 897.024 l 1
 727.04 755.712 l 1
 561.152 755.712 l 2
 374.784 755.712 237.568 630.784 237.568 430.08 c 0
 237.568 247.808 385.024 110.592 550.912 110.592 c 1
 720.896 110.592 833.536 256 833.536 407.552 c 1xfa
 618.496 407.552 l 1
 618.496 546.816 l 1
 1140.74 546.816 l 1
 1140.74 405.504 l 1xf1
 983.04 405.504 l 1
 983.04 231.424 862.208 -30.7197 550.912 -30.7197 c 1
 315.392 -30.7197 79.8721 126.976 79.8721 415.744 c 0xfa
 79.8721 696.32 245.76 802.816 354.304 827.392 c 1
 266.24 856.064 161.792 958.464 161.792 1134.59 c 0
 161.792 1339.39 323.584 1492.99 542.72 1492.99 c 0
 714.752 1492.99 825.344 1409.02 876.544 1304.58 c 9
 751.616 1228.8 l 17xf4
EndSplineSet
Fore
SplineSet
711 1167 m 17xf4
 688 1214 627 1278 541 1278 c 1
 459 1278 375 1227 375 1118 c 1xf4
 375 1005 456 946 557 946 c 1
 727 946 l 1
 727 707 l 1
 561 707 l 2
 418 707 320 585 320 428 c 0
 320 297 414 188 551 188 c 1
 709 188 772 272 772 358 c 1
 598 358 l 1
 598 575 l 1
 1184 575 l 1
 1184 360 l 1
 1026 360 l 1
 1026 197 885 -53 551 -53 c 1
 287 -53 59 133 59 391 c 0xf8
 59 701 225 795 298 828 c 1
 229 856 106 952 106 1118 c 0
 106 1364 303 1520 543 1520 c 0
 738 1520 864 1410 922 1274 c 9
 711 1167 l 17xf4
EndSplineSet
EndChar

StartChar: quotesingle
Encoding: 39 39 7
Width: 464
Flags: W
HStem: 1044 498<151.503 338.376>
VStem: 129 231<1210.68 1522.75>
LayerCount: 2
Back
SplineSet
118.784 1050.62 m 1
 118.784 1548.29 l 1
 268.288 1548.29 l 1
 268.288 1050.62 l 1
 118.784 1050.62 l 1
EndSplineSet
Fore
SplineSet
150 1092 m 1
 129 1466 l 1
 129 1516 206 1542 242 1542 c 0
 243 1542 244 1542 246 1542 c 0
 278 1542 350 1524 358 1486 c 0
 360 1480 360 1473 360 1466 c 1
 340 1092 l 1
 338 1061 268 1044 244 1044 c 0
 221 1044 156 1056 151 1083 c 0
 150 1086 150 1089 150 1092 c 1
EndSplineSet
EndChar

StartChar: parenleft
Encoding: 40 40 8
Width: 653
Flags: W
VStem: 31 258<402.283 1077.67>
LayerCount: 2
Back
SplineSet
268.288 -83.9678 m 1
 104.448 167.936 30.7197 458.752 30.7197 739.328 c 0
 30.7197 997.376 110.592 1314.82 268.288 1562.62 c 1
 446.464 1562.62 l 1
 262.144 1294.34 182.272 997.376 182.272 729.088 c 0
 182.272 466.944 272.384 169.984 446.464 -83.9678 c 1
 268.288 -83.9678 l 1
EndSplineSet
Fore
SplineSet
289 -84 m 1
 83 177 31 449 31 739 c 0
 31 1006 90 1307 289 1563 c 1
 553 1563 l 1
 369 1294 289 997 289 729 c 0
 289 467 379 170 553 -84 c 1
 289 -84 l 1
EndSplineSet
EndChar

StartChar: parenright
Encoding: 41 41 9
Width: 643
Flags: W
VStem: 344 258<393.792 1052.13>
LayerCount: 2
Back
SplineSet
256 -96.2559 m 1
 79.8721 -96.2559 l 1
 251.904 155.648 344.064 464.896 344.064 727.04 c 0
 344.064 972.8 253.952 1294.34 79.8721 1550.34 c 1
 256 1550.34 l 1
 413.696 1302.53 495.616 985.088 495.616 727.04 c 0
 495.616 452.608 417.792 151.552 256 -96.2559 c 1
EndSplineSet
Fore
SplineSet
340 -96 m 1
 80 -96 l 1
 252 156 344 465 344 727 c 0
 344 973 254 1293 80 1549 c 1
 341 1549 l 1
 540 1293 602 994 602 727 c 0
 602 443 545 160 340 -96 c 1
EndSplineSet
EndChar

StartChar: asterisk
Encoding: 42 42 10
Width: 1172
Flags: W
HStem: 604 231<106.25 406 763 1063.75>
LayerCount: 2
Back
SplineSet
620.813 645.394 m 5
 826 332 l 5
 851 288.699 797.315 227.682 766.139 209.682 c 4
 765.272 209.182 764.406 208.682 762.675 207.682 c 4
 734.962 191.682 663.608 171.271 637.68 200.18 c 4
 632.947 204.376 629.447 210.438 625.947 216.5 c 5
 456.269 550.394 l 5
 442.5 578.24 494.622 627.963 515.406 639.963 c 4
 535.325 651.463 597.617 673.57 615.447 652.688 c 4
 617.813 650.59 619.313 647.991 620.813 645.394 c 5
572.675 551.712 m 5
 403.861 217.318 l 5
 378.861 174.017 299.177 190 268 208 c 4
 267.134 208.5 266.268 209 264.536 210 c 4
 236.823 226 183.47 277.589 195.541 314.498 c 4
 196.809 320.693 200.309 326.756 203.809 332.818 c 5
 408.13 646.712 l 5
 425.361 672.559 494.483 652.281 515.268 640.281 c 4
 535.187 628.781 585.479 585.889 576.309 560.006 c 4
 575.675 556.908 574.175 554.31 572.675 551.712 c 5
411.455 635 m 5
 206.269 948.394 l 5
 181.269 991.695 234.953 1052.71 266.13 1070.71 c 4
 266.996 1071.21 267.862 1071.71 269.594 1072.71 c 4
 297.307 1088.71 368.66 1109.12 394.589 1080.21 c 4
 399.321 1076.02 402.821 1069.96 406.321 1063.89 c 5
 576 730 l 5
 589.769 702.153 537.646 652.431 516.862 640.431 c 4
 496.943 628.931 434.651 606.823 416.821 627.706 c 4
 414.455 629.804 412.955 632.402 411.455 635 c 5
459.455 729 m 5
 628.269 1063.39 l 5
 653.269 1106.7 732.953 1090.71 764.13 1072.71 c 4
 764.996 1072.21 765.862 1071.71 767.594 1070.71 c 4
 795.307 1054.71 848.66 1003.12 836.589 966.214 c 4
 835.321 960.019 831.821 953.956 828.321 947.894 c 5
 624 634 l 5
 606.769 608.153 537.646 628.431 516.862 640.431 c 4
 496.943 651.931 446.651 694.823 455.821 720.706 c 4
 456.455 723.804 457.955 726.402 459.455 729 c 5
564 734 m 5
 938 755 l 5
 988 755 1014 678 1014 642 c 4
 1014 641 1014 640 1014 638 c 4
 1014 606 996 534 958 526 c 4
 952 524 945 524 938 524 c 5
 564 544 l 5
 533 546 516 616 516 640 c 4
 516 663 528 728 555 733 c 4
 558 734 561 734 564 734 c 5
468 545 m 5
 94 524 l 5
 44 524 18 601 18 637 c 4
 18 638 18 639 18 641 c 4
 18 673 36 745 74 753 c 4
 80 755 87 755 94 755 c 5
 468 735 l 5
 499 733 516 663 516 639 c 4
 516 616 504 551 477 546 c 4
 474 545 471 545 468 545 c 5
EndSplineSet
Fore
SplineSet
763 821 m 1
 1007 835 l 2
 1057 835 1083 758 1083 722 c 0
 1083 721 1083 720 1083 718 c 0
 1083 686 1065 614 1027 606 c 0
 1021 604 1014 604 1007 604 c 2
 761 617 l 1
 895 412 l 2
 899 404 901 396 901 387 c 0
 901 348 861 304 835 290 c 0
 834 289 833 289 832 288 c 0
 814 278 779 266 749 266 c 0
 732 266 716 270 707 280 c 0
 702 284 698 290 695 296 c 2
 583 516 l 1
 473 297 l 2
 461 277 437 270 412 270 c 0
 383 270 353 279 337 288 c 0
 336 288 335 289 334 290 c 0
 309 304 263 348 263 383 c 0
 263 387 263 391 265 394 c 0
 266 401 269 407 273 413 c 2
 406 618 l 1
 163 604 l 2
 113 604 87 681 87 717 c 0
 87 718 87 719 87 721 c 0
 87 753 105 825 143 833 c 0
 149 835 156 835 163 835 c 2
 411 822 l 1
 275 1028 l 2
 271 1036 269 1045 269 1053 c 0
 269 1092 310 1136 335 1151 c 0
 336 1151 337 1152 339 1153 c 0
 356 1163 391 1175 421 1175 c 0
 439 1175 454 1171 464 1160 c 0
 468 1156 472 1150 475 1144 c 2
 587 925 l 1
 697 1143 l 2
 709 1164 733 1171 759 1171 c 0
 787 1171 817 1162 833 1153 c 0
 834 1152 835 1152 837 1151 c 0
 862 1136 907 1093 907 1058 c 0
 907 1054 907 1050 906 1046 c 0
 904 1040 901 1034 897 1028 c 2
 763 821 l 1
EndSplineSet
EndChar

StartChar: plus
Encoding: 43 43 11
Width: 972
Flags: W
HStem: 520 240<68 334 574 861>
VStem: 334 240<233 520 760 1062>
LayerCount: 2
Back
SplineSet
67.584 710.656 m 1
 374.784 710.656 l 1
 374.784 1021.95 l 1
 516.096 1021.95 l 1
 516.096 710.656 l 1
 823.296 710.656 l 1
 823.296 569.344 l 1
 516.096 569.344 l 1
 516.096 258.048 l 1
 374.784 258.048 l 1
 374.784 569.344 l 1
 67.584 569.344 l 1
 67.584 710.656 l 1
EndSplineSet
Fore
SplineSet
68 760 m 1
 334 760 l 1
 334 1062 l 1
 574 1062 l 1
 574 760 l 1
 861 760 l 1
 861 520 l 1
 573 520 l 1
 573 233 l 1
 334 233 l 1
 334 520 l 1
 68 520 l 1
 68 760 l 1
EndSplineSet
EndChar

StartChar: comma
Encoding: 44 44 12
Width: 444
Flags: W
HStem: -205 503
VStem: 174 208<-57 172>
LayerCount: 2
Back
SplineSet
308.224 94.208 m 1
 308.224 -63.4883 206.848 -186.368 184.32 -221.184 c 1
 129.024 -190.464 l 1
 149.504 -159.744 200.704 -83.9678 200.704 -12.2881 c 0
 141.352 -12.2881 93.1836 34.8555 93.1836 94.208 c 0
 93.1836 153.561 141.352 201.728 200.704 201.728 c 0
 260.055 201.728 308.224 153.561 308.224 94.208 c 1
EndSplineSet
Fore
SplineSet
382 137 m 1
 382 -27 249 -169 203 -205 c 1
 129 -162 l 1
 139 -146 174 -74 174 -40 c 0
 174 -36 173 -32 172 -29 c 1
 117 -16 56 36 56 137 c 1
 56 215 129 298 215 298 c 1
 330 298 382 207 382 137 c 1
EndSplineSet
EndChar

StartChar: hyphen
Encoding: 45 45 13
Width: 960
Flags: W
HStem: 514 240<98 870>
LayerCount: 2
Back
SplineSet
98.3037 704.512 m 1
 776.192 704.512 l 1
 776.192 563.2 l 1
 98.3037 563.2 l 1
 98.3037 704.512 l 1
EndSplineSet
Fore
SplineSet
98 754 m 1
 870 754 l 1
 870 514 l 1
 98 514 l 1
 98 754 l 1
EndSplineSet
EndChar

StartChar: period
Encoding: 46 46 14
Width: 451
Flags: W
HStem: -33 328<117.958 338.439>
VStem: 64 328<20.9582 241.439>
LayerCount: 2
Back
SplineSet
93.1836 94.208 m 0
 93.1836 153.561 141.352 201.728 200.704 201.728 c 0
 260.055 201.728 308.224 153.561 308.224 94.208 c 0
 308.224 34.8555 260.055 -13.3115 200.704 -13.3115 c 0
 141.352 -13.3115 93.1836 34.8555 93.1836 94.208 c 0
EndSplineSet
Fore
SplineSet
64 131 m 0
 64 222 138 295 228 295 c 0
 319 295 392 222 392 131 c 0
 392 41 319 -33 228 -33 c 0
 138 -33 64 41 64 131 c 0
EndSplineSet
EndChar

StartChar: slash
Encoding: 47 47 15
Width: 847
Flags: W
HStem: 0 21G<-42 253.238>
LayerCount: 2
Back
SplineSet
124.928 0 m 1
 -32.7676 0 l 1
 684.032 1544.19 l 0
 841.729 1544.19 l 1
 124.928 0 l 1
EndSplineSet
Fore
SplineSet
245 0 m 1
 -42 0 l 1
 613 1544 l 0
 881 1544 l 1
 245 0 l 1
EndSplineSet
EndChar

StartChar: zero
Encoding: 48 48 16
Width: 1177
Flags: W
HStem: -28 242<457.202 711.798> 1248 242<449.715 722.149>
VStem: 80 268<402.138 1099.75> 821 268<402.356 1103.91>
LayerCount: 2
Back
SplineSet
90.1123 727.04 m 1
 90.1123 1136.64 268.288 1492.99 571.392 1492.99 c 1
 874.496 1492.99 1038.34 1136.64 1038.34 727.04 c 1
 1038.34 319.488 866.304 -30.7197 563.2 -30.7197 c 1
 260.096 -30.7197 90.1123 319.488 90.1123 727.04 c 1
247.808 727.04 m 1
 247.808 448.512 342.016 110.592 563.2 110.592 c 1
 786.432 110.592 880.64 448.512 880.64 727.04 c 1
 880.64 1007.62 794.624 1351.68 571.392 1351.68 c 1
 350.208 1351.68 247.808 1007.62 247.808 727.04 c 1
EndSplineSet
Fore
SplineSet
80 756 m 1
 80 1216 270 1490 590 1490 c 1
 910 1490 1089 1216 1089 756 c 1
 1089 297 905 -28 585 -28 c 0
 584 -28 l 1
 264 -28 80 296 80 756 c 1
348 756 m 1
 348 406 394 214 584 214 c 1
 774 214 821 406 821 756 c 1
 821 1106 780 1248 590 1248 c 1
 400 1248 348 1106 348 756 c 1
EndSplineSet
EndChar

StartChar: one
Encoding: 49 49 17
Width: 1177
Flags: W
HStem: 0 21G<502 770> 1436 20G<482.818 770>
VStem: 502 268<0 1206>
LayerCount: 2
Back
SplineSet
571.392 1275.9 m 1
 362.496 1099.78 l 1
 272.384 1196.03 l 1
 573.44 1456.13 l 1
 729.088 1456.13 l 1
 729.088 0 l 1
 571.392 0 l 1
 571.392 1275.9 l 1
EndSplineSet
Fore
SplineSet
502 1184 m 1
 502 1206 l 1
 229 1206 l 1
 261 1236 l 1
 505 1456 l 1
 770 1456 l 1
 770 0 l 1
 502 0 l 1
 502 1184 l 1
EndSplineSet
EndChar

StartChar: two
Encoding: 50 50 18
Width: 1177
Flags: W
HStem: 0 240<402 1061> 1076 21G<290.958 375> 1252 240<435.24 693.629>
VStem: 759 262<897.42 1180.62>
LayerCount: 2
Back
SplineSet
725 1176 m 5
 942 1322 l 5
240 1112 m 21
 274 1230 408 1368 570 1368 c 5
 788 1368 893.694 1219.53 893 1040 c 28
 892.165 823.919 712 704 567 592 c 4
 422 480 243 336 243 146 c 5
188 398 m 5
 412 265 l 5
719 896 m 5
 931 751 l 5
485 686 m 5
 642 488 l 5
262.144 1110.02 m 9
 122.878 1165.31 l 17
 174.08 1347.58 366.592 1495.04 569.344 1495.04 c 0
 780.288 1495.04 989.182 1359.87 989.182 1052.67 c 0
 989.182 772.096 688.697 610.386 591.872 540.672 c 0
 489.472 466.944 272.384 274.432 272.384 141.312 c 1
 1036.29 141.312 l 17
 1036.29 0 l 1
 88.0645 0 l 1
 88.0645 325.632 333.824 528.384 544.771 675.84 c 0
 652.012 750.805 835.582 849.92 835.582 1052.67 c 0
 835.582 1249.28 702.464 1353.73 569.344 1353.73 c 0
 442.368 1353.73 313.344 1271.81 262.144 1110.02 c 9
EndSplineSet
Fore
SplineSet
358 1076 m 9
 120 1147 l 17
 159 1344 368 1492 567 1492 c 1
 766 1492 1021 1396 1021 1041 c 1
 1021 880 981 785 858 663 c 0
 710 516 456 386 402 240 c 1
 1061 240 l 17
 1061 0 l 1
 92 0 l 1
 92 210 124 359 298 534 c 0
 486 722 759 813 759 1041 c 0
 759 1182 678 1252 567 1252 c 1
 456 1252 392 1194 358 1076 c 9
EndSplineSet
EndChar

StartChar: three
Encoding: 51 51 19
Width: 1177
Flags: W
HStem: -28 242<458.308 740.675> 651 213<433 689.567> 1253 237<454.76 695.038>
VStem: 760 252<936.88 1186.81> 831 269<302.948 553.227>
LayerCount: 2
Back
SplineSet
763 274 m 5
 920 76 l 5
805 530 m 5
 1022 676 l 5
741 1162 m 5
 958 1308 l 5
240 1112 m 21
 274 1230 408 1368 570 1368 c 5
 777.371 1368 889.966 1223.49 893.344 1056 c 4
 897.359 856.812 745.042 760 542 760 c 5
 762 760 964 690 964 428 c 5
 964 186 772 98 598 98 c 5
 450 98 318 180 264 282 c 5
122.88 251.904 m 9xd0
 278.528 299.008 l 17
 329.728 188.416 448.512 110.592 557.056 110.592 c 1
 720.896 110.592 868.352 202.752 868.352 403.456 c 1xd0
 868.352 602.112 718.848 692.224 561.152 692.224 c 0
 483.328 692.224 l 1
 483.328 825.344 l 1
 561.152 825.344 l 0
 706.56 825.344 833.536 909.312 833.536 1085.44 c 1
 833.536 1241.09 743.424 1357.82 559.104 1357.82 c 1
 552.96 1357.82 l 0
 448.512 1357.82 342.016 1302.53 299.008 1200.13 c 9
 161.792 1263.62 l 17
 231.424 1400.83 393.216 1497.09 559.104 1497.09 c 1
 811.008 1497.09 991.232 1327.1 991.232 1085.44 c 1xe0
 991.232 890.88 860.16 792.576 796.672 753.664 c 1
 884.736 727.04 1026.05 614.4 1026.05 403.456 c 1
 1026.05 129.024 817.152 -30.7197 557.056 -30.7197 c 1
 401.408 -30.7197 200.704 71.6797 122.88 251.904 c 9xd0
EndSplineSet
Fore
SplineSet
93 323 m 9xe8
 351 393 l 17
 404 260 510 214 598 214 c 1
 736 214 831 308 831 429 c 1xe8
 831 552 718 651 598 651 c 0
 433 651 l 1
 433 864 l 1
 575 864 l 0
 678 864 760 962 760 1054 c 0
 760 1188 672 1253 569 1253 c 0
 484 1253 424 1195 402 1142 c 9
 152 1208 l 17
 221 1389 359 1490 568 1490 c 1
 796 1490 1012 1380 1012 1096 c 1xf0
 1012 964 948 878 867 820 c 1
 976 746 1100 640 1100 429 c 1
 1100 184 888 -28 598 -28 c 1
 381 -28 184 72 93 323 c 9xe8
EndSplineSet
EndChar

StartChar: four
Encoding: 52 52 20
Width: 1177
Flags: W
HStem: 0 21G<675 944> 348 240<348 675 944 1082> 1436 20G<642.5 944>
VStem: 683 261<0 348 588 1105>
LayerCount: 2
Back
SplineSet
854.016 1445.25 m 1
 854.016 536.576 l 9
 1042.43 536.576 l 17
 1042.43 397.312 l 1
 854.016 397.312 l 1
 854.016 0 l 1
 696.32 0 l 1
 696.32 397.312 l 1
 77.8242 397.312 l 9
 684.032 1456.13 l 1
 696.32 1456.13 l 1
 854.016 1456.13 l 1
 860.16 1456.13 l 1
 854.016 1445.25 l 1
700.416 1229.67 m 1
 313.344 538.624 l 1
 700.416 538.624 l 1
 700.416 1229.67 l 1
EndSplineSet
Fore
SplineSet
944 585 m 9
 1082 585 l 17
 1082 348 l 1
 944 348 l 1
 944 0 l 1
 675 0 l 1
 675 348 l 1
 90 348 l 1
 90 552 l 1
 655 1456 l 1
 944 1456 l 1
 944 585 l 9
683 1105 m 1
 348 588 l 1
 683 588 l 1
 683 1105 l 1
EndSplineSet
EndChar

StartChar: five
Encoding: 53 53 21
Width: 1177
Flags: W
HStem: -26 242<463.035 742.438> 719 229<452.459 737.626> 1217 239<506 975>
VStem: 842 264<316.079 608.268>
LayerCount: 2
Back
SplineSet
763 274 m 1
 920 76 l 1
812 590 m 1
 1029 736 l 1
306 752 m 0
 354 782 472 823.669 598 823.669 c 1
 776 823.669 973 678 973 461 c 1
 973 240 772 98 598 98 c 1
 450 98 328 180 274 282 c 1
221 461 m 0
 221 660.824 394.968 823 597 823 c 0
 799.032 823 973 660.824 973 461 c 0
 973 261.176 799.032 99 597 99 c 0
 394.968 99 221 261.176 221 461 c 0
552.96 765.952 m 1
 425.984 765.952 272.384 712.704 182.272 671.744 c 9
 282.624 1456.13 l 1
 954.368 1456.13 l 1
 954.368 1314.82 l 1
 409.6 1314.82 l 1
 354.304 868.352 l 1
 409.6 897.024 475.136 901.12 559.104 901.12 c 1
 823.296 901.12 1038.34 706.561 1038.34 417.792 c 1
 1038.34 208.896 866.304 -30.7197 587.776 -30.7197 c 1
 356.352 -30.7197 169.984 133.12 114.688 329.729 c 9
 270.336 358.4 l 17
 305.152 256 391.168 110.592 587.776 110.592 c 1
 763.904 110.592 882.688 243.712 882.688 419.84 c 1
 882.688 614.4 724.992 765.952 552.96 765.952 c 1
EndSplineSet
Fore
SplineSet
598 719 m 1
 504 719 456 686 431 660 c 1
 174 750 l 1
 292 1456 l 1
 975 1456 l 1
 975 1217 l 1
 506 1217 l 1
 451 926 l 1
 477 941 550 948 598 948 c 1
 884 948 1106 756 1106 461 c 1
 1106 166 884 -26 598 -26 c 1
 284 -26 126 216 94 366 c 9
 359 412 l 17
 370 352 448 216 598 216 c 1
 748 216 842 324 842 461 c 1
 842 598 748 719 598 719 c 1
EndSplineSet
EndChar

StartChar: six
Encoding: 54 54 22
Width: 1177
Flags: W
HStem: -28 236<460.265 713.507> 660 242<537.264 708.297> 1436 20G<536.737 834>
VStem: 109 268<296.122 572.893> 798 269<293.644 566.554>
LayerCount: 2
Back
SplineSet
387 429 m 5
 387 553 463 660 591 660 c 5
 719 660 788 547 788 433 c 5
 788 302 704 208 589 208 c 5
 457 208 387 321 387 429 c 5
677 886 m 5
 674 889 589 902 585 902 c 4
 300 902 118 703 118 429 c 5
 118 204 303 -28 591 -28 c 5
 871 -28 1056 195 1056 431 c 5
 1056 664 974 820 924 924 c 5
EndSplineSet
Fore
SplineSet
798 429 m 1
 798 553 712 660 584 660 c 1
 456 660 377 547 377 433 c 1
 377 302 471 208 586 208 c 1
 718 208 798 321 798 429 c 1
536 897 m 1
 539 900 586 902 590 902 c 0
 875 902 1067 703 1067 429 c 1
 1067 204 872 -28 584 -28 c 1
 304 -28 109 195 109 431 c 1
 109 664 224 820 274 924 c 1
 547 1456 l 1
 834 1456 l 1
 536 897 l 1
EndSplineSet
EndChar

StartChar: seven
Encoding: 55 55 23
Width: 1177
Flags: W
HStem: 0 21G<98 432.11> 1202 254<100 703>
LayerCount: 2
Back
SplineSet
1069.06 1456.13 m 1
 514.048 0 l 1
 331.776 0 l 1
 847.872 1306.62 l 1
 100.352 1306.62 l 1
 100.352 1456.13 l 1
 1069.06 1456.13 l 1
EndSplineSet
Fore
SplineSet
1158 1456 m 1
 422 0 l 1
 98 0 l 1
 703 1202 l 1
 100 1202 l 1
 100 1456 l 1
 1158 1456 l 1
EndSplineSet
EndChar

StartChar: eight
Encoding: 56 56 24
Width: 1177
Flags: W
HStem: -28 221<441.043 742.369> 676 247<443.333 732.999> 1270 219<450.389 726.776>
VStem: 68 268<289.921 579.914> 125 268<974.864 1212.41> 786 269<974.304 1210.05> 844 268<289.9 566.305>
LayerCount: 2
Back
SplineSet
571.392 110.592 m 0xf2
 753.664 110.592 903.168 235.52 903.168 411.648 c 1
 903.168 589.824 745.472 722.944 575.488 722.944 c 1
 395.264 722.944 251.904 587.776 251.904 411.648 c 0
 251.904 229.376 399.36 110.592 571.392 110.592 c 0xf2
317.44 1107.97 m 1xec
 317.44 956.416 430.08 856.064 575.488 856.064 c 1
 718.848 856.064 831.488 952.32 831.488 1107.97 c 1
 831.488 1239.04 745.472 1355.78 573.44 1355.78 c 1
 407.552 1355.78 317.44 1234.94 317.44 1107.97 c 1xec
573.44 1497.09 m 1
 825.344 1497.09 989.184 1333.25 989.184 1107.97 c 1xec
 989.184 913.408 870.4 833.536 817.152 786.432 c 1
 894.976 727.04 1060.86 612.352 1060.86 411.648 c 1
 1060.86 147.456 833.536 -30.7197 571.392 -30.7197 c 1
 309.248 -30.7197 94.208 151.552 94.208 411.648 c 1xf2
 94.208 604.16 245.76 727.04 329.728 786.432 c 1
 266.24 843.776 159.744 917.504 159.744 1107.97 c 1
 159.744 1327.1 323.584 1497.09 573.44 1497.09 c 1
EndSplineSet
Fore
SplineSet
590 193 m 0xf2
 742 193 844 293 844 433 c 1
 844 575 721 676 590 676 c 1
 426 676 336 573 336 433 c 0
 336 292 438 193 590 193 c 0xf2
393 1095 m 1xec
 393 976 470 923 590 923 c 1
 702 923 786 973 786 1095 c 1
 786 1193 723 1270 588 1270 c 1
 451 1270 393 1190 393 1095 c 1xec
588 1489 m 1
 864 1489 1055 1324 1055 1095 c 1xec
 1055 919 924 840 867 802 c 1
 973 774 1112 619 1112 433 c 1
 1112 128 877 -28 586 -28 c 1
 263 -28 68 161 68 433 c 1xf2
 68 614 213 778 313 802 c 1
 254 836 125 927 125 1095 c 1
 125 1332 307 1489 588 1489 c 1
EndSplineSet
EndChar

StartChar: nine
Encoding: 57 57 25
Width: 1177
Flags: W
HStem: 0 21G<340 637.263> 554 242<465.703 636.736> 1248 236<460.493 713.735>
VStem: 107 269<889.446 1162.36> 797 268<883.107 1159.88>
LayerCount: 2
Back
SplineSet
282.624 1052.67 m 1
 282.624 890.88 409.6 751.616 587.776 751.616 c 1
 765.952 751.616 882.688 899.072 882.688 1048.58 c 1
 882.688 1218.56 745.472 1341.44 585.729 1341.44 c 1
 401.408 1341.44 282.624 1193.98 282.624 1052.67 c 1
724.992 632.832 m 1
 679.936 614.4 647.168 602.112 587.776 602.112 c 0
 339.968 602.112 133.12 798.72 133.12 1052.67 c 1
 133.12 1259.52 311.296 1490.94 589.824 1490.94 c 1
 856.064 1490.94 1032.19 1267.71 1032.19 1050.62 c 1
 1032.19 845.824 911.36 675.84 864.256 589.824 c 1
 509.952 -55.2959 l 9
 382.976 20.4805 l 17
 724.992 632.832 l 1
EndSplineSet
Fore
SplineSet
376 1027 m 1
 376 903 462 796 590 796 c 1
 718 796 797 909 797 1023 c 1
 797 1154 703 1248 588 1248 c 1
 456 1248 376 1135 376 1027 c 1
638 559 m 1
 635 556 588 554 584 554 c 0
 299 554 107 753 107 1027 c 1
 107 1252 302 1484 590 1484 c 1
 870 1484 1065 1261 1065 1025 c 1
 1065 792 950 636 900 532 c 1
 627 0 l 1
 340 0 l 1
 638 559 l 1
EndSplineSet
EndChar

StartChar: less
Encoding: 60 60 28
Width: 864
Flags: W
LayerCount: 2
Back
SplineSet
581.632 22.5283 m 1
 73.7275 634.88 l 1
 581.632 1234.94 l 1
 780.288 1234.94 l 1
 270.336 632.832 l 1
 780.288 22.5283 l 1
 581.632 22.5283 l 1
EndSplineSet
Fore
SplineSet
463 24 m 1
 45 636 l 1
 463 1237 l 1
 795 1237 l 1
 376 633 l 1
 793 24 l 1
 463 24 l 1
EndSplineSet
EndChar

StartChar: equal
Encoding: 61 61 29
Width: 907
Flags: W
HStem: 309 240<55 856> 676 239<55 856>
LayerCount: 2
Back
SplineSet
55.2959 499.712 m 1
 856.064 499.712 l 1
 856.064 358.4 l 1
 55.2959 358.4 l 1
 55.2959 499.712 l 1
55.2959 866.304 m 1
 856.064 866.304 l 1
 856.064 724.992 l 1
 55.2959 724.992 l 1
 55.2959 866.304 l 1
EndSplineSet
Fore
SplineSet
55 549 m 1
 856 549 l 1
 856 309 l 1
 55 309 l 1
 55 549 l 1
55 915 m 1
 856 915 l 1
 856 676 l 1
 55 676 l 1
 55 915 l 1
EndSplineSet
EndChar

StartChar: greater
Encoding: 62 62 30
Width: 864
Flags: W
LayerCount: 2
Back
SplineSet
280.576 20.4805 m 1
 81.9199 20.4805 l 1
 589.824 632.832 l 1
 81.9199 1234.94 l 1
 280.576 1234.94 l 1
 786.432 634.88 l 1
 280.576 20.4805 l 1
EndSplineSet
Fore
SplineSet
393 20 m 1
 55 20 l 1
 477 632 l 1
 55 1235 l 1
 394 1235 l 1
 807 636 l 1
 393 20 l 1
EndSplineSet
EndChar

StartChar: question
Encoding: 63 63 31
Width: 1034
Flags: W
HStem: -33 328<396.958 617.439> 1253 244<382.929 647.52>
VStem: 343 328<20.9582 241.439> 371 268<399 626.626> 702 281<963.354 1201.9>
LayerCount: 2
Back
SplineSet
264.745 1093.14 m 0
 264.745 1199.21 373.787 1289.56 508.14 1289.56 c 4
 642.494 1289.56 751.534 1199.21 751.534 1093.14 c 0
 751.534 987.072 642.494 900.987 508.14 900.987 c 0
 373.787 900.987 264.745 987.072 264.745 1093.14 c 0
51.2402 1093.14 m 0
 51.2402 1314.71 254.018 1494.53 503.869 1494.53 c 0
 753.72 1494.53 956.498 1314.71 956.498 1093.14 c 0
 956.498 871.573 753.72 691.753 503.869 691.753 c 0
 254.018 691.753 51.2402 871.573 51.2402 1093.14 c 0
EndSplineSet
Fore
SplineSet
343 131 m 0xe8
 343 222 417 295 507 295 c 0
 598 295 671 222 671 131 c 0
 671 41 598 -33 507 -33 c 0
 417 -33 343 41 343 131 c 0xe8
639 530 m 1xd8
 639 399 l 1
 371 399 l 1
 371 594 l 0
 371 836 702 858 702 1094 c 1
 702 1212 598 1253 504 1253 c 1
 395 1253 324 1171 315 1069 c 1
 47 1110 l 1
 72 1327 238 1497 500 1497 c 1
 745 1497 983 1362 983 1098 c 1
 983 727 639 717 639 530 c 1xd8
EndSplineSet
EndChar

StartChar: at
Encoding: 64 64 32
Width: 1737
Flags: W
HStem: -33 166<656.798 1081.86> 346 203<755.512 985.681> 373 219<1289.84 1418.66> 905 189<752.99 993.077> 1323 172<656.798 1097.52>
VStem: 79 200<514.586 944.686> 472 219<614.85 847.153> 1045 213<617.646 852.405> 1453 207<623.802 970.988>
LayerCount: 2
Back
SplineSet
1165.31 212.992 m 1xbf80
 1243.14 110.592 l 17
 1116.16 18.4316 962.56 -34.8164 794.624 -34.8164 c 0
 370.688 -34.8164 30.7197 307.2 30.7197 731.136 c 0
 30.7197 1153.02 370.688 1495.04 794.624 1495.04 c 0
 1216.51 1495.04 1558.53 1153.02 1558.53 731.136 c 0
 1558.53 555.008 1411.07 417.792 1273.86 417.792 c 0xbf80
 1200.13 417.792 1112.06 460.8 1058.82 518.145 c 1
 999.424 438.272 901.12 389.12 794.624 389.12 c 0xdf80
 606.208 389.12 452.608 542.72 452.608 731.136 c 0
 452.608 917.504 606.208 1071.1 794.624 1071.1 c 0
 983.04 1071.1 1118.21 909.312 1118.21 731.136 c 0
 1118.21 645.12 1185.79 546.816 1267.71 546.816 c 0
 1351.68 546.816 1429.5 626.688 1429.5 731.136 c 0
 1429.5 1071.1 1153.02 1368.06 794.624 1368.06 c 0
 436.224 1368.06 157.696 1071.1 157.696 727.04 c 0
 157.696 385.024 436.224 92.1602 794.624 92.1602 c 0
 921.6 92.1602 1069.06 145.408 1165.31 212.992 c 1xbf80
581.632 731.136 m 0
 581.632 606.208 679.936 516.096 794.624 516.096 c 0xdf80
 917.504 516.096 993.28 614.4 993.28 731.136 c 0
 993.28 841.729 897.024 946.176 794.624 946.176 c 0
 684.032 946.176 581.632 849.92 581.632 731.136 c 0
EndSplineSet
Fore
SplineSet
1224 260 m 1xbf80
 1336 113 l 17
 1206 21 1076 -33 875 -33 c 0
 433 -33 79 300 79 731 c 0
 79 1161 433 1495 875 1495 c 0
 1315 1495 1660 1174 1660 760 c 0
 1660 542 1508 373 1355 373 c 0xbf80
 1286 373 1203 412 1153 500 c 1
 1091 388 987 346 875 346 c 0xdf80
 653 346 472 519 472 731 c 0
 472 930 653 1094 875 1094 c 0
 1098 1094 1258 928 1258 746 c 0
 1258 674 1300 592 1351 592 c 0
 1404 592 1453 665 1453 760 c 0
 1453 1068 1201 1323 875 1323 c 0
 548 1323 279 1056 279 729 c 0
 279 400 548 133 875 133 c 0
 1015 133 1154 199 1224 260 c 1xbf80
691 731 m 0
 691 625 776 549 875 549 c 0xdf80
 981 549 1045 639 1045 745 c 0
 1045 840 963 905 875 905 c 0
 780 905 691 841 691 731 c 0
EndSplineSet
EndChar

StartChar: m
Encoding: 109 109 33
Width: 1575
Flags: W
HStem: 0 21G<119 377 666 924 1212 1470> 868 234<510.088 747.5 1056.52 1267.5> 1053 20G<119 377>
VStem: 119 258<0 812.685 915 1073> 666 258<0 808.313> 1212 258<0 803.188>
LayerCount: 2
Back
SplineSet
346 862 m 5
 390.825 954.286 506 1102 636 1102 c 4
 766 1102 924 1018 924 539 c 4
 924 0 l 5
 666 0 l 4
 666 539 l 4
 666 740 622 868 522 868 c 5
 422 868 378 740 378 539 c 4
 378 0 l 5
EndSplineSet
Fore
SplineSet
924 0 m 1xdc
 666 0 l 0
 666 539 l 0
 666 740 636 868 521 868 c 1xdc
 405 868 377 740 377 539 c 0
 377 0 l 9
 119 0 l 1
 119 1073 l 1
 377 1073 l 1xbc
 377 915 l 17
 418 986 516 1102 646 1102 c 0
 849 1102 884 881 892 862 c 1
 937 954 1052 1102 1182 1102 c 0
 1353 1102 1470 954 1470 668 c 0
 1470 0 l 1
 1212 0 l 0
 1212 539 l 0
 1212 740 1182 868 1068 868 c 1
 954 868 924 740 924 539 c 0
 924 0 l 1xdc
EndSplineSet
EndChar

StartChar: n
Encoding: 110 110 34
Width: 1121
Flags: W
HStem: 0 21G<119 377 756 1014> 867 235<527.483 771.5> 1054 20G<119 377>
VStem: 119 258<0 778.931 912 1074> 756 258<0 791.583>
LayerCount: 2
Back
SplineSet
270.336 0 m 9
 118.784 0 l 1
 118.784 1073.15 l 1
 270.336 1073.15 l 1
 270.336 921.6 l 17
 339.968 999.424 417.792 1095.68 563.2 1095.68 c 0
 819.2 1095.68 905.216 880.64 905.216 622.592 c 0
 905.216 0 l 1
 753.664 0 l 0
 753.664 618.496 l 0
 753.664 790.528 684.032 958.464 573.44 958.464 c 1
 446.464 958.464 270.336 831.488 270.336 659.456 c 0
 270.336 0 l 9
EndSplineSet
Fore
SplineSet
377 0 m 9xd8
 119 0 l 1
 119 1074 l 1
 377 1074 l 1xb8
 377 912 l 17
 434 1016 558 1102 700 1102 c 0
 843 1102 1014 953 1014 668 c 1
 1014 0 l 1
 756 0 l 0
 756 537 l 2
 756 812 684 867 576 867 c 0
 468 867 377 810 377 536 c 2
 377 0 l 9xd8
EndSplineSet
EndChar

StartChar: o
Encoding: 111 111 35
Width: 1105
Flags: HMW
LayerCount: 2
Back
SplineSet
92.1602 536.576 m 0
 92.1602 851.968 241.664 1093.63 507.904 1093.63 c 0
 774.144 1093.63 923.648 851.968 923.648 536.576 c 0
 923.648 221.184 774.144 -28.6719 507.904 -28.6719 c 1
 241.664 -28.6719 92.1602 221.184 92.1602 536.576 c 0
245.76 536.576 m 0
 245.76 339.968 327.68 106.496 507.904 106.496 c 0
 700.416 106.496 770.048 339.968 770.048 536.576 c 0
 770.048 733.184 688.128 958.464 507.904 958.464 c 0
 327.68 958.464 245.76 733.184 245.76 536.576 c 0
EndSplineSet
Fore
SplineSet
344 537 m 0
 344 276 450 206 566 206 c 0
 681 206 788 276 788 537 c 1
 788 798 681 866 566 866 c 1
 450 866 344 798 344 537 c 0
92 537 m 0
 92 879 261 1100 565 1100 c 0
 870 1100 1036 879 1036 537 c 0
 1036 195 870 -29 565 -29 c 1
 261 -29 92 189 92 537 c 0
EndSplineSet
EndChar

StartChar: p
Encoding: 112 112 36
Width: 1132
Flags: W
HStem: -426 21G<119 377> -28 234<526.516 695.614> 866 234<523.961 700.625> 1053 20G<119 377>
VStem: 119 258<-426 157 307.939 764.48 917 1073> 803 260<331.335 751.999>
LayerCount: 2
Back
SplineSet
270.336 -425.984 m 17
 118.784 -425.984 l 1
 118.784 1073.15 l 1
 270.336 1073.15 l 1
 270.336 899.072 l 17
 327.68 995.328 405.504 1091.58 550.912 1091.58 c 0
 802.816 1091.58 923.648 823.296 923.648 540.672 c 0
 923.648 258.048 835.584 -28.6719 512 -28.6719 c 1
 348.16 -28.6719 270.336 139.264 270.336 139.264 c 0
 270.336 139.264 270.336 -205.537 270.336 -425.984 c 17
770.048 536.576 m 0
 770.048 770.048 688.128 956.416 561.152 956.416 c 1
 421.888 956.416 266.24 794.624 266.24 536.576 c 1
 266.24 245.76 409.6 106.496 522.24 106.496 c 0
 671.744 106.496 770.048 262.144 770.048 536.576 c 0
EndSplineSet
Fore
SplineSet
377 -426 m 17xec
 119 -426 l 1
 119 1073 l 1
 377 1073 l 1xdc
 377 917 l 17
 446 1026 568 1100 684 1100 c 0
 948 1100 1063 836 1063 532 c 0
 1063 228 946 -28 684 -28 c 1
 568 -28 446 48 377 157 c 1
 377 -426 l 17xec
803 537 m 0
 803 782 688 866 591 866 c 1xec
 494 866 369 790 369 537 c 1
 369 282 494 206 591 206 c 0
 685 206 803 313 803 537 c 0
EndSplineSet
EndChar

StartChar: q
Encoding: 113 113 37
Width: 1132
Flags: W
HStem: -449 238<1021.96 1125> -28 234<441.386 610.484> 866 234<436.375 613.039> 1053 20G<760 1018>
VStem: 74 260<331.335 751.999> 760 258<-198.969 157 307.939 764.48 917 1073>
LayerCount: 2
Back
SplineSet
233.472 536.576 m 0
 233.472 262.144 335.872 106.496 485.376 106.496 c 0
 598.016 106.496 741.376 245.76 741.376 536.576 c 1
 741.376 794.624 585.729 956.416 446.464 956.416 c 1
 319.488 956.416 233.472 770.048 233.472 536.576 c 0
888.832 -198.656 m 2
 888.832 -278.528 917.504 -313.344 1007.62 -313.344 c 1
 1007.62 -448.512 l 1
 837.632 -448.512 737.28 -380.928 737.28 -204.8 c 0
 737.28 -199.234 737.28 133.698 737.28 139.264 c 1
 737.28 139.264 659.456 -28.6719 495.616 -28.6719 c 1
 172.032 -28.6719 83.9678 258.048 83.9678 540.672 c 0
 83.9678 823.296 204.8 1091.58 456.704 1091.58 c 0
 602.112 1091.58 675.84 995.328 737.28 899.072 c 9
 737.28 1073.15 l 1
 888.832 1073.15 l 1
 888.832 -198.656 l 2
EndSplineSet
Fore
SplineSet
760 -141 m 0xdc
 760 157 l 1
 691 48 569 -28 453 -28 c 1
 191 -28 74 228 74 532 c 0
 74 836 189 1100 453 1100 c 0xec
 569 1100 691 1026 760 917 c 9
 760 1073 l 1
 1018 1073 l 1
 1018 -137 l 0
 1018 -193 1034 -211 1125 -211 c 1
 1125 -449 l 1
 888 -449 760 -359 760 -141 c 0xdc
334 537 m 0
 334 313 452 206 546 206 c 0
 643 206 768 282 768 537 c 1
 768 790 643 866 546 866 c 1
 449 866 334 782 334 537 c 0
EndSplineSet
EndChar

StartChar: r
Encoding: 114 114 38
Width: 858
Flags: W
HStem: 0 21G<122 380> 868 234<511.204 706.115> 1053 20G<122 380>
VStem: 122 258<0 767.601 912 1073>
LayerCount: 2
Back
SplineSet
638.976 907.264 m 1
 616.448 921.6 544.768 948.224 509.952 948.224 c 1
 393.216 948.224 270.336 786.432 270.336 677.888 c 2
 270.336 0 l 17
 118.784 0 l 1
 118.784 1073.15 l 1
 270.336 1073.15 l 1
 270.336 913.408 l 17
 323.584 1007.62 419.84 1085.44 499.712 1085.44 c 0
 561.152 1085.44 655.36 1060.86 704.512 1030.14 c 1
 638.976 907.264 l 1
EndSplineSet
Fore
SplineSet
736 807 m 1xd0
 713 820 627 868 580 868 c 1xd0
 425 868 380 690 380 553 c 1
 380 0 l 17
 122 0 l 1
 122 1073 l 1
 380 1073 l 1xb0
 380 912 l 17
 437 1019 549 1102 629 1102 c 0
 698 1102 778 1060 833 1008 c 1
 736 807 l 1xd0
EndSplineSet
EndChar

StartChar: s
Encoding: 115 115 39
Width: 958
Flags: W
HStem: -29 230<359.095 622.246> 870 230<383.349 605.201>
VStem: 124 248<710.953 854.007> 637 248<219.852 368.511 798.544 841.653>
LayerCount: 2
Back
SplineSet
458.752 491.52 m 0
 299.893 543.455 110.592 614.4 110.592 798.72 c 0
 110.592 983.04 258.048 1097.73 458.752 1097.73 c 0
 667.648 1097.73 790.528 978.944 813.056 870.4 c 1
 671.744 841.729 l 0
 649.216 911.36 585.729 962.561 460.8 962.561 c 0
 315.392 962.561 264.192 897.024 264.192 804.864 c 0
 264.192 692.224 393.216 661.504 460.8 636.928 c 0
 611.789 582.023 829.44 499.712 829.44 296.96 c 0
 829.44 86.0156 675.84 -28.6719 462.848 -28.6719 c 0
 249.856 -28.6719 126.976 69.6318 86.0156 217.088 c 1
 227.328 243.712 l 1
 249.856 155.648 327.68 106.496 458.752 106.496 c 0
 598.016 106.496 675.84 172.032 675.84 296.96 c 0
 675.84 401.408 565.248 456.704 458.752 491.52 c 0
EndSplineSet
Fore
SplineSet
342 491 m 0
 200 566 124 622 124 810 c 0
 124 988 270 1100 494 1100 c 0
 718 1100 851 945 874 801 c 1
 634 758 l 1
 618 852 566 870 498 870 c 0
 430 870 372 857 372 783 c 0
 372 690 500 684 665 604 c 0
 812 532 885 444 885 270 c 0
 885 94 700 -29 485 -29 c 0
 265 -29 120 98 78 290 c 1
 310 329 l 1
 325 245 402 201 483 201 c 0
 564 201 637 211 637 295 c 0
 637 390 478 419 342 491 c 0
EndSplineSet
EndChar

StartChar: t
Encoding: 116 116 40
Width: 706
Flags: W
HStem: -15 217<484.031 621> 844 229<72 213 471 625>
VStem: 213 258<220.047 844 1073 1323>
LayerCount: 2
Back
SplineSet
253.952 937.984 m 0
 112.64 937.984 l 1
 112.64 1073.15 l 1
 253.952 1073.15 l 0
 253.952 1323.01 l 1
 405.504 1323.01 l 0
 405.504 1073.15 l 0
 602.112 1073.15 l 1
 602.112 937.984 l 1
 405.504 937.984 l 0
 405.504 215.04 l 0
 405.504 110.592 477.184 98.3037 522.24 98.3037 c 1
 591.872 98.3037 l 1
 591.872 -28.6719 l 1
 522.24 -28.6719 l 1
 317.44 -28.6719 253.952 49.1523 253.952 210.944 c 1
 253.952 937.984 l 0
EndSplineSet
Fore
SplineSet
213 844 m 0
 72 844 l 1
 72 1073 l 1
 213 1073 l 0
 213 1323 l 1
 471 1323 l 0
 471 1073 l 0
 625 1073 l 1
 625 844 l 1
 471 844 l 0
 471 297 l 0
 471 212 537 202 582 202 c 1
 621 202 l 1
 621 -15 l 1
 582 -15 l 1
 296 -15 213 85 213 293 c 1
 213 844 l 0
EndSplineSet
EndChar

StartChar: u
Encoding: 117 117 41
Width: 1112
Flags: W
HStem: -29 235<332 594.699> 0 21G<745 1003> 1053 20G<108 366 744 1003>
VStem: 108 258<300.37 1073> 744 259<0 161 305.704 1073>
LayerCount: 2
Back
SplineSet
743.424 1073.15 m 9
 894.976 1073.15 l 1
 894.976 0 l 1
 743.424 0 l 1
 743.424 139.264 l 17
 704.512 79.8721 636.928 -22.5283 491.521 -22.5283 c 0
 235.52 -22.5283 108.544 192.512 108.544 450.56 c 0
 108.544 1073.15 l 1
 260.096 1073.15 l 0
 260.096 454.656 l 0
 260.096 282.624 370.688 114.688 481.28 114.688 c 1
 608.256 114.688 743.424 241.664 743.424 413.696 c 0
 743.424 1073.15 l 9
EndSplineSet
Fore
SplineSet
1003 0 m 2x78
 745 0 l 2x78
 745 161 l 17
 688 57 565 -29 428 -29 c 0
 236 -29 108 156 108 535 c 1
 108 1073 l 1
 366 1073 l 0
 366 536 l 2
 366 261 466 206 546 206 c 0xb8
 626 206 744 263 744 537 c 2
 744 1073 l 9
 1003 1073 l 1
 1003 0 l 2x78
EndSplineSet
EndChar

StartChar: v
Encoding: 118 118 42
Width: 1060
Flags: W
HStem: 0 21G<404.681 630.319> 1053 20G<72 348.248 710.373 963>
LayerCount: 2
Back
SplineSet
436.224 0 m 1
 71.6797 1073.15 l 1
 231.424 1073.15 l 1
 512 194.56 l 1
 798.72 1073.15 l 1
 956.416 1073.15 l 1
 587.776 0 l 1
 436.224 0 l 1
EndSplineSet
Fore
SplineSet
411 0 m 1
 72 1073 l 1
 343 1073 l 1
 523 387 l 1
 716 1073 l 1
 963 1073 l 1
 624 0 l 1
 411 0 l 1
EndSplineSet
EndChar

StartChar: w
Encoding: 119 119 43
Width: 1449
Flags: W
HStem: 0 21G<366.129 577.277 846.904 1075.87> 1053 20G<57 317.022 606.137 845.881 1136.89 1385>
LayerCount: 2
Back
SplineSet
688.128 829.44 m 1
 460.8 0 l 1
 344.064 0 l 1
 57.3438 1073.15 l 1
 206.848 1073.15 l 1
 403.456 282.624 l 1
 616.448 1064.96 l 1
 759.808 1064.96 l 17
 972.8 282.624 l 1
 1169.41 1073.15 l 17
 1318.91 1073.15 l 1
 1032.19 0 l 1
 909.312 0 l 1
 688.128 829.44 l 1
EndSplineSet
Fore
SplineSet
715 664 m 1
 573 0 l 1
 372 0 l 1
 57 1073 l 1
 312 1073 l 1
 480 404 l 1
 610 1077 l 1
 842 1077 l 17
 972 407 l 1
 1142 1073 l 17
 1385 1073 l 1
 1070 0 l 1
 851 0 l 1
 715 664 l 1
EndSplineSet
EndChar

StartChar: x
Encoding: 120 120 44
Width: 1054
Flags: W
HStem: 0 21G<27 345.343 702.657 1021> 1053 20G<45 346.515 700.667 1026>
LayerCount: 2
Back
SplineSet
860.16 0 m 1
 690.176 0 l 9
 448.512 440.32 l 1
 219.136 0 l 1
 43.0078 0 l 9
 356.352 538.624 l 1
 45.0557 1073.15 l 9
 215.04 1073.15 l 1
 448.512 638.976 l 0
 681.984 1073.15 l 1
 851.968 1073.15 l 1
 540.672 542.72 l 0
 860.16 0 l 1
EndSplineSet
Fore
SplineSet
1021 0 m 1
 714 0 l 9
 524 335 l 1
 334 0 l 1
 27 0 l 9
 368 536 l 1
 45 1073 l 9
 335 1073 l 1
 525 743 l 0
 712 1073 l 1
 1026 1073 l 1
 680 545 l 0
 1021 0 l 1
EndSplineSet
EndChar

StartChar: y
Encoding: 121 121 45
Width: 1106
Flags: W
HStem: -465 232<400.113 685.329> -29 235<332 594.699> 1053 20G<108 366 744 1003>
VStem: 108 258<300.37 1073> 744 259<-169.38 161 305.704 1073>
LayerCount: 2
Back
SplineSet
283.376 -183.838 m 0
 325.527 -261.986 409.975 -313.344 501.76 -313.344 c 0
 626.688 -313.344 743.424 -225.28 743.424 -32.7676 c 0
 743.424 145.408 l 17
 708.608 83.9678 636.928 -16.3838 491.521 -16.3838 c 0
 235.52 -16.3838 108.544 198.656 108.544 456.704 c 0
 108.544 1073.15 l 1
 260.096 1073.15 l 0
 260.096 460.8 l 0
 260.096 288.768 370.688 120.832 481.28 120.832 c 1
 608.256 120.832 743.424 247.808 743.424 419.84 c 0
 743.424 1073.15 l 9
 894.976 1073.15 l 1
 894.976 425.984 l 1
 894.976 -18.4316 l 2
 894.976 -290.816 712.704 -448.512 509.952 -448.512 c 1
 328.475 -448.512 217.541 -351.877 160.556 -247.556 c 1
 283.376 -183.838 l 0
EndSplineSet
Fore
SplineSet
1003 -29 m 2
 1003 -246 770 -465 555 -465 c 1
 344 -465 198 -348 140 -224 c 1
 344 -112 l 0
 368 -182 440 -233 549 -233 c 0
 658 -233 745 -168 745 -59 c 1
 745 161 l 17
 688 57 565 -29 428 -29 c 0
 236 -29 108 156 108 535 c 1
 108 1073 l 1
 366 1073 l 0
 366 536 l 2
 366 261 466 206 546 206 c 0
 626 206 744 263 744 537 c 2
 744 1073 l 9
 1003 1073 l 1
 1003 29 l 1
 1003 -29 l 2
EndSplineSet
EndChar

StartChar: z
Encoding: 122 122 46
Width: 1005
Flags: W
HStem: 0 240<483 889> 834 239<115 502>
LayerCount: 2
Back
SplineSet
331.776 141.312 m 1
 866.304 141.312 l 1
 866.304 0 l 1
 79.8721 0 l 1
 624.64 931.84 l 2
 100.352 931.84 l 1
 100.352 1073.15 l 1
 876.544 1073.15 l 1
 331.776 141.312 l 1
EndSplineSet
Fore
SplineSet
483 240 m 1
 889 240 l 1
 889 0 l 1
 66 0 l 1
 502 834 l 2
 115 834 l 1
 115 1073 l 1
 921 1073 l 1
 483 240 l 1
EndSplineSet
EndChar

StartChar: multiply
Encoding: 215 215 52
Width: 833
Flags: W
LayerCount: 2
Fore
SplineSet
62 458 m 1
 249 647 l 1
 33 859 l 1
 202 1030 l 1
 417 818 l 1
 618 1023 l 1
 789 854 l 1
 587 649 l 1
 792 448 l 1
 624 277 l 1
 420 479 l 1
 233 289 l 1
 62 458 l 1
EndSplineSet
EndChar

StartChar: Oslash
Encoding: 216 216 53
Width: 1425
Flags: W
HStem: -29 242<638.246 859.779> 1249 240<562.605 782.783>
VStem: 100 281<466.38 1017.15> 1047 282<462.981 1021.6>
LayerCount: 2
Back
SplineSet
533.795 -28.6719 m 5
 247.128 -28.6719 l 5
 901.745 1515.5 l 4
 1169.41 1515.52 l 5
 533.795 -28.6719 l 5
1046.53 753.664 m 0
 1046.53 980.853 972.04 1249.28 714.752 1249.28 c 0
 459.416 1249.28 382.976 980.853 382.976 753.664 c 1
 382.976 506.839 461.042 212.992 714.752 212.992 c 1
 970.412 212.992 1046.53 506.839 1046.53 753.664 c 0
100.352 753.664 m 1
 100.352 1074.34 264.192 1488.9 714.752 1488.9 c 1
 1167.39 1488.9 1329.15 1074.34 1329.15 753.664 c 1
 1329.15 412.53 1165.23 -28.6719 714.752 -28.6719 c 1
 266.349 -28.6719 100.352 412.53 100.352 753.664 c 1
EndSplineSet
Fore
SplineSet
545 -6 m 1
 532 -29 l 1
 248 -29 l 1
 315 135 l 1
 172 279 100 549 100 727 c 1
 100 1096 270 1489 721 1489 c 1
 777 1489 839 1482 881 1466 c 1
 889 1493 l 0
 1161 1493 l 1
 1100 1348 l 1
 1272 1192 1329 952 1329 727 c 1
 1329 463 1190 -29 715 -29 c 1
 657 -29 596 -20 545 -6 c 1
637 223 m 1
 664 219 671 213 713 213 c 1
 979 213 1047 537 1047 727 c 0
 1047 853 1034 956 985 1067 c 1
 637 223 l 1
440 426 m 1
 784 1241 l 1
 764 1243 758 1249 721 1249 c 1
 446 1249 381 961 381 727 c 1
 381 662 403 506 440 426 c 1
EndSplineSet
EndChar

StartChar: Thorn
Encoding: 222 222 57
Width: 1384
Flags: W
HStem: 0 21G<135 403> 287 239<403 665.649> 961 238<403 682.805> 1436 20G<135 403>
VStem: 135 268<0 287 526 961 1199 1456> 805 267<631.153 860.361>
LayerCount: 2
Back
SplineSet
292.454 477.103 m 1
 562.954 477.103 859.341 530.35 859.341 749.731 c 1
 859.341 984.023 511.836 1009.58 292.454 1009.58 c 1
 292.454 477.103 l 1
135.168 1456.13 m 0
 292.454 1456.13 l 1
 292.454 1150.16 l 1
 667.32 1150.16 1016.63 1067.09 1016.63 749.731 c 0
 1016.63 406.814 660.931 336.527 292.454 336.527 c 1
 292.454 0 l 1
 135.168 0 l 1
 135.168 1456.13 l 0
EndSplineSet
Fore
SplineSet
403 526 m 1
 595 526 805 569 805 750 c 1
 805 940 558 961 403 961 c 1
 403 526 l 1
135 1456 m 0
 403 1456 l 1
 403 1199 l 1
 749 1199 1072 1106 1072 750 c 0
 1072 365 743 287 403 287 c 1
 403 0 l 1
 135 0 l 1
 135 1456 l 0
EndSplineSet
EndChar

StartChar: germandbls
Encoding: 223 223 58
Width: 1261
Flags: W
HStem: -29 224<495.688 810.748> 0 21G<62 323> 649 195<535 734.004> 1294 234<474.648 783.335>
VStem: 848 254<942.024 1229.06> 907 251<283.563 522.725>
LayerCount: 2
Back
SplineSet
164.188 1151.75 m 1
 252.784 1347.93 389.775 1478.72 645.018 1478.72 c 1
 893.932 1478.72 1098.42 1328.95 1089.99 1073.71 c 1
 1089.99 879.637 889.713 778.384 769.475 746.742 c 1
 883.385 719.319 1106.86 601.19 1106.86 398.685 c 1
 1106.86 120.238 891.822 -29.5322 600.72 -29.5322 c 1
 535.327 -29.5322 482.591 -10.5479 415.089 23.2041 c 9
 505.795 145.552 l 17
 539.546 132.894 571.188 109.69 600.72 109.69 c 1
 796.897 109.69 959.447 196.178 959.447 398.685 c 1
 959.447 548.454 737.833 679.24 541.655 679.24 c 1
 505.795 679.24 l 2
 493.138 679.24 480.481 679.24 463.605 672.911 c 1
 463.605 824.791 l 1
 478.372 820.572 488.919 820.572 499.466 820.572 c 2
 541.655 820.572 l 1
 712.52 820.572 940.462 917.606 940.462 1073.71 c 1
 940.462 1259.34 826.43 1341.6 645.018 1341.6 c 1
 440.402 1341.6 349.573 1238.24 305.274 1105.35 c 1
 235.663 902.84 248.32 310.088 229.335 0 c 1
 81.9199 0 l 1
 113.562 360.714 88.248 993.546 164.188 1151.75 c 1
EndSplineSet
Fore
SplineSet
159 1260 m 1x78
 246 1427 397 1528 645 1528 c 1
 924 1528 1102 1338 1102 1073 c 1x78
 1102 881 1003 792 933 767 c 1
 1003 753 1158 603 1158 399 c 1
 1158 111 939 -29 618 -29 c 1
 532 -29 456 -20 415 23 c 9
 513 226 l 17
 530 210 548 195 593 195 c 1
 764 195 907 249 907 399 c 1xb4
 907 532 770 649 541 649 c 1
 506 649 l 2
 516 649 507 651 520 694 c 1
 535 844 l 1
 664 844 848 888 848 1073 c 0
 848 1226 780 1294 645 1294 c 1
 497 1294 422 1230 379 1140 c 0
 316 1008 351 159 295 0 c 1
 62 0 l 1
 129 159 60 1074 159 1260 c 1x78
EndSplineSet
EndChar

StartChar: ae
Encoding: 230 230 63
Width: 1764
Flags: W
HStem: -29 220<396.463 616.873 1090.78 1326.49> 0 21G<721 978> 469 182<993 1406> 524 217<401.223 612.855> 868 230<1076.96 1319.96> 897 205<276.062 632.894>
VStem: 90 242<255.849 458.63> 719 274<651 780.385> 721 257<0 35 320.334 466.267>
LayerCount: 2
Back
SplineSet
208 294 m 0xb8
 134 294 110 236 110 173 c 0
 110 110 134 52 208 52 c 0
 270 52 306 108 306 173 c 1
 306 238 270 294 208 294 c 0xb8
347.172 444.129 m 1
 381.085 499.773 413.985 534 484 534 c 0
 614 534 667 416 667 262 c 0
 667 251.234 665.469 240.156 665.469 229 c 1
 377.297 229 l 1xd8
 377.297 182 389 52 484 52 c 0
 530.016 52 542.375 79.3281 563.422 118.484 c 0
 628.344 91.6094 l 0
 594.984 27.0625 559.422 -14 484 -14 c 0
 405.844 -14 380.021 27.0371 346 80 c 1
 320 34 302 -14 208 -14 c 0
 98 -14 36 68 36 173 c 0
 36 278 108 360 208 360 c 0
 270.223 360 289 337 308 309 c 1
 308.915 317.082 305.915 330.206 307.264 337.988 c 1
 307.264 409.284 281.354 466 210 466 c 0
 164 466 142 450 120 428 c 9
 82 478 l 0
 116 506 140 532 210 532 c 0
 273.279 532 313.223 501.687 347.172 444.129 c 1
377.364 295 m 1
 591.344 295 l 1
 582.672 381.516 562.031 468 484 468 c 0
 404 468 379 369 377.364 295 c 1
EndSplineSet
Fore
SplineSet
535 524 m 0x92
 413 524 332 442 332 356 c 0
 332 270 413 191 535 191 c 0
 657 191 727 270 727 356 c 0
 727 442 657 524 535 524 c 0x92
1208 201 m 0
 1267 201 1324 221 1362 267 c 1
 1590 169 l 1
 1504 38 1341 -29 1208 -29 c 0xab
 1125 -29 1047 -6 978 35 c 1
 978 0 l 1
 721 0 l 1
 721 136 l 1x4280
 696 58 594 -29 454 -29 c 0
 252 -29 90 136 90 358 c 0
 90 580 252 741 450 741 c 0
 589 741 694 655 719 577 c 1
 719 578 719 583 719 592 c 0
 719 609 719 637 719 658 c 1
 719 862 572 897 472 897 c 0
 372 897 310 868 256 844 c 1
 153 1008 l 1
 212 1056 365 1102 472 1102 c 0x97
 625 1102 773 1059 868 949 c 1
 954 1043 1071 1098 1199 1098 c 0
 1466 1098 1656 860 1656 537 c 2
 1656 469 l 1
 992 469 l 1x2b
 997 240 1132 201 1208 201 c 0
993 651 m 1
 1406 651 l 1
 1397 763 1326 868 1199 868 c 0
 1073 868 1001 760 993 651 c 1
EndSplineSet
EndChar

StartChar: icircumflex
Encoding: 238 238 70
Width: 546
Flags: W
HStem: 0 21G<139 408> 1053 20G<139 408> 1470 20G<139.343 408.512>
VStem: 139 269<0 1073>
LayerCount: 2
Fore
SplineSet
676 1146 m 1
 405 1146 l 1
 273 1307 l 1
 149 1149 l 0
 -128 1149 l 1
 156 1490 l 1
 392 1490 l 1
 676 1146 l 1
139 1073 m 1
 408 1073 l 1
 408 0 l 1
 139 0 l 1
 139 1073 l 1
EndSplineSet
EndChar

StartChar: idieresis
Encoding: 239 239 71
Width: 548
Flags: W
HStem: 0 21G<139 408> 1053 20G<139 408> 1159 328<-62.0418 158.439 408.958 629.439>
VStem: -116 328<1212.96 1433.44> 139 269<0 1073> 355 328<1212.96 1433.44>
LayerCount: 2
Fore
SplineSet
355 1323 m 0xe4
 355 1414 429 1487 519 1487 c 0
 610 1487 683 1414 683 1323 c 0
 683 1233 610 1159 519 1159 c 0
 429 1159 355 1233 355 1323 c 0xe4
-116 1323 m 0xf0
 -116 1414 -42 1487 48 1487 c 0
 139 1487 212 1414 212 1323 c 0
 212 1233 139 1159 48 1159 c 0
 -42 1159 -116 1233 -116 1323 c 0xf0
139 1073 m 1xe8
 408 1073 l 1
 408 0 l 1
 139 0 l 1
 139 1073 l 1xe8
EndSplineSet
EndChar

StartChar: eth
Encoding: 240 240 72
Width: 1062
Flags: W
HStem: -49 229<419.537 598.498> 723 229<397.585 594.209> 1292 199<177.319 419.738>
VStem: 72 258<283.749 643.284> 692 261<295.29 620.421>
LayerCount: 2
Back
SplineSet
223.232 454.656 m 0
 223.232 223.232 380.928 106.496 481.28 106.496 c 0
 634.88 106.496 765.952 278.528 765.952 454.656 c 1
 765.952 647.168 593.92 790.528 442.368 790.528 c 1
 319.488 790.528 223.232 604.16 223.232 454.656 c 0
673.792 1290.24 m 1
 759.808 1191.94 892.928 983.04 905.216 800.768 c 1
 912.066 700.045 920.203 627.63 917.504 501.76 c 1
 917.504 192.512 727.124 -28.6719 491.521 -28.6719 c 0
 188.416 -28.6719 71.6797 202.752 71.6797 458.752 c 0
 71.6797 716.8 237.568 925.696 452.608 925.696 c 0
 622.592 925.696 673.792 845.824 749.568 778.24 c 1
 749.568 892.928 655.36 1120.26 561.152 1204.22 c 1
 407.552 1060.86 l 1
 309.248 1161.22 l 1
 444.416 1290.24 l 1
 391.168 1308.67 337.92 1314.82 284.672 1314.82 c 0
 245.76 1314.82 206.848 1310.72 169.984 1306.62 c 1
 155.648 1454.08 l 1
 182.272 1456.13 210.944 1456.13 237.568 1456.13 c 0
 350.208 1456.13 460.8 1439.74 565.248 1386.5 c 1
 720.896 1525.76 l 1
 817.152 1417.22 l 1
 673.792 1290.24 l 1
EndSplineSet
Fore
SplineSet
330 467 m 0
 330 276 435 180 502 180 c 0
 605 180 692 322 692 467 c 1
 692 625 577 723 475 723 c 1
 394 723 330 590 330 467 c 0
745 1229 m 1
 822 1139 931 937 942 770 c 1
 950 715 953 666 953 610 c 0
 953 579 952 545 950 506 c 1
 950 182 753 -49 508 -49 c 0
 193 -49 72 198 72 471 c 0
 72 748 251 952 483 952 c 0
 586 952 675 866 721 799 c 1
 721 871 643 1049 578 1110 c 1
 489 1028 l 1
 337 1182 l 1
 421 1255 l 1
 394 1275 373 1291 284 1292 c 0
 282 1292 l 0
 241 1292 204 1288 176 1282 c 1
 156 1475 l 1
 189 1488 258 1490 304 1491 c 0
 309 1491 l 0
 436 1491 541 1436 586 1401 c 1
 705 1512 l 1
 868 1327 l 1
 745 1229 l 1
EndSplineSet
EndChar

StartChar: divide
Encoding: 247 247 78
Width: 1003
Flags: W
HStem: 117 328<400.958 621.439> 524 240<118 890> 845 328<400.958 621.439>
VStem: 347 328<170.958 391.439 898.958 1119.44>
LayerCount: 2
Fore
SplineSet
347 1009 m 0
 347 1100 421 1173 511 1173 c 0
 602 1173 675 1100 675 1009 c 0
 675 919 602 845 511 845 c 0
 421 845 347 919 347 1009 c 0
347 281 m 0
 347 372 421 445 511 445 c 0
 602 445 675 372 675 281 c 0
 675 191 602 117 511 117 c 0
 421 117 347 191 347 281 c 0
118 764 m 1
 890 764 l 1
 890 524 l 1
 118 524 l 1
 118 764 l 1
EndSplineSet
EndChar

StartChar: oslash
Encoding: 248 248 79
Width: 1044
Flags: W
HStem: -29 230<501.66 666.64> 870 230<468.251 631.373>
VStem: 92 260<445.368 731.21> 776 260<341.729 632.27>
LayerCount: 2
Back
SplineSet
53.248 -28.6719 m 29
 798.72 1101.82 l 25
 1060.86 1097.73 l 25
 339.968 -28.6719 l 25
 53.248 -28.6719 l 29
92.1602 536.576 m 0
 92.1602 862.404 288.516 1099.78 565.248 1099.78 c 0
 840.669 1099.78 1036.29 862.404 1036.29 536.576 c 0
 1036.29 212.042 840.669 -28.6719 565.248 -28.6719 c 1
 288.516 -28.6719 92.1602 212.042 92.1602 536.576 c 0
352.256 536.576 m 0
 352.256 375.544 446.976 200.704 565.248 200.704 c 0
 690.08 200.704 776.192 375.544 776.192 536.576 c 0
 776.192 697.87 682.111 870.4 565.248 870.4 c 0
 446.976 870.4 352.256 697.87 352.256 536.576 c 0
EndSplineSet
Fore
SplineSet
764 635 m 1
 500 221 l 1
 516 208 541 201 565 201 c 0
 686 201 776 371 776 532 c 0
 776 556 776 598 764 635 c 1
633 850 m 1
 618 860 600 870 578 870 c 0
 434 870 352 692 352 532 c 0
 352 509 356 461 365 442 c 1
 633 850 l 1
53 -29 m 1
 190 178 l 1
 136 254 92 393 92 532 c 1
 92 860 274 1100 578 1100 c 0
 632 1100 723 1079 766 1051 c 1
 798 1102 l 1
 1061 1102 l 1
 934 899 l 1
 995 811 1036 676 1036 532 c 0
 1036 208 836 -29 569 -29 c 1
 508 -29 420 -14 371 18 c 1
 340 -29 l 1
 53 -29 l 1
EndSplineSet
EndChar

StartChar: thorn
Encoding: 254 254 83
Width: 1093
Flags: W
HStem: 0 21G<119 377> 117 229<471.861 644.421> 1102 229<480.507 645.572> 1434 20G<119 377>
VStem: 119 258<0 258 466.255 976.698 1159 1454> 756 258<495.578 960.307>
LayerCount: 2
Back
SplineSet
270.336 0 m 17
 118.784 0 l 1
 118.784 1454.08 l 1
 270.336 1454.08 l 1
 270.336 1112.06 l 17
 335.872 1206.27 405.504 1284.1 550.912 1284.1 c 0
 802.816 1284.1 923.648 1015.81 923.648 733.184 c 0
 923.648 450.56 835.584 163.84 512 163.84 c 1
 348.16 163.84 270.336 311.296 270.336 311.296 c 0
 270.336 311.296 270.336 121.406 270.336 0 c 17
772.096 729.088 m 0
 772.096 962.561 688.128 1148.93 561.152 1148.93 c 1
 421.888 1148.93 266.24 987.136 266.24 729.088 c 1
 266.24 438.272 409.6 299.008 522.24 299.008 c 0
 671.744 299.008 772.096 454.656 772.096 729.088 c 0
EndSplineSet
Fore
SplineSet
377 0 m 17
 119 0 l 1
 119 1454 l 1
 377 1454 l 1
 377 1159 l 17
 408 1229 500 1331 596 1331 c 0
 864 1331 1014 1043 1014 739 c 0
 1014 430 903 117 570 117 c 1
 468 117 393 227 377 258 c 1
 377 258 377 101 377 0 c 17
756 750 m 0
 756 945 647 1102 567 1102 c 1
 465 1102 369 935 369 751 c 1
 369 496 463 346 557 346 c 0
 651 346 756 492 756 750 c 0
EndSplineSet
EndChar

StartChar: uni201F
Encoding: 8223 8223 86
Width: 770
Flags: W
HStem: 1104 503
VStem: 30 208<1250 1479> 409 208<1252 1481>
LayerCount: 2
Fore
SplineSet
409 1446 m 1
 409 1516 461 1607 576 1607 c 1
 662 1607 735 1524 735 1446 c 1
 735 1345 674 1293 619 1280 c 1
 618 1277 617 1273 617 1269 c 0
 617 1235 652 1163 662 1147 c 1
 588 1104 l 1
 542 1140 409 1282 409 1446 c 1
30 1444 m 1
 30 1514 82 1605 197 1605 c 1
 283 1605 356 1522 356 1444 c 1
 356 1343 295 1291 240 1278 c 1
 239 1275 238 1271 238 1267 c 0
 238 1233 273 1161 283 1145 c 1
 209 1102 l 1
 163 1138 30 1280 30 1444 c 1
EndSplineSet
EndChar

StartChar: Euro
Encoding: 8364 8364 87
Width: 1226
Flags: W
HStem: 164 229<583.064 890.966> 481 166<125 261 543 805> 760 166<131 261 542 811> 1053 229<602.309 873.859>
VStem: 258 256<647 759.806>
LayerCount: 2
Back
SplineSet
259.896 761.856 m 1
 131.072 761.856 l 1
 131.072 897.024 l 1
 283.875 897.024 l 1
 334.093 1068.98 455.209 1196.03 626.688 1196.03 c 0
 786.432 1196.03 847.872 1155.07 942.08 1062.91 c 9
 845.824 966.656 l 2
 788.48 1024 745.472 1060.86 626.688 1060.86 c 1
 542.262 1060.86 478.305 987.761 440.492 897.024 c 1
 710.656 897.024 l 1
 710.656 761.856 l 1
 404.933 761.856 l 1
 402.598 742.933 401.408 724.355 401.408 706.561 c 0
 401.408 685.201 402.559 664.713 404.72 645.12 c 1
 704.512 645.12 l 1
 704.512 509.952 l 1
 439.923 509.952 l 1
 486.666 403.348 566.669 346.112 626.688 346.112 c 0
 712.704 346.112 763.904 362.496 849.92 456.704 c 9
 946.176 360.448 l 1
 878.592 282.624 817.152 210.944 626.688 210.944 c 1
 441.516 210.944 330.388 340.519 283.775 509.952 c 1
 124.928 509.952 l 1
 124.928 645.12 l 1
 260.602 645.12 l 1
 258.894 666.777 258.048 688.671 258.048 710.656 c 0
 258.048 727.88 258.669 744.966 259.896 761.856 c 1
EndSplineSet
Fore
SplineSet
261 760 m 1
 131 760 l 1
 131 926 l 1
 281 926 l 1
 314 1027 371 1112 452 1180 c 0
 533 1248 624 1282 727 1282 c 0
 798 1282 863 1267 922 1236 c 0
 981 1205 1037 1154 1092 1083 c 1
 936 950 l 1
 881 1019 811 1053 727 1053 c 0
 690 1053 652 1040 611 1015 c 0
 570 990 547 960 542 926 c 1
 811 926 l 1
 811 760 l 1
 520 760 l 1
 516 756 514 743 514 722 c 1
 519 647 l 1
 805 647 l 1
 805 481 l 1
 543 481 l 1
 553 456 579 435 621 418 c 0
 663 401 698 393 727 393 c 0
 762 393 787 394 803 396 c 0
 819 398 837 404 858 415 c 0
 879 426 900 443 922 467 c 1
 1096 334 l 1
 1074 307 1054 284 1035 267 c 0
 1016 250 993 232 964 215 c 0
 935 198 901 184 862 176 c 0
 823 168 778 164 727 164 c 0
 616 164 518 194 434 256 c 0
 350 318 298 393 276 481 c 1
 125 481 l 1
 125 647 l 1
 261 647 l 1
 259 676 258 702 258 725 c 0
 258 744 259 756 261 760 c 1
EndSplineSet
EndChar

StartChar: A
Encoding: 65 65 88
Width: 1421
Flags: W
HStem: 0 21G<20 338.12 1058.88 1377> 382 239<526 873> 1436 20G<535.816 861.184>
LayerCount: 2
Back
SplineSet
651.264 1255.42 m 5
 452.608 620.544 l 5
 851.968 620.544 l 5
 651.264 1255.42 l 5
897.024 505.856 m 5
 399.36 505.856 l 4
 227.328 0 l 4
 61.4404 0 l 5
 585.729 1456.13 l 4
 585.729 1456.13 663.184 1456.13 712.704 1456.13 c 21
 1236.99 0 l 5
 1067.01 0 l 5
 897.024 505.856 l 5
EndSplineSet
Fore
SplineSet
700 1124 m 0
 526 621 l 1
 873 621 l 1
 700 1124 l 0
854 1456 m 1
 1377 0 l 1
 1066 0 l 0
 930 382 l 1
 776 382 621 382 467 382 c 1
 331 0 l 0
 20 0 l 1
 543 1456 l 1
 854 1456 l 1
EndSplineSet
EndChar

StartChar: B
Encoding: 66 66 89
Width: 1222
Flags: HMW
LayerCount: 2
Back
SplineSet
276.48 706.561 m 1xf4
 276.48 141.312 l 1
 595.968 141.312 l 1
 888.832 141.312 927.744 299.008 927.744 430.08 c 0
 927.744 563.2 835.584 704.512 595.968 704.512 c 1
 569.344 704.512 309.248 706.561 276.48 706.561 c 1xf4
276.48 1316.86 m 1
 276.48 845.824 l 1
 315.392 845.824 481.28 843.776 514.048 843.776 c 1
 837.632 843.776 847.872 1007.62 847.872 1085.44 c 1xf8
 847.872 1173.5 817.152 1314.82 493.568 1314.82 c 1
 462.848 1314.82 313.344 1316.86 276.48 1316.86 c 1
118.784 1456.13 m 1
 493.568 1456.13 l 1
 933.888 1456.13 1007.62 1241.09 1007.62 1085.44 c 1xf8
 1007.62 921.6 862.208 782.336 753.664 782.336 c 1
 999.424 782.336 1083.39 542.72 1083.39 423.936 c 1xf4
 1083.39 286.72 1040.38 0 595.968 0 c 1
 118.784 0 l 1
 118.784 1456.13 l 1
EndSplineSet
Fore
SplineSet
383 638 m 1
 383 240 l 1
 610 240 l 1
 833 240 891 334 891 439 c 0
 891 544 833 638 610 638 c 1
 383 638 l 1
383 1216 m 1
 383 878 l 1
 551 878 l 1
 752 878 807 966 807 1045 c 1
 807 1124 752 1216 551 1216 c 1
 527 1216 412 1216 383 1216 c 1
115 1456 m 1
 551 1456 l 1
 999 1456 1075 1219 1075 1070 c 1
 1075 916 981 833 866 797 c 1
 1071 747 1159 555 1159 439 c 1
 1159 285 1086 0 640 0 c 1
 115 0 l 1
 115 1456 l 1
EndSplineSet
EndChar

StartChar: C
Encoding: 67 67 90
Width: 1409
Flags: W
HStem: -29 240<561.905 855.093> 1245 240<561.905 852.479>
VStem: 100 283<447.78 1006.98> 1002 294<371.986 483 969 1079.94>
LayerCount: 2
Back
SplineSet
1047 726 m 4
 1047 483 970 211 715 211 c 5
 461 211 383 483 383 726 c 5
 383 973 461 1245 715 1245 c 5
 970 1245 1047 973 1047 726 c 4
100 726 m 5
 100 389 266 -29 715 -29 c 5
 1165 -29 1329 389 1329 726 c 5
 1329 1067 1165 1485 715 1485 c 5
 266 1485 100 1067 100 726 c 5
EndSplineSet
Fore
SplineSet
1002 969 m 0
 975 1095 873 1245 715 1245 c 1
 461 1245 383 973 383 726 c 1
 383 483 461 211 715 211 c 1
 873 211 975 357 1002 483 c 0
 1296 483 l 0
 1267 251 1062 -29 715 -29 c 1
 266 -29 100 389 100 726 c 1
 100 1067 266 1485 715 1485 c 1
 1063 1485 1267 1200 1297 969 c 0
 1002 969 l 0
EndSplineSet
EndChar

StartChar: D
Encoding: 68 68 91
Width: 1273
Flags: W
HStem: 0 240<383 693.249> 1217 239<383 698.73>
VStem: 115 268<240 1217> 913 283<500.701 978.236>
LayerCount: 2
Back
SplineSet
980.992 727.04 m 1
 980.992 1075.2 796.672 1314.82 538.624 1314.82 c 1
 272.384 1314.82 l 1
 272.384 141.312 l 1
 538.624 141.312 l 1
 796.672 141.312 980.992 380.928 980.992 727.04 c 1
1146.88 727.04 m 1
 1146.88 319.488 899.072 0 538.624 0 c 1
 114.688 0 l 1
 114.688 1456.13 l 1
 538.624 1456.13 l 1
 905.216 1456.13 1146.88 1136.64 1146.88 727.04 c 1
EndSplineSet
Fore
SplineSet
913 752 m 1
 913 1020 762 1217 522 1217 c 1
 383 1217 l 1
 383 240 l 1
 522 240 l 1
 762 240 913 442 913 752 c 1
1196 752 m 1
 1196 323 946 0 582 0 c 1
 115 0 l 1
 115 1456 l 1
 582 1456 l 1
 952 1456 1196 1141 1196 752 c 1
EndSplineSet
EndChar

StartChar: E
Encoding: 69 69 92
Width: 1211
Flags: W
HStem: 0 240<383 1097> 626 240<383 1034> 1216 240<383 1097>
VStem: 115 268<240 626 866 1216>
LayerCount: 2
Back
SplineSet
114.688 1456.13 m 0
 1036.29 1456.13 l 1
 1036.29 1314.82 l 0
 272.384 1314.82 l 0
 272.384 817.152 l 1
 993.28 817.152 l 1
 993.28 675.84 l 0
 272.384 675.84 l 0
 272.384 141.312 l 0
 1036.29 141.312 l 0
 1036.29 0 l 0
 114.688 0 l 1
 114.688 1456.13 l 0
EndSplineSet
Fore
SplineSet
115 1456 m 0
 1097 1456 l 1
 1097 1216 l 0
 383 1216 l 0
 383 866 l 1
 1034 866 l 1
 1034 626 l 0
 383 626 l 0
 383 240 l 0
 1097 240 l 0
 1097 0 l 0
 115 0 l 1
 115 1456 l 0
EndSplineSet
EndChar

StartChar: F
Encoding: 70 70 93
Width: 1191
Flags: HMW
LayerCount: 2
Back
SplineSet
114.688 1456.13 m 1
 1036.29 1456.13 l 1
 1036.29 1314.82 l 25
 272.384 1314.82 l 25
 272.384 817.152 l 1
 993.28 817.152 l 1
 993.28 675.84 l 25
 272.384 675.84 l 1
 272.384 0 l 1
 114.688 0 l 1
 114.688 1456.13 l 1
EndSplineSet
Fore
SplineSet
115 1456 m 1
 1097 1456 l 1
 1097 1217 l 25
 383 1217 l 25
 383 866 l 1
 1034 866 l 1
 1034 627 l 25
 383 627 l 1
 383 0 l 1
 115 0 l 1
 115 1456 l 1
EndSplineSet
EndChar

StartChar: G
Encoding: 71 71 94
Width: 1421
Flags: W
HStem: -27 238<571.769 869.976> 567 240<707 1010> 1257 240<572.925 835.203>
VStem: 90 283<486.005 1005.89> 1010 278<374.193 567>
LayerCount: 2
Back
SplineSet
690.176 -28.6719 m 0
 251.904 -28.6719 90.1123 389.12 90.1123 731.136 c 1
 90.1123 1071.1 251.904 1495.04 692.224 1495.04 c 0
 915.456 1495.04 1036.29 1400.83 1126.4 1259.52 c 9
 999.424 1191.94 l 2
 937.984 1275.9 811.008 1353.73 692.224 1353.73 c 1
 393.216 1353.73 256 1003.52 256 731.136 c 1
 256 456.704 393.216 110.592 690.176 110.592 c 0
 1003.52 110.592 1067.01 430.08 1067.01 616.448 c 1
 681.984 616.448 l 1
 681.984 757.76 l 1
 1230.85 757.76 l 1
 1230.85 671.744 l 1
 1230.85 356.352 1097.73 -28.6719 690.176 -28.6719 c 0
EndSplineSet
Fore
SplineSet
713 -27 m 0
 258 -27 90 397 90 762 c 1
 90 1100 258 1497 715 1497 c 0
 918 1497 1102 1386 1184 1200 c 9
 926 1114 l 17
 905 1188 774 1257 715 1257 c 1
 480 1257 373 989 373 762 c 1
 373 508 480 211 713 211 c 0
 960 211 1010 428 1010 567 c 1
 707 567 l 1
 707 807 l 1
 1288 807 l 1
 1288 661 l 1
 1288 341 1146 -27 713 -27 c 0
EndSplineSet
EndChar

StartChar: H
Encoding: 72 72 95
Width: 1253
Flags: W
HStem: 0 21G<115 383 868 1138> 624 240<383 868> 1436 20G<115 383 868 1138>
VStem: 115 268<0 624 864 1456> 868 270<0 624 864 1456>
LayerCount: 2
Back
SplineSet
114.688 1456.13 m 0
 272.384 1456.13 l 1
 272.384 815.104 l 1
 933.888 815.104 l 1
 933.888 1456.13 l 1
 1091.58 1456.13 l 1
 1091.58 0 l 1
 933.888 0 l 1
 933.888 673.792 l 0
 272.384 673.792 l 1
 272.384 0 l 1
 114.688 0 l 1
 114.688 1456.13 l 0
EndSplineSet
Fore
SplineSet
115 1456 m 0
 383 1456 l 1
 383 864 l 1
 868 864 l 1
 868 1456 l 1
 1138 1456 l 1
 1138 0 l 1
 868 0 l 1
 868 624 l 0
 383 624 l 1
 383 0 l 1
 115 0 l 1
 115 1456 l 0
EndSplineSet
EndChar

StartChar: I
Encoding: 73 73 96
Width: 555
Flags: W
HStem: 0 21G<143 411> 1436 20G<143 411>
VStem: 143 268<0 1456>
LayerCount: 2
Back
SplineSet
143.36 0 m 1
 143.36 1456.13 l 1
 301.056 1456.13 l 1
 301.056 0 l 1
 143.36 0 l 1
EndSplineSet
Fore
SplineSet
143 0 m 1
 143 1456 l 1
 411 1456 l 1
 411 0 l 1
 143 0 l 1
EndSplineSet
EndChar

StartChar: J
Encoding: 74 74 97
Width: 1243
Flags: W
HStem: -35 240<477.801 748.315> 1436 20G<860 1128>
VStem: 102 268<340.891 586> 860 268<349.627 1456>
LayerCount: 2
Back
SplineSet
102.4 534.528 m 0
 243.712 534.528 l 1
 243.712 337.92 364.544 129.024 555.008 129.024 c 1
 747.521 129.024 860.16 333.824 860.16 534.528 c 2
 860.16 1456.13 l 1
 1017.86 1456.13 l 1
 1017.86 534.528 l 2
 1017.86 208.896 829.44 -20.4805 555.008 -20.4805 c 1
 282.624 -20.4805 102.4 221.184 102.4 534.528 c 0
EndSplineSet
Fore
SplineSet
102 586 m 0
 370 586 l 1
 370 408 410 205 616 205 c 1
 809 205 860 404 860 586 c 2
 860 1456 l 1
 1128 1456 l 1
 1128 586 l 2
 1128 222 956 -35 616 -35 c 1
 258 -35 102 235 102 586 c 0
EndSplineSet
EndChar

StartChar: K
Encoding: 75 75 98
Width: 1333
Flags: W
HStem: 0 21G<115 383 939.541 1290> 1436 20G<115 383 908.568 1261>
VStem: 115 268<0 496 833 1456>
LayerCount: 2
Back
SplineSet
114.688 1456.13 m 0
 272.384 1456.13 l 1
 272.384 747.52 l 1
 980.992 1456.13 l 1
 1167.36 1456.13 l 1
 487.424 753.664 l 1
 1200.13 0 l 1
 1005.57 0 l 1
 376.832 657.408 l 1
 272.384 550.912 l 1
 272.384 0 l 1
 114.688 0 l 1
 114.688 1456.13 l 0
EndSplineSet
Fore
SplineSet
115 1456 m 0
 383 1456 l 1
 383 833 l 1
 926 1456 l 1
 1261 1456 l 1
 705 808 l 1
 1290 0 l 1
 954 0 l 1
 500 628 l 1
 383 496 l 1
 383 0 l 1
 115 0 l 1
 115 1456 l 0
EndSplineSet
EndChar

StartChar: L
Encoding: 76 76 99
Width: 1170
Flags: W
HStem: 0 240<383 1099> 1436 20G<115 383>
VStem: 115 268<240 1456>
LayerCount: 2
Back
SplineSet
114.688 1456.13 m 1
 272.384 1456.13 l 1
 272.384 141.312 l 1
 1038.34 141.312 l 1
 1038.34 0 l 1
 114.688 0 l 1
 114.688 1456.13 l 1
EndSplineSet
Fore
SplineSet
115 1456 m 1
 383 1456 l 1
 383 240 l 1
 1099 240 l 1
 1099 0 l 1
 115 0 l 1
 115 1456 l 1
EndSplineSet
EndChar

StartChar: M
Encoding: 77 77 100
Width: 1655
Flags: W
HStem: 0 21G<115 383 683.617 966.486 1272 1540> 1436 20G<115 481.783 1174.1 1540>
VStem: 115 268<0 962> 1272 268<0 962>
LayerCount: 2
Back
SplineSet
65.5361 0 m 1
 65.5361 1456.13 l 2
 280.576 1456.13 l 1
 739.328 208.896 l 2
 1200.13 1456.13 l 1
 1406.98 1456.13 l 1
 1406.98 0 l 1
 1253.38 0 l 25
 1253.38 1204.22 l 1
 825.344 16.3838 l 0
 647.168 16.3838 l 1
 219.136 1204.22 l 0
 219.136 0 l 1
 65.5361 0 l 1
EndSplineSet
Fore
SplineSet
115 0 m 1
 115 1456 l 2
 475 1456 l 1
 825 424 l 2
 1181 1456 l 1
 1540 1456 l 1
 1540 0 l 1
 1272 0 l 25
 1272 962 l 1
 960 0 l 0
 690 0 l 1
 383 962 l 0
 383 0 l 1
 115 0 l 1
EndSplineSet
EndChar

StartChar: N
Encoding: 78 78 101
Width: 1331
Flags: W
HStem: 0 21G<115 383 940.304 1216> 1436 20G<115 387.191 948 1216>
VStem: 115 268<0 973> 948 268<516 1456>
LayerCount: 2
Back
SplineSet
118.784 0 m 1
 118.784 1456.13 l 2
 272.384 1456.13 l 1
 1011.71 294.912 l 25
 1011.71 1456.13 l 1
 1169.41 1456.13 l 1
 1169.41 0 l 0
 1024 0 l 1
 276.48 1189.89 l 0
 276.48 0 l 1
 118.784 0 l 1
EndSplineSet
Fore
SplineSet
115 0 m 1
 115 1456 l 2
 375 1456 l 1
 948 516 l 25
 948 1456 l 1
 1216 1456 l 1
 1216 0 l 0
 952 0 l 1
 383 973 l 0
 383 0 l 1
 115 0 l 1
EndSplineSet
EndChar

StartChar: O
Encoding: 79 79 102
Width: 1409
Flags: W
HStem: -29 240<561.905 868.423> 1245 240<561.905 868.423>
VStem: 100 283<447.78 1006.98> 1047 282<442.663 1012.13>
LayerCount: 2
Back
SplineSet
1103.87 724.992 m 0
 1103.87 995.328 1007.62 1353.73 684.032 1353.73 c 0
 362.496 1353.73 266.24 995.328 266.24 724.992 c 1
 266.24 456.704 364.544 110.592 684.032 110.592 c 1
 1005.57 110.592 1103.87 456.704 1103.87 724.992 c 0
100.352 724.992 m 1
 100.352 1046.53 256 1495.04 684.032 1495.04 c 1
 1114.11 1495.04 1269.76 1046.53 1269.76 724.992 c 1
 1269.76 405.504 1112.06 -30.7197 684.032 -30.7197 c 1
 258.048 -30.7197 100.352 405.504 100.352 724.992 c 1
EndSplineSet
Fore
SplineSet
1047 726 m 0
 1047 973 970 1245 715 1245 c 1
 461 1245 383 973 383 726 c 1
 383 483 461 211 715 211 c 1
 970 211 1047 483 1047 726 c 0
100 726 m 1
 100 1067 266 1485 715 1485 c 1
 1165 1485 1329 1067 1329 726 c 1
 1329 389 1165 -29 715 -29 c 1
 266 -29 100 389 100 726 c 1
EndSplineSet
EndChar

StartChar: P
Encoding: 80 80 103
Width: 1194
Flags: W
HStem: 0 21G<115 383> 584 240<383 748.604> 1216 240<383 748.604>
VStem: 115 268<0 584 824 1216> 829 274<893.307 1146.82>
LayerCount: 2
Back
SplineSet
278.528 774.145 m 1
 423.936 774.145 l 1
 751.616 774.145 870.4 874.496 870.4 1046.53 c 1
 870.4 1216.51 751.616 1314.82 423.936 1314.82 c 1
 278.528 1314.82 l 1
 278.528 774.145 l 1
120.832 1456.13 m 0
 278.528 1456.13 l 1
 423.936 1456.13 l 1
 798.72 1456.13 1032.19 1302.53 1032.19 1046.53 c 0
 1032.19 794.624 798.72 630.784 423.936 630.784 c 1
 278.528 630.784 l 1
 278.528 0 l 1
 120.832 0 l 1
 120.832 1456.13 l 0
EndSplineSet
Fore
SplineSet
383 824 m 1
 454 824 l 0
 692 824 829 845 829 1020 c 0
 829 1195 692 1216 454 1216 c 0
 383 1216 l 1
 383 824 l 1
115 1456 m 0
 383 1456 l 2
 663 1456 1103 1450 1103 1020 c 0
 1103 591 663 584 383 584 c 1
 383 0 l 1
 115 0 l 1
 115 1456 l 0
EndSplineSet
EndChar

StartChar: Q
Encoding: 81 81 104
Width: 1437
Flags: W
HStem: -35 242<574.659 844.699> -29 21G<1161.6 1201.79> 1255 240<559.655 867.543>
VStem: 98 287<458.702 1028.5> 1047 278<454.271 1023.85>
LayerCount: 2
Back
SplineSet
1046.53 753.664 m 4
 1046.53 980.853 972.04 1282.05 714.752 1282.05 c 4
 459.416 1282.05 382.976 980.853 382.976 753.664 c 5
 382.976 506.839 461.042 188.416 714.752 188.416 c 5
 970.412 188.416 1046.53 506.839 1046.53 753.664 c 4
100.352 753.664 m 5
 100.352 1074.34 264.192 1521.66 714.752 1521.66 c 5
 1167.39 1521.66 1329.15 1074.34 1329.15 753.664 c 5
 1329.15 412.53 1165.23 -53.248 714.752 -53.248 c 5
 266.349 -53.248 100.352 412.53 100.352 753.664 c 5
EndSplineSet
Fore
SplineSet
1047 754 m 1xb8
 1047 1020 946 1255 719 1255 c 1
 467 1255 385 999 385 754 c 1
 385 528 455 207 713 207 c 1
 736 207 811 211 846 244 c 1
 686 362 l 1
 833 559 l 1
 991 428 l 1
 1024 489 1047 657 1047 754 c 1xb8
98 754 m 1
 98 1052 254 1495 719 1495 c 1
 1151 1495 1325 1106 1325 754 c 1
 1325 520 1262 350 1200 260 c 1
 1336 161 l 1
 1186 -29 l 1x78
 1053 80 l 1
 979 14 856 -35 709 -35 c 1
 291 -35 98 385 98 754 c 1
EndSplineSet
EndChar

StartChar: R
Encoding: 82 82 105
Width: 1224
Flags: W
HStem: -1 21G<115 383 841.057 1158> 580 244<383 532.384> 1216 239<383 748.604>
VStem: 115 268<-1 581 824 1216> 829 274<894.416 1145.6>
LayerCount: 2
Back
SplineSet
383 824 m 5
 663 824 829 828 829 1020 c 4
 829 1212 663 1216 383 1216 c 5
 383 824 l 5
115 1456 m 4
 383 1456 l 6
 663 1456 1102.68 1449.5 1102.68 1020 c 4
 1102.68 591 663 584 383 584 c 5
 383 0 l 5
 115 0 l 5
 115 1456 l 4
EndSplineSet
Fore
SplineSet
383 824 m 1
 454 824 l 0
 692 824 829 845 829 1019 c 0
 829 1193 692 1216 454 1216 c 0
 383 1216 l 1
 383 824 l 1
852 -1 m 1
 533 582 l 1
 520 581 498 580 474 580 c 0
 442 580 406 581 383 581 c 1
 383 -1 l 1
 115 -1 l 1
 115 1455 l 0
 383 1455 l 2
 663 1455 1103 1448 1103 1019 c 0
 1103 818 1003 680 798 626 c 1
 1158 -1 l 1
 852 -1 l 1
EndSplineSet
EndChar

StartChar: S
Encoding: 83 83 106
Width: 1202
Flags: W
HStem: -29 242<472.144 776.304> 1251 241<460.444 763.964>
VStem: 135 274<999.001 1198.88> 852 274<283.06 525.087>
LayerCount: 2
Back
SplineSet
88.0645 290.816 m 5
 219.136 370.688 l 5
 309.248 231.424 405.504 110.592 600.064 110.592 c 5
 782.336 110.592 923.648 239.616 923.648 397.312 c 5
 923.648 548.864 776.192 649.216 532.48 712.704 c 4
 354.304 759.808 114.688 847.872 114.688 1095.68 c 5
 114.688 1347.58 342.016 1495.04 575.488 1495.04 c 5
 819.2 1495.04 933.888 1388.54 1028.1 1249.28 c 5
 907.264 1169.41 l 5
 847.872 1271.81 731.136 1353.73 571.392 1353.73 c 5
 417.792 1353.73 276.48 1267.71 276.48 1095.68 c 5
 276.48 913.408 509.952 868.352 643.072 823.296 c 4
 845.824 755.712 1085.44 665.6 1085.44 397.312 c 5
 1085.44 147.456 854.016 -30.7197 600.064 -30.7197 c 5
 380.928 -30.7197 221.184 81.9199 88.0645 290.816 c 5
EndSplineSet
Fore
SplineSet
83 404 m 1
 351 447 l 1
 381 328 462 213 620 213 c 1
 773 213 852 294 852 404 c 0
 852 596 624 622 406 726 c 0
 271 791 135 876 135 1090 c 1
 135 1362 373 1492 620 1492 c 1
 850 1492 1032 1356 1089 1186 c 1
 816 1135 l 1
 786 1206 730 1251 620 1251 c 1
 510 1251 409 1214 409 1090 c 0
 409 950 674 894 814 828 c 0
 989 746 1126 640 1126 404 c 1
 1126 134 900 -29 620 -29 c 1
 343 -29 122 144 83 404 c 1
EndSplineSet
EndChar

StartChar: T
Encoding: 84 84 107
Width: 1353
Flags: W
HStem: 0 21G<555 823> 1216 240<78 555 823 1280>
VStem: 555 268<0 1216>
LayerCount: 2
Back
SplineSet
77.8242 1456.13 m 0
 1169.41 1456.13 l 1
 1169.41 1314.82 l 0
 712.704 1314.82 l 1
 712.704 0 l 1
 555.008 0 l 1
 555.008 1314.82 l 1
 77.8242 1314.82 l 1
 77.8242 1456.13 l 0
EndSplineSet
Fore
SplineSet
78 1456 m 0
 1280 1456 l 1
 1280 1216 l 0
 823 1216 l 1
 823 0 l 1
 555 0 l 1
 555 1216 l 1
 78 1216 l 1
 78 1456 l 0
EndSplineSet
EndChar

StartChar: U
Encoding: 85 85 108
Width: 1275
Flags: W
HStem: -35 240<503.452 771.045> 1436 20G<115 383 892 1160>
VStem: 115 268<349.627 1456> 892 268<349.627 1456>
LayerCount: 2
Back
SplineSet
625 -35 m 5
 966 -35 1138 222 1138 586 c 6
 1138 1456 l 5
 870 1456 l 5
 870 586 l 6
 870 404 819 205 625 205 c 5
 432 205 381 404 381 586 c 6
 381 1456 l 5
 113 1456 l 5
 113 586 l 6
 113 222 285 -35 625 -35 c 5
EndSplineSet
Fore
SplineSet
637 -35 m 1
 297 -35 115 222 115 586 c 2
 115 1456 l 1
 383 1456 l 1
 383 586 l 2
 383 404 444 205 637 205 c 1
 831 205 892 404 892 586 c 2
 892 1456 l 1
 1160 1456 l 1
 1160 586 l 2
 1160 222 978 -35 637 -35 c 1
EndSplineSet
EndChar

StartChar: V
Encoding: 86 86 109
Width: 1302
Flags: W
HStem: 0 21G<491.135 819.728> 1436 20G<70 364.646 947.278 1231>
LayerCount: 2
Back
SplineSet
1011.71 1456.13 m 1
 1175.55 1456.13 l 1
 735.232 0 l 1
 516.096 0 l 1
 69.6318 1456.13 l 1
 239.616 1456.13 l 1
 624.64 167.936 l 1
 1011.71 1456.13 l 1
EndSplineSet
Fore
SplineSet
953 1456 m 1
 1231 1456 l 1
 814 0 l 1
 497 0 l 1
 70 1456 l 1
 359 1456 l 1
 654 411 l 1
 953 1456 l 1
EndSplineSet
EndChar

StartChar: W
Encoding: 87 87 110
Width: 1708
Flags: W
HStem: 0 21G<308.731 635.651 984.349 1311.27> 1436 20G<74 347.651 1272.37 1546>
LayerCount: 2
Back
SplineSet
73.7275 1456.13 m 1
 227.328 1456.13 l 1
 417.792 223.232 l 0
 702.464 1419.26 l 1
 876.544 1419.26 l 0
 1161.22 223.232 l 1
 1351.68 1456.13 l 25
 1505.28 1456.13 l 1
 1275.9 0 l 1
 1056.77 0 l 1
 790.528 1187.84 l 2
 524.288 0 l 1
 301.056 0 l 2
 73.7275 1456.13 l 1
EndSplineSet
Fore
SplineSet
74 1456 m 1
 345 1456 l 1
 472 498 l 0
 653 1429 l 1
 967 1429 l 0
 1148 492 l 1
 1275 1456 l 25
 1546 1456 l 1
 1308 0 l 1
 988 0 l 1
 810 975 l 2
 632 0 l 1
 312 0 l 2
 74 1456 l 1
EndSplineSet
EndChar

StartChar: X
Encoding: 88 88 111
Width: 1326
Flags: W
HStem: 0 21G<64 414.792 911.208 1262> 1435 20G<67 417.779 908.221 1259> 1435 20G<67 417.779 908.221 1259>
LayerCount: 2
Back
SplineSet
922 0 m 25
 67 1455 l 25
1262 0 m 25
 407 1455 l 25
404 0 m 25
 1259 1455 l 25
64 0 m 25
 919 1455 l 25
EndSplineSet
Fore
SplineSet
67 1455 m 0xc0
 407 1455 l 1
 663 980 l 1
 919 1455 l 1
 1259 1455 l 1
 823 730 l 1
 1262 0 l 1
 922 0 l 1
 663 480 l 1
 404 0 l 1
 64 0 l 1
 503 730 l 1
 67 1455 l 0xc0
EndSplineSet
EndChar

StartChar: Y
Encoding: 89 89 112
Width: 1326
Flags: W
HStem: 0 21G<530 798> 1435 20G<67 417.779 908.221 1259> 1435 20G<67 417.779 908.221 1259>
VStem: 530 268<0 690>
LayerCount: 2
Back
SplineSet
65.5361 1456.13 m 1
 233.472 1456.13 l 1
 589.824 856.064 l 1
 946.176 1456.13 l 1
 1114.11 1456.13 l 1
 667.648 747.52 l 1
 667.648 0 l 1
 509.952 0 l 1
 509.952 747.52 l 1
 65.5361 1456.13 l 1
EndSplineSet
Fore
SplineSet
67 1455 m 0xd0
 407 1455 l 1
 663 980 l 1
 919 1455 l 1
 1259 1455 l 1
 798 690 l 1
 798 0 l 1
 530 0 l 1
 530 690 l 1
 67 1455 l 0xd0
EndSplineSet
EndChar

StartChar: Z
Encoding: 90 90 113
Width: 1378
Flags: W
HStem: 0 240<528 1300> 1216 240<139 852>
LayerCount: 2
Back
SplineSet
118.784 1456.13 m 1
 1222.66 1456.13 l 1
 358.4 141.312 l 1
 1234.94 141.312 l 1
 1234.94 0 l 1
 90.1123 0 l 1
 962.56 1314.82 l 1
 118.784 1314.82 l 1
 118.784 1456.13 l 1
EndSplineSet
Fore
SplineSet
139 1456 m 1
 1306 1456 l 1
 528 240 l 1
 1300 240 l 1
 1300 0 l 1
 72 0 l 1
 852 1216 l 1
 139 1216 l 1
 139 1456 l 1
EndSplineSet
EndChar

StartChar: bracketleft
Encoding: 91 91 114
Width: 743
Flags: W
HStem: -98 237<375 623> 1292 240<375 623>
VStem: 121 502<-98 139 1292 1532> 121 254<139 1292>
LayerCount: 2
Back
SplineSet
516.096 -96.2559 m 0
 120.832 -96.2559 l 1
 120.832 1529.86 l 0
 516.096 1529.86 l 1
 516.096 1388.54 l 1
 270.336 1388.54 l 1
 270.336 43.0078 l 1
 516.096 43.0078 l 1
 516.096 -96.2559 l 0
EndSplineSet
Fore
SplineSet
623 -98 m 0xe0
 121 -98 l 1
 121 1532 l 0
 623 1532 l 1
 623 1292 l 1xe0
 375 1292 l 1
 375 139 l 1xd0
 623 139 l 1
 623 -98 l 0xe0
EndSplineSet
EndChar

StartChar: backslash
Encoding: 92 92 115
Width: 856
Flags: W
HStem: 0 21G<576.912 895>
LayerCount: 2
Back
SplineSet
679.936 0 m 1
 -38.9121 1544.19 l 1
 133.12 1544.19 l 0
 849.92 0 l 1
 679.936 0 l 1
EndSplineSet
Fore
SplineSet
585 0 m 1
 -39 1543 l 1
 253 1543 l 0
 895 0 l 1
 585 0 l 1
EndSplineSet
EndChar

StartChar: bracketright
Encoding: 93 93 116
Width: 743
Flags: W
HStem: -98 239<119 365> 1292 240<119 365>
VStem: 119 500<-98 141 1292 1532> 365 254<141 1292>
LayerCount: 2
Back
SplineSet
118.784 -96.2559 m 0
 118.784 45.0557 l 1
 364.544 45.0557 l 1
 364.544 1388.54 l 1
 118.784 1388.54 l 1
 118.784 1529.86 l 1
 514.048 1529.86 l 0
 514.048 -96.2559 l 1
 118.784 -96.2559 l 0
EndSplineSet
Fore
SplineSet
119 -98 m 0xe0
 119 141 l 1xe0
 365 141 l 1
 365 1292 l 1xd0
 119 1292 l 1
 119 1532 l 1
 619 1532 l 0
 619 -98 l 1
 119 -98 l 0xe0
EndSplineSet
EndChar

StartChar: asciicircum
Encoding: 94 94 117
Width: 1081
Flags: W
HStem: 1148 344
LayerCount: 2
Back
SplineSet
811.008 1148.93 m 1
 622.592 1148.93 l 1
 466.944 1361.92 l 1
 309.248 1150.98 l 0
 122.88 1150.98 l 1
 399.36 1492.99 l 1
 530.432 1492.99 l 1
 811.008 1148.93 l 1
EndSplineSet
Fore
SplineSet
926 1148 m 1
 655 1148 l 1
 523 1309 l 1
 399 1151 l 0
 122 1151 l 1
 406 1492 l 1
 642 1492 l 1
 926 1148 l 1
EndSplineSet
EndChar

StartChar: underscore
Encoding: 95 95 118
Width: 1241
Flags: W
HStem: -281 240<78 1167>
LayerCount: 2
Back
SplineSet
77.8242 -231.424 m 1
 77.8242 -90.1123 l 1
 1167.36 -90.1123 l 1
 1167.36 -231.424 l 1
 77.8242 -231.424 l 1
EndSplineSet
Fore
SplineSet
78 -281 m 1
 78 -41 l 1
 1167 -41 l 1
 1167 -281 l 1
 78 -281 l 1
EndSplineSet
EndChar

StartChar: grave
Encoding: 96 96 119
Width: 536
Flags: W
HStem: 1528 417
VStem: 77 446
LayerCount: 2
Back
SplineSet
432.128 1300.48 m 1
 270.336 1300.48 l 2
 96.2559 1554.43 l 2
 253.952 1554.43 l 1
 432.128 1300.48 l 1
EndSplineSet
Fore
SplineSet
406 1533 m 2
 99 1746 l 2
 90 1753 83 1763 80 1776 c 0
 78 1784 77 1793 77 1802 c 0
 77 1813 78 1824 81 1836 c 0
 86 1858 95 1875 106 1888 c 1
 115 1899 127 1911 141 1921 c 0
 155 1931 170 1938 184 1942 c 0
 191 1944 197 1945 203 1945 c 0
 214 1945 223 1942 231 1935 c 1
 514 1688 l 2
 518 1685 520 1680 521 1675 c 0
 522 1670 523 1663 523 1657 c 0
 523 1648 522 1638 518 1626 c 0
 512 1606 505 1591 497 1581 c 256
 489 1571 479 1561 466 1550 c 0
 453 1539 441 1533 430 1530 c 0
 426 1529 423 1528 420 1528 c 0
 415 1528 410 1530 406 1533 c 2
EndSplineSet
EndChar

StartChar: a
Encoding: 97 97 120
Width: 1080
Flags: W
HStem: -29 220<396.463 616.873> 0 21G<721 978> 524 217<401.223 613.059> 897 205<276.062 630.267>
VStem: 90 242<255.849 458.63> 721 257<0 136 241.25 472.25 576 803.774>
LayerCount: 2
Back
SplineSet
720 -477 m 4
 720 -695 849 -785 1086 -785 c 5
 1085 -547 l 5
 994 -547 978 -529 978 -473 c 4
 978 738 l 5
 720 738 l 5
 720 581 l 21
 651 690 529 764 413 764 c 4
 149 764 34 500 34 196 c 4
 34 -108 151 -365 413 -364 c 5
 529 -364 651 -288 720 -179 c 5
 720 -477 l 4
294 201 m 4
 294 446 409 530 506 530 c 5
 603 530 729 454 728 201 c 5
 728 -54 603 -130 506 -130 c 4
 412 -130 294 -23 294 201 c 4
EndSplineSet
Fore
SplineSet
535 524 m 1xbc
 413 524 332 442 332 356 c 1
 332 270 413 191 535 191 c 1
 657 191 727 270 727 356 c 1
 727 442 657 524 535 524 c 1xbc
450 741 m 1
 590 741 694 654 719 576 c 1
 719 658 l 0
 719 862 572 897 472 897 c 1
 372 897 310 868 256 844 c 9
 153 1008 l 17
 212 1056 365 1102 472 1102 c 1
 734 1102 978 976 978 609 c 10
 978 305 l 2
 978 0 l 1
 721 0 l 1x7c
 721 136 l 1
 696 58 594 -29 454 -29 c 1
 252 -29 90 136 90 358 c 1
 90 580 252 741 450 741 c 1
EndSplineSet
EndChar

StartChar: b
Encoding: 98 98 121
Width: 1122
Flags: W
HStem: -28 234<526.516 695.614> 0 21G<119 377> 866 234<523.961 700.625> 1434 20G<119 377>
VStem: 119 258<0 157 307.939 764.48 917 1454> 803 260<331.335 751.999>
LayerCount: 2
Back
SplineSet
377 0 m 9
 119 0 l 1
 119 1454 l 1
 377 1454 l 1
 377 912 l 17
 434 1016 557 1102 694 1102 c 0
 886 1102 1013.97 916.986 1014 538 c 2
 1014 0 l 1
 756 0 l 0
 756 537 l 2
 756 812 656 866.89 576 866.89 c 0
 496 866.89 377 810 377 536 c 2
 377 0 l 9
270.336 0 m 17
 118.784 0 l 1
 118.784 1454.08 l 1
 270.336 1454.08 l 1
 270.336 899.072 l 17
 331.776 995.328 405.504 1091.58 550.912 1091.58 c 0
 802.816 1091.58 923.648 823.296 923.648 540.672 c 0
 923.648 258.048 835.584 -28.6719 512 -28.6719 c 1
 348.16 -28.6719 270.336 139.264 270.336 139.264 c 0
 270.336 0 l 17
770.048 536.576 m 0
 770.048 770.048 688.128 956.416 561.152 956.416 c 1
 421.888 956.416 266.24 794.624 266.24 536.576 c 1
 266.24 245.76 409.6 106.496 522.24 106.496 c 0
 671.744 106.496 770.048 262.144 770.048 536.576 c 0
EndSplineSet
Fore
SplineSet
377 0 m 17x7c
 119 0 l 1x7c
 119 1454 l 1
 377 1454 l 1
 377 917 l 17
 446 1026 568 1100 684 1100 c 0
 948 1100 1063 836 1063 532 c 0
 1063 228 946 -28 684 -28 c 1xbc
 568 -28 446 48 377 157 c 1
 377 0 l 17x7c
803 537 m 0
 803 782 688 866 591 866 c 1
 494 866 369 790 369 537 c 1
 369 282 494 206 591 206 c 0xbc
 685 206 803 313 803 537 c 0
EndSplineSet
EndChar

StartChar: c
Encoding: 99 99 122
Width: 1047
Flags: W
HStem: -29 232<475.01 720.349> 870 230<468.625 709.3>
VStem: 86 262<341.031 728.497>
LayerCount: 2
Back
SplineSet
1362 0 m 21
 348 537 l 5
 1362 1074 l 13
1024 737 m 9
 776 737 l 17
 741 807 687 870 586 870 c 1
 456 870 348 731 348 532 c 4
 348 334 463 203 606 203 c 1
 713 203 733 262 762 315 c 9
 1024 315 l 1
 991 184 836 -29 606 -29 c 1
 285 -29 86 194 86 532 c 0
 86 871 297 1100 586 1100 c 0
 762 1100 983 975 1024 737 c 9
835.584 960.512 m 9
 735.232 860.16 l 2
 677.888 917.504 618.496 958.464 499.712 958.464 c 1
 368.64 958.464 239.616 778.24 239.616 536.576 c 0
 239.616 294.912 389.12 104.448 520.192 104.448 c 0
 647.168 104.448 694.272 157.696 741.376 217.088 c 9
 839.68 118.784 l 1
 786.432 61.4404 716.8 -28.6719 520.192 -30.7197 c 1
 262.144 -30.7197 86.0156 208.896 86.0156 536.576 c 0
 86.0156 864.256 270.336 1093.63 499.712 1093.63 c 0
 659.456 1093.63 741.376 1052.67 835.584 960.512 c 9
EndSplineSet
Fore
SplineSet
766 756 m 1
 731 817 678 870 586 870 c 0
 456 870 348 731 348 532 c 0
 348 334 463 203 606 203 c 1
 713 203 733 262 762 315 c 9
 976 204 l 0
 907 90 778 -29 606 -29 c 1
 285 -29 86 194 86 532 c 0
 86 871 297 1100 586 1100 c 0
 739 1100 901 1010 979 868 c 1
 766 756 l 1
EndSplineSet
EndChar

StartChar: d
Encoding: 100 100 123
Width: 1122
Flags: W
HStem: -28 234<441.386 610.484> 0 21G<760 1018> 866 234<436.375 613.039> 1434 20G<760 1018>
VStem: 74 260<331.335 751.999> 760 258<0 157 307.939 764.48 917 1454>
LayerCount: 2
Back
SplineSet
741.376 0 m 9
 741.376 139.264 l 0
 741.376 139.264 663.552 -28.6719 499.712 -28.6719 c 1
 176.128 -28.6719 88.0645 258.048 88.0645 540.672 c 0
 88.0645 823.296 208.896 1091.58 460.8 1091.58 c 0
 606.208 1091.58 684.032 987.136 741.376 899.072 c 9
 741.376 1454.08 l 1
 892.928 1454.08 l 1
 892.928 0 l 1
 741.376 0 l 9
241.664 536.576 m 0
 241.664 262.144 339.968 106.496 489.472 106.496 c 0
 602.112 106.496 745.472 245.76 745.472 536.576 c 1
 745.472 794.624 589.824 956.416 450.56 956.416 c 1
 323.584 956.416 241.664 770.048 241.664 536.576 c 0
EndSplineSet
Fore
SplineSet
760 0 m 9x7c
 760 157 l 1
 691 48 569 -28 453 -28 c 1xbc
 191 -28 74 228 74 532 c 0
 74 836 189 1100 453 1100 c 0
 569 1100 691 1026 760 917 c 9
 760 1454 l 1
 1018 1454 l 1
 1018 0 l 1
 760 0 l 9x7c
334 537 m 0
 334 313 452 206 546 206 c 0
 643 206 768 282 768 537 c 1
 768 790 643 866 546 866 c 1
 449 866 334 782 334 537 c 0
EndSplineSet
EndChar

StartChar: e
Encoding: 101 101 124
Width: 1093
Flags: W
HStem: -29 230<452.131 709.51> 469 182<363 776> 868 230<447.666 689.961>
VStem: 88 274<299.613 469 651 773.531>
LayerCount: 2
Back
SplineSet
247.104 604.16 m 1
 768.704 604.16 l 1
 757.76 778.24 667.712 958.464 507.904 958.464 c 0
 348.097 958.464 258.048 774.145 247.104 604.16 c 1
247.073 468.992 m 1
 262.144 286.72 348.033 106.496 507.904 106.496 c 0
 602.145 106.496 668.416 162.464 711.521 242.655 c 0
 844.48 187.616 l 0
 776.159 55.4238 662.368 -28.6719 507.904 -28.6719 c 1
 241.664 -28.6719 88.0645 221.184 88.0645 536.576 c 0
 88.0645 851.968 241.664 1093.63 507.904 1093.63 c 0
 774.144 1093.63 923.648 851.968 923.648 536.576 c 0
 923.648 514.539 924.608 491.84 924.608 468.992 c 1
 247.073 468.992 l 1
EndSplineSet
Fore
SplineSet
363 651 m 1
 776 651 l 1
 767 763 696 868 569 868 c 0
 443 868 371 760 363 651 c 1
578 201 m 0
 637 201 694 221 732 267 c 0
 960 169 l 0
 874 38 711 -29 578 -29 c 1
 311 -29 88 210 88 537 c 0
 88 860 303 1098 569 1098 c 0
 836 1098 1026 860 1026 537 c 0
 1026 469 l 1
 362 469 l 1
 367 240 502 201 578 201 c 0
EndSplineSet
EndChar

StartChar: f
Encoding: 102 102 125
Width: 782
Flags: W
HStem: 0 21G<213 471> 844 229<74 213 471 636> 1260 229<479.79 675.383>
VStem: 213 258<0 844 1073 1254.17>
LayerCount: 2
Back
SplineSet
405.504 937.984 m 0
 405.504 0 l 1
 253.952 0 l 1
 253.952 937.984 l 0
 114.688 937.984 l 1
 114.688 1073.15 l 1
 253.952 1073.15 l 0
 253.952 1183.74 l 1
 253.952 1380.35 368.64 1480.7 538.624 1480.7 c 0
 622.592 1480.7 653.312 1454.08 712.704 1419.26 c 9
 616.448 1323.01 l 17
 581.632 1339.39 577.536 1345.54 548.864 1345.54 c 0
 450.56 1345.54 405.504 1288.19 405.504 1183.74 c 1
 405.504 1073.15 l 0
 602.112 1073.15 l 1
 602.112 937.984 l 1
 405.504 937.984 l 0
EndSplineSet
Fore
SplineSet
471 844 m 0
 471 0 l 1
 213 0 l 1
 213 844 l 0
 74 844 l 1
 74 1073 l 1
 213 1073 l 0
 213 1153 l 1
 213 1286 365 1489 563 1489 c 0
 647 1489 731 1458 790 1400 c 9
 641 1221 l 17
 617 1249 573 1260 553 1260 c 0
 496 1260 471 1233 471 1173 c 1
 471 1073 l 0
 636 1073 l 1
 636 844 l 1
 471 844 l 0
EndSplineSet
EndChar

StartChar: g
Encoding: 103 103 126
Width: 1137
Flags: W
HStem: -461 224<406.201 699.905> -28 234<441.386 610.484> 866 234<436.375 613.039> 1053 20G<760 1018>
VStem: 74 260<331.335 751.999> 760 258<-176.02 157 307.939 764.48 917 1073>
LayerCount: 2
Back
SplineSet
241.664 538.624 m 0
 241.664 264.192 339.968 108.544 489.472 108.544 c 0
 602.112 108.544 745.472 247.808 745.472 538.624 c 1
 745.472 796.672 589.824 958.464 450.56 958.464 c 1
 323.584 958.464 241.664 772.096 241.664 538.624 c 0
741.376 141.312 m 1
 731.136 119.808 665.6 -26.624 499.712 -26.624 c 1
 176.128 -26.624 88.0645 260.096 88.0645 542.72 c 0
 88.0645 825.344 208.896 1093.63 460.8 1093.63 c 0
 606.208 1093.63 679.936 1003.52 741.376 901.12 c 9
 741.376 1073.15 l 1
 892.928 1073.15 l 1
 892.928 -18.4316 l 2
 892.928 -290.816 710.656 -448.512 507.904 -448.512 c 1
 243.712 -448.512 129.024 -243.712 112.64 -108.544 c 0
 112.64 -108.544 200.09 -108.544 256 -108.544 c 17
 274.432 -227.328 380.928 -313.344 499.712 -313.344 c 0
 624.64 -313.344 741.376 -225.28 741.376 -32.7676 c 0
 741.376 141.312 l 1
EndSplineSet
Fore
SplineSet
760 -70 m 0xdc
 760 157 l 1
 691 48 569 -28 453 -28 c 1
 191 -28 74 228 74 532 c 0
 74 836 189 1100 453 1100 c 0xec
 569 1100 691 1026 760 917 c 9
 760 1073 l 1
 1018 1073 l 1
 1018 -50 l 0
 1018 -262 862 -461 552 -461 c 1
 242 -461 120 -245 104 -99 c 0
 104 -99 252 -92 347 -88 c 17
 358 -172 420 -237 551 -237 c 0
 674 -237 760 -176 760 -70 c 0xdc
334 537 m 0
 334 313 452 206 546 206 c 0
 643 206 768 282 768 537 c 1
 768 790 643 866 546 866 c 1
 449 866 334 782 334 537 c 0
EndSplineSet
EndChar

StartChar: h
Encoding: 104 104 127
Width: 1121
Flags: W
HStem: 0 21G<119 377 756 1014> 867 235<527.483 771.5> 1434 20G<119 377>
VStem: 119 258<0 778.931 912 1454> 756 258<0 791.583>
LayerCount: 2
Back
SplineSet
270.336 0 m 9
 118.784 0 l 1
 118.784 1454.08 l 1
 270.336 1454.08 l 1
 270.336 921.6 l 17
 339.968 995.328 417.792 1095.68 563.2 1095.68 c 0
 819.2 1095.68 905.216 880.64 905.216 622.592 c 0
 905.216 0 l 1
 753.664 0 l 0
 753.664 618.496 l 0
 753.664 790.528 684.032 958.464 573.44 958.464 c 1
 446.464 958.464 270.336 831.488 270.336 659.456 c 0
 270.336 0 l 9
EndSplineSet
Fore
SplineSet
377 0 m 9
 119 0 l 1
 119 1454 l 1
 377 1454 l 1
 377 912 l 17
 434 1016 558 1102 700 1102 c 0
 843 1102 1014 953 1014 668 c 1
 1014 0 l 1
 756 0 l 0
 756 537 l 2
 756 812 684 867 576 867 c 0
 468 867 377 810 377 536 c 2
 377 0 l 9
EndSplineSet
EndChar

StartChar: i
Encoding: 105 105 128
Width: 534
Flags: HMW
LayerCount: 2
Back
SplineSet
120.832 1333.25 m 0
 120.832 1384.45 163.84 1427.46 215.04 1427.46 c 0
 266.24 1427.46 309.248 1384.45 309.248 1333.25 c 0
 309.248 1282.05 266.24 1239.04 215.04 1239.04 c 0
 163.84 1239.04 120.832 1282.05 120.832 1333.25 c 0
139.264 1073.15 m 1
 290.816 1073.15 l 1
 290.816 0 l 1
 139.264 0 l 1
 139.264 1073.15 l 1
EndSplineSet
Fore
SplineSet
121 1334 m 0
 121 1421 188 1494 268 1494 c 0
 348 1494 415 1421 415 1334 c 0
 415 1247 348 1174 268 1174 c 0
 188 1174 121 1247 121 1334 c 0
139 1073 m 1
 397 1073 l 1
 397 0 l 1
 139 0 l 1
 139 1073 l 1
EndSplineSet
EndChar

StartChar: j
Encoding: 106 106 129
Width: 534
Flags: W
HStem: -432 229<-109.07 113.637> 1053 20G<139 397> 1174 320<167.037 368.963>
VStem: 121 294<1221.38 1446.62> 139 258<-174.694 1073>
LayerCount: 2
Back
SplineSet
120.832 1333.25 m 0
 120.832 1384.45 163.84 1427.46 215.04 1427.46 c 0
 266.24 1427.46 309.248 1384.45 309.248 1333.25 c 0
 309.248 1282.05 266.24 1239.04 215.04 1239.04 c 0
 163.84 1239.04 120.832 1282.05 120.832 1333.25 c 0
-247.808 -352.256 m 9
 -139.264 -260.096 l 1
 -114.688 -282.624 -77.8242 -294.912 -28.6719 -294.912 c 1
 102.4 -294.912 139.264 -208.896 139.264 0 c 1
 139.264 1073.15 l 1
 290.816 1073.15 l 0
 290.816 0 l 1
 290.816 -303.104 176.128 -430.08 -28.6719 -430.08 c 1
 -131.072 -430.08 -198.656 -399.36 -247.808 -352.256 c 9
EndSplineSet
Fore
SplineSet
121 1334 m 0xf0
 121 1421 188 1494 268 1494 c 0
 348 1494 415 1421 415 1334 c 0
 415 1247 348 1174 268 1174 c 0
 188 1174 121 1247 121 1334 c 0xf0
-236 -333 m 9
 -67 -161 l 1
 -51 -184 -12 -203 23 -203 c 1
 90 -203 139 -156 139 -92 c 1
 139 1073 l 1
 397 1073 l 0
 397 -35 l 1xe8
 397 -240 205 -432 12 -432 c 1
 -90 -432 -162 -416 -236 -333 c 9
EndSplineSet
EndChar

StartChar: k
Encoding: 107 107 130
Width: 999
Flags: W
HStem: 0 21G<119 377 688.681 996> 1053 20G<642.258 973> 1434 20G<119 377>
VStem: 119 258<0 444 716 1454>
LayerCount: 2
Back
SplineSet
417.792 630.784 m 1
 929.792 0 l 1
 755.712 0 l 1
 315.392 532.48 l 1
 270.336 479.232 l 1
 270.336 0 l 1
 118.784 0 l 1
 118.784 1454.08 l 1
 270.336 1454.08 l 1
 270.336 669.696 l 17
 671.744 1073.15 l 1
 845.824 1073.15 l 1
 417.792 630.784 l 1
EndSplineSet
Fore
SplineSet
578 597 m 1
 996 0 l 1
 702 0 l 1
 391 467 l 1
 377 444 l 1
 377 0 l 1
 119 0 l 1
 119 1454 l 1
 377 1454 l 1
 377 716 l 17
 658 1073 l 1
 973 1073 l 1
 578 597 l 1
EndSplineSet
EndChar

StartChar: l
Encoding: 108 108 131
Width: 561
Flags: W
HStem: -29 21G<371.5 490> 1434 20G<139 397>
VStem: 139 258<204.428 1454>
LayerCount: 2
Back
SplineSet
290.816 215.04 m 1
 290.816 135.168 299.008 102.4 327.68 102.4 c 1
 327.68 -28.6719 l 1
 176.128 -28.6719 139.264 12.2881 139.264 210.944 c 1
 139.264 1454.08 l 1
 290.816 1454.08 l 1
 290.816 215.04 l 1
EndSplineSet
Fore
SplineSet
397 281 m 1
 397 234 418 194 490 194 c 1
 490 -29 l 1
 253 -29 139 40 139 276 c 1
 139 1454 l 1
 397 1454 l 1
 397 281 l 1
EndSplineSet
EndChar

StartChar: braceleft
Encoding: 123 123 132
Width: 747
Flags: W
HStem: -102 213<513.834 645> 1348 213<513.834 645>
VStem: 80 565
LayerCount: 2
Back
SplineSet
79.8721 729.088 m 1
 350.208 815.104 241.664 1275.9 294.912 1400.83 c 1
 356.352 1525.76 487.424 1525.76 624.64 1529.86 c 1
 624.64 1394.69 l 1
 610.304 1396.74 595.968 1398.78 581.632 1398.78 c 0
 528.384 1398.78 456.704 1378.3 430.08 1339.39 c 1
 419.84 1320.96 417.792 1282.05 417.792 1236.99 c 2
 417.792 1191.94 l 2
 417.792 1071.1 393.216 770.048 292.863 729.088 c 1
 393.216 692.224 417.792 364.544 417.792 237.568 c 0
 417.792 194.56 l 0
 417.792 145.408 419.84 106.496 430.08 88.0645 c 1
 456.704 49.1523 528.384 28.6719 581.632 28.6719 c 0
 595.968 28.6719 610.304 30.7197 624.64 32.7676 c 1
 624.64 -102.4 l 1
 487.424 -98.3037 356.352 -98.3037 294.912 26.624 c 1
 241.664 151.552 350.208 647.168 79.8721 729.088 c 1
EndSplineSet
Fore
SplineSet
80 729 m 1
 328 811 238 1327 299 1444 c 0
 360 1559 488 1557 645 1561 c 1
 645 1348 l 1
 535 1348 487 1317 487 1196 c 0
 487 1042 475 782 354 729 c 1
 475 678 487 416 487 262 c 0
 487 141 535 111 645 111 c 1
 645 -102 l 1
 488 -99 360 -101 299 14 c 0
 238 131 328 649 80 729 c 1
EndSplineSet
EndChar

StartChar: bar
Encoding: 124 124 133
Width: 468
Flags: W
HStem: 0 21G<115 358> 1434 20G<115 358>
VStem: 115 243<0 1454>
LayerCount: 2
Back
SplineSet
114.688 0 m 17
 114.688 1454.08 l 1
 258.048 1454.08 l 1
 258.048 0 l 9
 114.688 0 l 17
EndSplineSet
Fore
SplineSet
115 0 m 17
 115 1454 l 1
 358 1454 l 1
 358 0 l 9
 115 0 l 17
EndSplineSet
EndChar

StartChar: braceright
Encoding: 125 125 134
Width: 747
Flags: W
HStem: -102 213<121 252.166> 1348 213<121 252.166>
VStem: 121 565
LayerCount: 2
Back
SplineSet
667.648 729.088 m 1
 397.312 647.168 505.856 157.696 452.608 32.7676 c 1
 391.168 -92.1602 260.096 -92.1602 122.88 -96.2559 c 1
 122.88 38.9121 l 1
 137.216 36.8643 151.552 34.8164 165.888 34.8164 c 0
 219.136 34.8164 290.816 55.2959 317.44 94.208 c 1
 327.68 112.64 329.728 151.552 329.728 200.704 c 0
 329.728 243.712 l 0
 329.728 370.688 354.304 692.224 454.656 729.088 c 1
 354.304 770.048 329.728 1071.1 329.728 1191.94 c 2
 329.728 1236.99 l 2
 329.728 1282.05 327.68 1320.96 317.44 1339.39 c 1
 290.816 1378.3 219.136 1398.78 165.888 1398.78 c 0
 151.552 1398.78 137.216 1396.74 122.88 1394.69 c 1
 122.88 1529.86 l 1
 260.096 1525.76 391.168 1525.76 452.608 1400.83 c 1
 505.856 1275.9 397.312 815.104 667.648 729.088 c 1
EndSplineSet
Fore
SplineSet
686 729 m 1
 438 649 528 131 467 14 c 0
 406 -101 278 -99 121 -102 c 1
 121 111 l 1
 231 111 279 141 279 262 c 0
 279 416 291 678 412 729 c 1
 291 782 279 1042 279 1196 c 0
 279 1317 231 1348 121 1348 c 1
 121 1561 l 1
 278 1557 406 1559 467 1444 c 0
 528 1327 438 811 686 729 c 1
EndSplineSet
EndChar

StartChar: asciitilde
Encoding: 126 126 135
Width: 759
Flags: W
HStem: 512 247<410.92 618.914> 664 247<122.839 322.715>
VStem: 53 637
LayerCount: 2
Back
SplineSet
53.248 763.904 m 17
 98.3037 800.768 157.696 860.16 235.52 860.16 c 0
 333.824 860.16 397.312 708.608 501.76 708.608 c 1
 571.392 708.608 628.736 761.856 690.176 806.912 c 9
 690.176 661.504 l 17
 628.736 614.4 575.488 563.2 501.76 563.2 c 0
 387.072 563.2 315.392 714.752 233.472 714.752 c 0
 155.648 714.752 108.544 663.552 53.248 618.496 c 9
 53.248 763.904 l 17
EndSplineSet
Fore
SplineSet
53 808 m 17x60
 98 845 158 911 236 911 c 0x60
 334 911 408 759 512 759 c 1
 582 759 647 825 690 866 c 9
 690 606 l 17
 653 578 595 512 512 512 c 0xa0
 397 512 315 664 233 664 c 0
 156 664 115 612 53 567 c 9
 53 808 l 17x60
EndSplineSet
EndChar

StartChar: .notdef
Encoding: 127 127 136
Width: 1409
Flags: W
HStem: -29 242<565.489 865.939> 345 161<645.752 774.539> 975 120<622.763 790.734> 1249 240<557.595 873.17>
VStem: 100 283<454.859 1030.53> 477 131<902.811 960.469> 622 161<369.751 481.248> 635 131<557 694.281> 798 138<806.535 965.089> 1047 282<452.962 1028.37>
LayerCount: 2
Fore
SplineSet
766 621 m 2xfdc0
 766 557 l 1
 635 557 l 1
 635 652 l 2xfdc0
 635 668 638 683 644 697 c 0
 650 711 659 723 668 733 c 0
 677 743 688 753 699 762 c 0
 710 771 722 781 734 790 c 0
 746 799 756 809 765 819 c 0
 774 829 782 841 788 854 c 0
 794 867 798 881 798 897 c 0
 798 915 793 931 783 943 c 0xfec0
 773 955 760 963 746 968 c 0
 732 973 718 975 701 975 c 0
 675 975 654 966 637 949 c 0
 620 932 610 911 608 885 c 1
 477 905 l 1
 483 960 505 1005 545 1041 c 0
 585 1077 637 1095 699 1095 c 0
 723 1095 746 1092 769 1087 c 0
 792 1082 814 1074 834 1063 c 0
 854 1052 871 1039 886 1024 c 0
 901 1009 913 990 922 969 c 0
 931 948 936 924 936 899 c 0
 936 875 932 853 926 832 c 0
 920 811 912 794 902 780 c 0
 892 766 881 753 869 742 c 0
 857 731 845 721 833 712 c 0
 821 703 810 694 800 685 c 0
 790 676 782 666 776 655 c 0
 770 644 766 633 766 621 c 2xfdc0
622 425 m 0xfec0
 622 447 629 466 645 482 c 0
 661 498 680 506 702 506 c 0
 724 506 743 498 759 482 c 0
 775 466 783 447 783 425 c 0
 783 403 775 385 759 369 c 0
 743 353 724 345 702 345 c 0
 680 345 661 353 645 369 c 0
 629 385 622 403 622 425 c 0xfec0
1047 754 m 0
 1047 815 1041 873 1030 928 c 0
 1019 983 1002 1036 978 1086 c 0
 954 1136 919 1174 874 1204 c 0
 829 1234 776 1249 715 1249 c 0
 666 1249 621 1239 582 1219 c 0
 543 1199 512 1172 488 1140 c 0
 464 1108 442 1070 426 1026 c 0
 410 982 398 938 392 893 c 0
 386 848 383 802 383 754 c 0
 383 702 386 651 393 602 c 0
 400 553 411 505 427 457 c 0
 443 409 463 367 488 332 c 0
 513 297 545 268 584 246 c 0
 623 224 666 213 715 213 c 0
 764 213 809 224 848 246 c 0
 887 268 918 297 942 332 c 0
 966 367 988 409 1004 457 c 0
 1020 505 1032 553 1038 602 c 0
 1044 651 1047 702 1047 754 c 0
100 754 m 0
 100 821 107 888 120 954 c 0
 133 1020 156 1085 187 1150 c 0
 218 1215 257 1272 303 1322 c 0
 349 1372 407 1412 478 1443 c 0
 549 1474 628 1489 715 1489 c 0
 802 1489 881 1474 952 1443 c 0
 1023 1412 1081 1372 1127 1323 c 0
 1173 1274 1211 1216 1242 1151 c 0
 1273 1086 1296 1020 1309 954 c 0
 1322 888 1329 821 1329 754 c 0
 1329 683 1322 612 1309 542 c 0
 1296 472 1273 402 1242 332 c 0
 1211 262 1172 201 1126 148 c 0
 1080 95 1022 53 951 20 c 0
 880 -13 802 -29 715 -29 c 0
 629 -29 551 -13 480 20 c 0
 409 53 350 95 304 148 c 0
 258 201 219 262 188 331 c 0
 157 400 134 470 120 541 c 0
 106 612 100 683 100 754 c 0
EndSplineSet
EndChar

StartChar: exclamdown
Encoding: 161 161 137
Width: 309
Flags: W
HStem: -29 21G<82.5 134.5> 1053 20G<92.5 123> 1159 328<-3.43869 217.042>
VStem: -57 328<1212.56 1433.04> -32 280<3.52878 396.826> 8 199<682.174 1059.09>
LayerCount: 2
Fore
SplineSet
8 1014 m 1xe4
 8 1048 78 1073 107 1073 c 1
 139 1073 207 1048 207 1014 c 1xe4
 248 65 l 1
 248 12 160 -29 109 -29 c 1
 56 -29 -32 14 -32 63 c 1xe8
 8 1014 l 1xe4
271 1323 m 0xf0
 271 1232 197 1159 107 1159 c 0
 16 1159 -57 1232 -57 1323 c 0
 -57 1413 16 1487 107 1487 c 0
 197 1487 271 1413 271 1323 c 0xf0
EndSplineSet
EndChar

StartChar: cent
Encoding: 162 162 138
Width: 884
Flags: W
HStem: 78 401<349.391 542.289> 760 448<347.566 535.128>
VStem: 70 243<515.29 724.71> 307 230<78 292.752 961.832 1208>
LayerCount: 2
Back
SplineSet
370.688 278.528 m 1
 204.8 299.008 69.6318 434.176 69.6318 657.408 c 0
 69.6318 872.448 241.664 962.561 366.592 993.28 c 1
 366.592 1208.32 l 1
 501.76 1208.32 l 1
 501.76 993.28 l 1
 581.632 972.8 647.168 927.744 700.416 880.64 c 9
 610.304 786.432 l 2
 581.632 815.104 528.384 866.304 423.936 866.304 c 1
 313.344 866.304 212.992 778.24 212.992 653.312 c 0
 212.992 499.712 303.104 405.504 430.08 405.504 c 0
 512 405.504 581.632 438.272 638.976 512 c 9
 729.088 421.888 l 1
 688.128 356.352 604.16 305.152 505.856 274.432 c 1
 505.856 77.8242 l 1
 370.688 77.8242 l 1
 370.688 278.528 l 1
EndSplineSet
Fore
SplineSet
313 293 m 1xe0
 180 315 70 439 70 631 c 0xe0
 70 827 207 948 307 976 c 1
 307 1208 l 1
 537 1208 l 1
 537 977 l 1xd0
 591 966 681 907 732 837 c 9
 573 709 l 2
 572 709 l 0
 564 709 533 760 448 760 c 1
 372 760 313 696 313 629 c 0
 313 553 360 479 446 479 c 0
 531 479 543 513 574 544 c 9
 735 408 l 1
 680 340 609 291 543 285 c 1
 543 78 l 1
 313 78 l 1
 313 293 l 1xe0
EndSplineSet
EndChar

StartChar: sterling
Encoding: 163 163 139
Width: 1267
Flags: W
HStem: 0 231<498 1033.64> 549 229<74 294 573.329 930> 1247 228<626.592 775.272>
VStem: 294 281<329.235 549> 311 262<778 1179.81>
LayerCount: 2
Back
SplineSet
301.056 595.968 m 1
 73.7275 595.968 l 1
 73.7275 731.136 l 1
 311.296 731.136 l 1
 311.296 1200.13 389.12 1466.37 585.729 1466.37 c 0
 729.088 1466.37 839.68 1376.26 913.408 1169.41 c 1
 770.048 1163.26 l 1
 749.568 1245.18 692.224 1333.25 585.729 1333.25 c 0
 520.192 1333.25 464.896 1093.63 464.896 933.888 c 2
 464.896 808.96 l 1
 464.896 731.136 l 1
 823.296 731.136 l 1
 823.296 595.968 l 1
 458.752 595.968 l 1
 447.914 444.25 391.381 252.543 352.256 135.168 c 1
 856.064 135.168 l 1
 888.832 137.216 923.648 139.264 972.8 206.848 c 1
 1052.67 92.1602 l 1
 1005.57 20.4805 923.648 12.2881 843.776 0 c 1
 135.168 0 l 1
 168.001 131.332 287.58 380.356 301.056 595.968 c 1
EndSplineSet
Fore
SplineSet
294 549 m 1xf0
 74 549 l 1
 74 778 l 1
 311 778 l 1
 311 1222 405 1475 692 1475 c 0
 858 1475 967 1372 1041 1138 c 1
 811 1116 l 1
 796 1179 773 1247 692 1247 c 0
 603 1247 573 1070 573 952 c 2
 573 846 l 1
 573 778 l 1xe8
 930 778 l 1
 930 549 l 1
 575 549 l 1
 557 444 545 321 498 231 c 1
 961 231 l 1
 1004 231 1040 279 1054 308 c 1
 1200 156 l 1
 1146 35 1049 0 958 0 c 1
 135 0 l 1
 167 121 281 350 294 549 c 1xf0
EndSplineSet
EndChar

StartChar: currency
Encoding: 164 164 140
Width: 987
Flags: W
HStem: 305 334<53 164 819 934> 406 249<408.946 572.841> 852 251<408.938 574.009> 858 334<53 160 823 934>
VStem: 53 334<305 422 1084 1192> 143 250<671.771 835.84> 590 250<672.074 835.879> 600 334<305 424 1084 1192>
LayerCount: 2
Back
SplineSet
143.36 753.664 m 4
 143.36 945.849 299.336 1101.82 491.521 1101.82 c 4
 683.704 1101.82 839.68 945.849 839.68 753.664 c 4
 839.68 561.479 683.704 405.504 491.521 405.504 c 4
 299.336 405.504 143.36 561.479 143.36 753.664 c 4
393.216 753.664 m 0
 393.216 807.928 437.256 851.968 491.521 851.968 c 0
 545.784 851.968 589.824 807.928 589.824 753.664 c 0
 589.824 699.4 545.784 655.36 491.521 655.36 c 0
 437.256 655.36 393.216 699.4 393.216 753.664 c 0
EndSplineSet
Fore
SplineSet
393 752 m 0x66
 393 692 443 655 494 655 c 0
 545 655 590 701 590 752 c 0
 590 812 543 852 494 852 c 0
 439 852 393 812 393 752 c 0x66
600 424 m 1x91
 569 410 510 406 494 406 c 0x41
 477 406 419 409 387 422 c 1
 387 305 l 1
 53 305 l 1
 53 639 l 1x89
 164 639 l 1
 152 668 143 708 143 750 c 0x84
 143 791 150 831 160 858 c 1
 53 858 l 1
 53 1192 l 1
 387 1192 l 1x98
 387 1084 l 1
 418 1098 477 1103 494 1103 c 0x28
 510 1103 577 1096 600 1084 c 1
 600 1192 l 1
 934 1192 l 1
 934 858 l 1x19
 823 858 l 1
 834 815 840 791 840 750 c 0x12
 840 708 831 678 819 639 c 1
 934 639 l 1
 934 305 l 1
 600 305 l 1
 600 424 l 1x91
EndSplineSet
EndChar

StartChar: yen
Encoding: 165 165 141
Width: 1136
Flags: W
HStem: 0 21G<420 678> 285 229<143 420 678 938> 635 229<143 313 783 938>
VStem: 420 258<0 285 514 635>
LayerCount: 2
Back
SplineSet
460.8 681.984 m 1
 149.504 681.984 l 1
 149.504 817.152 l 1
 407.552 817.152 l 1
 63.4883 1396.74 l 1
 219.136 1396.74 l 1
 542.72 831.488 l 1
 886.784 1396.74 l 1
 1042.43 1396.74 l 1
 669.696 817.152 l 1
 917.504 817.152 l 1
 917.504 681.984 l 1
 612.352 681.984 l 1
 612.352 466.944 l 1
 917.504 466.944 l 1
 917.504 331.776 l 1
 612.352 331.776 l 1
 612.352 0 l 1
 460.8 0 l 1
 460.8 331.776 l 1
 149.504 331.776 l 1
 149.504 466.944 l 1
 460.8 466.944 l 1
 460.8 681.984 l 1
EndSplineSet
Fore
SplineSet
420 635 m 1
 143 635 l 1
 143 864 l 1
 313 864 l 1
 45 1397 l 1
 328 1397 l 1
 559 888 l 1
 807 1397 l 1
 1069 1397 l 1
 783 864 l 1
 938 864 l 1
 938 635 l 1
 678 635 l 1
 678 514 l 1
 938 514 l 1
 938 285 l 1
 678 285 l 1
 678 0 l 1
 420 0 l 1
 420 285 l 1
 143 285 l 1
 143 514 l 1
 420 514 l 1
 420 635 l 1
EndSplineSet
EndChar

StartChar: brokenbar
Encoding: 166 166 142
Width: 405
Flags: W
HStem: 0 21G<80 324>
VStem: 80 244<0 666 768 1434>
LayerCount: 2
Back
SplineSet
223.232 665.6 m 17
 223.232 0 l 1
 79.8721 0 l 1
 79.8721 665.6 l 9
 223.232 665.6 l 17
79.8721 768 m 17
 79.8721 1433.6 l 1
 223.232 1433.6 l 1
 223.232 768 l 9
 79.8721 768 l 17
EndSplineSet
Fore
SplineSet
324 666 m 17
 324 0 l 1
 80 0 l 1
 80 666 l 9
 324 666 l 17
80 768 m 17
 80 1434 l 1
 324 1434 l 1
 324 768 l 9
 80 768 l 17
EndSplineSet
EndChar

StartChar: section
Encoding: 167 167 143
Width: 694
Flags: W
HStem: 57 230<271.261 389.867> 385 191<327.74 412.764> 821 193<279.337 360.684> 1112 229<298.786 418.2>
VStem: 33 236<648.25 820.999> 413 253<432 766.844>
LayerCount: 2
Back
SplineSet
176.128 958.464 m 1
 194.809 963.801 216.384 966.654 241.664 966.656 c 0
 447.896 966.656 657.408 782.336 657.408 530.432 c 0
 657.408 307.2 516.096 104.448 339.968 104.448 c 0
 221.184 104.448 122.395 153.396 40.96 290.816 c 9
 190.464 301.056 l 17
 217.088 264.192 284.672 239.616 323.584 239.616 c 2
 327.68 239.616 l 2
 425.984 239.616 491.521 327.68 512 440.32 c 0
 514.707 455.211 470.452 432.134 446.464 432.128 c 0
 243.46 432.128 32.7676 577.536 32.7676 872.448 c 0
 32.7676 1089.54 159.744 1294.34 348.16 1294.34 c 0
 483.328 1294.34 544.768 1245.18 632.832 1130.5 c 1
 479.232 1114.11 l 0
 454.656 1140.74 397.312 1159.17 364.544 1159.17 c 2
 360.448 1159.17 l 2
 253.952 1159.17 200.704 1069.06 176.128 958.464 c 1
495.616 581.632 m 0
 495.616 698.368 389.12 831.488 239.616 831.488 c 0
 216.423 831.488 201.2 826.798 184.32 817.152 c 1
 184.32 698.368 319.488 567.296 440.32 567.296 c 0
 462.657 567.296 495.616 564.406 495.616 581.632 c 0
EndSplineSet
Fore
SplineSet
279 1005 m 1
 288 1011 298 1014 309 1014 c 0
 486 1014 666 819 666 552 c 0
 666 293 521 57 340 57 c 0
 223 57 127 125 47 313 c 9
 262 356 l 17
 268 310 319 287 332 287 c 1
 336 287 l 0
 380 287 410 338 419 404 c 1
 406 391 391 385 375 385 c 0
 207 385 33 540 33 854 c 0
 33 1105 158 1341 344 1341 c 0
 477 1341 538 1269 624 1099 c 1
 410 1049 l 0
 405 1095 354 1112 348 1112 c 0
 308 1112 288 1064 279 1005 c 1
413 592 m 0
 413 699 364 821 295 821 c 0
 285 821 276 819 269 810 c 1
 269 699 331 577 387 577 c 0
 389 577 392 576 395 576 c 0
 404 576 413 578 413 592 c 0
EndSplineSet
EndChar

StartChar: dieresis
Encoding: 168 168 144
Width: 933
Flags: W
HStem: 1593 328<119.546 343.98 590.546 814.98>
VStem: 67 328<1645.55 1869.98> 538 328<1645.55 1869.98>
LayerCount: 2
Back
SplineSet
536.576 837.632 m 0
 536.576 888.832 579.584 931.84 630.784 931.84 c 0
 681.984 931.84 724.992 888.832 724.992 837.632 c 0
 724.992 786.432 681.984 743.424 630.784 743.424 c 0
 579.584 743.424 536.576 786.432 536.576 837.632 c 0
65.5361 835.584 m 0
 65.5361 886.784 108.544 929.792 159.744 929.792 c 0
 210.944 929.792 253.952 886.784 253.952 835.584 c 0
 253.952 784.384 210.944 741.376 159.744 741.376 c 0
 108.544 741.376 65.5361 784.384 65.5361 835.584 c 0
EndSplineSet
Fore
SplineSet
67 1757 m 0
 67 1802 83 1841 115 1873 c 0
 147 1905 186 1921 231 1921 c 0
 276 1921 315 1905 347 1873 c 0
 379 1841 395 1802 395 1757 c 0
 395 1712 379 1673 347 1641 c 0
 315 1609 276 1593 231 1593 c 0
 186 1593 147 1610 115 1642 c 0
 83 1674 67 1712 67 1757 c 0
538 1757 m 0
 538 1802 554 1841 586 1873 c 0
 618 1905 657 1921 702 1921 c 0
 747 1921 786 1905 818 1873 c 0
 850 1841 866 1802 866 1757 c 0
 866 1712 850 1673 818 1641 c 0
 786 1609 747 1593 702 1593 c 0
 657 1593 618 1610 586 1642 c 0
 554 1674 538 1712 538 1757 c 0
EndSplineSet
EndChar

StartChar: copyright
Encoding: 169 169 145
Width: 1089
Flags: W
HStem: 193 185<297.311 640.932> 496 159<392.118 574.893> 844 161<392.118 575.561> 1122 176<297.311 640.932>
VStem: -78 178<576.841 924.854> 216 159<672.41 827.882> 839 165<576.841 924.854>
LayerCount: 2
Back
SplineSet
-77.8242 745.472 m 4
 -77.8242 1050.71 164.397 1298.43 462.848 1298.43 c 4
 761.299 1298.43 1003.52 1050.71 1003.52 745.472 c 4
 1003.52 440.238 761.299 192.512 462.848 192.512 c 4
 164.397 192.512 -77.8242 440.238 -77.8242 745.472 c 4
654.295 579.216 m 21
 608.952 533.873 540.938 496.087 470.405 496.087 c 4
 329.339 496.087 215.982 609.443 215.982 750.51 c 4
 215.982 891.576 329.339 1004.93 470.405 1004.93 c 4
 540.938 1004.93 608.952 977.224 654.295 931.881 c 13
 540.672 815.104 l 21
 522.24 831.488 495.616 843.776 468.992 843.776 c 4
 417.792 843.776 374.784 800.768 374.784 749.568 c 4
 374.784 698.368 417.792 655.36 468.992 655.36 c 4
 495.616 655.36 526.336 665.6 544.768 681.984 c 13
 654.295 579.216 l 21
99.5322 750.183 m 4
 99.5322 545.28 264.396 378.061 469.299 378.061 c 4
 674.201 378.061 839.065 545.28 839.065 750.183 c 4
 839.065 955.085 674.201 1122.3 469.299 1122.3 c 4
 264.396 1122.3 99.5322 955.085 99.5322 750.183 c 4
EndSplineSet
Fore
SplineSet
-78 745 m 0
 -78 1051 164 1298 463 1298 c 0
 761 1298 1004 1051 1004 745 c 0
 1004 440 761 193 463 193 c 0
 164 193 -78 440 -78 745 c 0
654 579 m 17
 609 534 541 496 470 496 c 0
 329 496 216 609 216 751 c 0
 216 892 329 1005 470 1005 c 0
 541 1005 609 977 654 932 c 9
 541 815 l 17
 522 831 496 844 469 844 c 0
 418 844 375 801 375 750 c 0
 375 698 418 655 469 655 c 0
 496 655 526 666 545 682 c 9
 654 579 l 17
100 750 m 0
 100 545 264 378 469 378 c 0
 674 378 839 545 839 750 c 0
 839 955 674 1122 469 1122 c 0
 264 1122 100 955 100 750 c 0
EndSplineSet
EndChar

StartChar: guillemotleft
Encoding: 171 171 146
Width: 907
Flags: W
HStem: 536 582<459 486 811 834>
LayerCount: 2
Back
SplineSet
643.072 1118.21 m 1
 778.24 1118.21 l 1
 585.729 827.392 l 1
 778.24 536.576 l 1
 643.072 536.576 l 1
 450.56 827.392 l 1
 643.072 1118.21 l 1
241.664 1118.21 m 1
 376.832 1118.21 l 1
 184.32 827.392 l 1
 376.832 536.576 l 1
 241.664 536.576 l 1
 49.1523 827.392 l 1
 241.664 1118.21 l 1
EndSplineSet
Fore
SplineSet
592 1118 m 1
 807 1118 l 1
 615 827 l 1
 807 536 l 1
 592 536 l 1
 399 827 l 1
 592 1118 l 1
240 1118 m 1
 459 1118 l 1
 267 827 l 1
 455 536 l 1
 240 536 l 1
 51 827 l 1
 240 1118 l 1
EndSplineSet
EndChar

StartChar: logicalnot
Encoding: 172 172 147
Width: 1120
Flags: W
HStem: 698 244<143 774>
VStem: 774 230<350 698>
LayerCount: 2
Back
SplineSet
909.312 544.768 m 1
 774.144 544.768 l 1
 774.144 749.568 l 0
 143.36 749.568 l 1
 143.36 892.928 l 1
 909.312 892.928 l 1
 909.312 544.768 l 1
EndSplineSet
Fore
SplineSet
1004 350 m 1
 774 350 l 1
 774 698 l 0
 143 698 l 1
 143 942 l 1
 1004 942 l 1
 1004 350 l 1
EndSplineSet
EndChar

StartChar: registered
Encoding: 174 174 149
Width: 1224
Flags: W
HStem: 421 198<449.796 762.647> 883 99<562 589> 1097 133<562 673.019> 1322 198<454.906 759.329>
VStem: 84 199<789.785 1144.49> 422 140<712 883 982 1097> 677 135<982.084 1094.13> 938 199<793.329 1137.11>
LayerCount: 2
Back
SplineSet
200.704 749.568 m 0
 200.704 479.232 417.792 358.4 591.872 358.4 c 0
 770.048 358.4 985.088 499.712 985.088 749.568 c 0
 985.088 1019.9 745.472 1142.78 591.872 1142.78 c 0
 413.696 1142.78 200.704 1015.81 200.704 749.568 c 0
83.9678 749.568 m 0
 83.9678 1101.82 368.64 1259.52 591.872 1259.52 c 0
 868.352 1259.52 1101.82 1044.48 1101.82 749.568 c 0
 1101.82 446.464 847.872 241.664 591.872 241.664 c 0
 356.352 241.664 83.9678 413.696 83.9678 749.568 c 0
497.664 800.768 m 1
 514.048 800.768 530.432 800.768 548.864 800.768 c 0
 626.688 800.768 702.464 806.912 702.464 866.304 c 1
 702.464 927.744 608.256 931.84 526.336 931.84 c 0
 516.096 931.84 505.856 931.84 497.664 931.84 c 1
 497.664 800.768 l 1
415.744 1009.66 m 0
 497.664 1009.66 l 1
 647.168 1009.66 782.336 972.8 782.336 866.304 c 0
 782.336 765.952 692.224 739.328 595.968 724.992 c 1
 804.864 495.616 l 1
 704.512 495.616 l 1
 497.664 720.896 l 1
 497.664 495.616 l 1
 415.744 495.616 l 1
 415.744 1009.66 l 0
EndSplineSet
Fore
SplineSet
283 963 m 0
 283 726 466 619 612 619 c 0
 760 619 938 744 938 963 c 0
 938 1210 740 1322 612 1322 c 0
 462 1322 283 1206 283 963 c 0
84 963 m 0
 84 1348 380 1520 612 1520 c 0
 897 1520 1137 1286 1137 963 c 0
 1137 640 876 421 612 421 c 0
 367 421 84 605 84 963 c 0
562 982 m 1
 575 982 588 981 603 981 c 0
 665 981 677 986 677 1039 c 1
 677 1093 650 1097 584 1097 c 0
 576 1097 568 1097 562 1097 c 1
 562 982 l 1
422 1230 m 0
 562 1230 l 1
 719 1230 812 1181 812 1039 c 0
 812 935 764 919 716 893 c 1
 811 711 l 1
 660 711 l 1
 589 878 l 1
 562 883 l 1
 562 712 l 1
 422 712 l 1
 422 1230 l 0
EndSplineSet
EndChar

StartChar: macron
Encoding: 175 175 150
Width: 960
Flags: W
HStem: 1686 127<98 870>
LayerCount: 2
Back
SplineSet
53.248 1130.5 m 1
 657.408 1130.5 l 1
 657.408 995.328 l 1
 53.248 995.328 l 1
 53.248 1130.5 l 1
EndSplineSet
Fore
SplineSet
98 1813 m 1
 870 1813 l 1
 870 1686 l 1
 98 1686 l 1
 98 1813 l 1
EndSplineSet
EndChar

StartChar: degree
Encoding: 176 176 151
Width: 763
Flags: W
HStem: 866 162<198.494 403.202> 1328 162<198.494 403.202>
VStem: -17 173<1069.72 1286.09> 445 173<1069.72 1286.09>
LayerCount: 2
Back
SplineSet
156.304 1177.7 m 4
 156.304 1093.96 219.832 1027.54 300.688 1027.54 c 4
 381.542 1027.54 445.071 1093.96 445.071 1177.7 c 4
 445.071 1261.45 381.542 1327.86 300.688 1327.86 c 4
 219.832 1327.86 156.304 1261.45 156.304 1177.7 c 4
-16.5684 1178.03 m 4
 -16.5684 1351.5 124.682 1490.27 300.626 1490.27 c 4
 476.569 1490.27 617.82 1351.5 617.82 1178.03 c 4
 617.82 1004.56 476.569 865.792 300.626 865.792 c 4
 124.682 865.792 -16.5684 1004.56 -16.5684 1178.03 c 4
EndSplineSet
Fore
SplineSet
156 1178 m 0
 156 1094 220 1028 301 1028 c 0
 382 1028 445 1094 445 1178 c 0
 445 1261 382 1328 301 1328 c 0
 220 1328 156 1261 156 1178 c 0
-17 1178 m 0
 -17 1351 125 1490 301 1490 c 0
 477 1490 618 1351 618 1178 c 0
 618 1005 477 866 301 866 c 0
 125 866 -17 1005 -17 1178 c 0
EndSplineSet
EndChar

StartChar: acute
Encoding: 180 180 153
Width: 577
Flags: W
HStem: 1528 417
VStem: 78 446
LayerCount: 2
Back
SplineSet
90.1123 1247.23 m 1
 260.096 1490.94 l 1
 432.128 1490.94 l 2
 264.192 1247.23 l 2
 90.1123 1247.23 l 1
EndSplineSet
Fore
SplineSet
195 1533 m 2
 191 1530 187 1528 182 1528 c 0
 179 1528 176 1529 172 1530 c 0
 161 1533 149 1539 136 1550 c 0
 123 1561 113 1571 105 1581 c 256
 97 1591 90 1606 84 1626 c 0
 80 1639 78 1650 78 1660 c 0
 78 1665 79 1670 80 1675 c 0
 81 1680 84 1685 88 1688 c 2
 370 1935 l 1
 378 1942 388 1945 399 1945 c 0
 405 1945 411 1944 418 1942 c 0
 432 1938 447 1931 461 1921 c 0
 475 1911 487 1899 496 1888 c 1
 507 1875 515 1858 520 1836 c 0
 523 1824 524 1813 524 1802 c 0
 524 1793 523 1784 521 1776 c 0
 518 1763 512 1753 503 1746 c 2
 195 1533 l 2
EndSplineSet
EndChar

StartChar: microsign
Encoding: 181 181 154
Width: 1128
Flags: W
HStem: -29 234<474.999 673.39> 0 21G<762 1006>
VStem: 143 244<-397 78 299.988 889> 762 244<0 84 308.428 889>
LayerCount: 2
Back
SplineSet
286.72 74.0361 m 1
 286.72 -395.264 l 1
 143.36 -395.264 l 1
 143.36 872.448 l 1
 288.768 872.448 l 0
 288.768 413.696 l 0
 288.768 192.512 366.592 110.592 485.376 110.592 c 1
 645.12 110.592 716.8 290.816 716.8 413.696 c 0
 716.8 872.448 l 9
 860.16 872.448 l 1
 860.16 0 l 1
 716.8 0 l 1
 716.8 98.3037 l 17
 657.408 24.5762 575.478 -26.624 495.616 -26.624 c 0
 372.736 -26.624 331.776 28.6719 286.72 74.0361 c 1
EndSplineSet
Fore
SplineSet
387 78 m 1xb0
 387 -397 l 1
 143 -397 l 1
 143 889 l 1
 391 889 l 0
 391 467 l 0
 391 264 516 205 586 205 c 1xb0
 679 205 762 354 762 467 c 0
 762 889 l 9
 1006 889 l 1
 1006 0 l 1
 762 0 l 1x70
 762 84 l 17
 727 8 638 -29 592 -29 c 0
 520 -29 414 22 387 78 c 1xb0
EndSplineSet
EndChar

StartChar: paragraph
Encoding: 182 182 155
Width: 1286
Flags: W
HStem: 0 229<735 883> 570 225<735 883> 1221 220<741.301 883>
VStem: 111 243<900.089 1089.61> 492 243<229 570 847 1144> 883 257<229 565 781 1229>
LayerCount: 2
Back
SplineSet
634.88 1259.52 m 1
 634.88 747.52 l 1
 669.696 747.52 815.104 739.328 851.968 739.328 c 1
 851.968 1271.81 l 1
 817.152 1271.81 671.744 1259.52 634.88 1259.52 c 1
491.521 1226.75 m 1
 385.024 1191.94 253.952 1134.59 253.952 995.328 c 1
 253.952 839.68 380.928 802.816 491.521 774.145 c 1
 491.521 1226.75 l 1
634.88 135.168 m 1
 851.968 135.168 l 1
 851.968 612.352 l 1
 815.104 612.352 671.744 622.592 634.88 622.592 c 1
 634.88 135.168 l 1
491.521 0 m 1
 491.521 643.072 l 1
 274.432 690.176 110.592 763.904 110.592 995.328 c 0
 110.592 1265.66 446.464 1396.74 806.912 1396.74 c 1
 1003.52 1396.74 l 0
 1003.52 0 l 1
 491.521 0 l 1
EndSplineSet
Fore
SplineSet
735 1221 m 1
 735 795 l 1
 746 795 872 781 883 781 c 1
 883 1229 l 1
 872 1229 746 1221 735 1221 c 1
492 1144 m 1
 448 1124 354 1090 354 1008 c 1
 354 895 447 868 492 847 c 1
 492 1144 l 1
735 229 m 1
 883 229 l 1
 883 565 l 1
 872 565 746 570 735 570 c 1
 735 229 l 1
492 0 m 1
 492 618 l 1
 298 671 111 752 111 1008 c 0
 111 1300 540 1441 868 1441 c 1
 1140 1441 l 0
 1140 0 l 1
 492 0 l 1
EndSplineSet
EndChar

StartChar: cedilla
Encoding: 184 184 157
Width: 528
Flags: W
HStem: -365 439
VStem: 188 227<-183.621 -9.16919>
LayerCount: 2
Back
SplineSet
106.496 -190.464 m 1
 137.216 -167.936 200.704 -122.88 200.704 -86.0156 c 0
 200.704 -53.248 178.176 -28.6719 145.408 18.4316 c 0
 274.432 73.7275 l 0
 317.44 32.7676 358.4 -28.6719 358.4 -98.3037 c 0
 358.4 -208.896 219.136 -270.336 149.504 -315.392 c 1
 106.496 -190.464 l 1
EndSplineSet
Fore
SplineSet
57 -238 m 1
 101 -213 188 -168 188 -127 c 0
 188 -94 188 -61 145 -16 c 9
 209 19 307 74 307 74 c 0
 362 25 415 -49 415 -133 c 0
 415 -244 258 -319 170 -365 c 1
 57 -238 l 1
EndSplineSet
EndChar

StartChar: guillemotright
Encoding: 187 187 158
Width: 983
Flags: W
HStem: 537 581<104 127 452 479>
LayerCount: 2
Back
SplineSet
223.232 1118.21 m 1
 415.744 827.392 l 1
 223.232 536.576 l 1
 88.0645 536.576 l 1
 280.576 827.392 l 1
 88.0645 1118.21 l 1
 223.232 1118.21 l 1
624.64 1118.21 m 1
 817.152 827.392 l 1
 624.64 536.576 l 1
 489.472 536.576 l 1
 681.984 827.392 l 1
 489.472 1118.21 l 1
 624.64 1118.21 l 1
EndSplineSet
Fore
SplineSet
342 1119 m 1
 535 827 l 1
 342 537 l 1
 127 537 l 1
 319 827 l 1
 127 1118 l 1
 342 1119 l 1
694 1119 m 1
 883 827 l 1
 694 537 l 1
 479 537 l 1
 667 827 l 1
 475 1118 l 1
 694 1119 l 1
EndSplineSet
EndChar

StartChar: questiondown
Encoding: 191 191 159
Width: 954
Flags: W
HStem: -35 244<292.48 557.071> 1167 328<322.561 543.042>
VStem: -43 281<260.096 498.646> 269 328<1220.56 1441.04> 301 268<835.374 1063>
LayerCount: 2
Fore
SplineSet
301 932 m 1xe8
 301 1063 l 1
 569 1063 l 1
 569 868 l 0
 569 626 238 604 238 368 c 1
 238 250 342 209 436 209 c 1
 545 209 616 291 625 393 c 1
 893 352 l 1
 868 135 702 -35 440 -35 c 1
 195 -35 -43 100 -43 364 c 1
 -43 735 301 745 301 932 c 1xe8
597 1331 m 0xf0
 597 1240 523 1167 433 1167 c 0
 342 1167 269 1240 269 1331 c 0
 269 1421 342 1495 433 1495 c 0
 523 1495 597 1421 597 1331 c 0xf0
EndSplineSet
EndChar

StartChar: AE
Encoding: 198 198 166
Width: 1589
Flags: W
HStem: 0 250<1084 1473> 590 250<621 819 1085 1473> 1203 253<1085 1473>
VStem: 819 265<250 590 840 1203>
LayerCount: 2
Back
SplineSet
775.021 645.346 m 1
 510.447 645.346 l 0
 251.935 0 l 0
 72.5918 0 l 1
 663.998 1456.13 l 1
 1372.83 1456.13 l 1
 1372.83 1307.21 l 0
 930.878 1307.21 l 0
 930.878 788.392 l 1
 1372.83 788.392 l 1
 1372.83 641.075 l 0
 930.878 641.075 l 0
 930.878 147.318 l 0
 1372.83 147.318 l 1
 1372.83 0 l 1
 775.021 0 l 1
 775.021 645.346 l 1
772.885 1236.75 m 1
 772.885 1311.48 l 1
 570.665 788.392 l 1
 775.021 788.392 l 1
 772.885 1236.75 l 1
EndSplineSet
Fore
SplineSet
819 596 m 1
 541 596 l 0
 308 0 l 0
 10 0 l 1
 586 1456 l 1
 1473 1456 l 1
 1473 1203 l 0
 1085 1203 l 0
 1085 840 l 1
 1473 840 l 1
 1473 590 l 0
 1084 590 l 0
 1084 250 l 0
 1473 250 l 1
 1473 0 l 1
 819 0 l 1
 819 596 l 1
819 1286 m 1
 621 839 l 1
 819 839 l 1
 819 1286 l 1
EndSplineSet
EndChar

StartChar: Eth
Encoding: 208 208 176
Width: 1480
Flags: W
HStem: 0 243<528 870.852> 612 239<135 260 528 774> 1211 245<527 856.476>
VStem: 260 268<243 612 851 1211> 1090 267<494.626 959.067>
LayerCount: 2
Back
SplineSet
315.392 662.405 m 1
 134.184 662.405 l 1
 134.184 802.979 l 1
 315.392 802.979 l 1
 315.392 1456.13 l 1
 696.483 1456.13 l 1
 1062.83 1456.13 1301.22 1133.12 1301.22 726.303 c 1
 1301.22 319.488 1056.44 0 696.483 0 c 0
 470.549 0 l 1
 315.392 0 l 1
 315.392 662.405 l 1
472.679 662.405 m 1
 472.679 142.704 l 1
 696.483 142.704 l 1
 954.204 142.704 1143.93 379.126 1143.93 726.303 c 1
 1143.93 1073.48 954.204 1312.03 696.483 1312.03 c 1
 472.679 1312.03 l 1
 472.679 802.979 l 1
 773.161 802.979 l 1
 773.161 662.405 l 1
 472.679 662.405 l 1
EndSplineSet
Fore
SplineSet
260 612 m 1
 135 612 l 1
 135 851 l 1
 260 851 l 1
 260 1456 l 1
 696 1456 l 1
 1097 1456 1357 1133 1357 727 c 1
 1357 320 1090 0 696 0 c 0
 471 0 l 1
 260 0 l 1
 260 612 l 1
528 612 m 1
 528 243 l 1
 696 243 l 1
 923 243 1090 439 1090 727 c 1
 1090 1014 923 1211 696 1211 c 1
 527 1211 l 1
 527 851 l 1
 774 851 l 1
 774 612 l 1
 528 612 l 1
EndSplineSet
EndChar

StartChar: figuredash
Encoding: 8210 8210 186
Width: 1177
Flags: W
HStem: 426 240<68 1112>
LayerCount: 2
Back
SplineSet
159.744 675.84 m 1
 927.744 675.84 l 1
 927.744 540.672 l 1
 159.744 540.672 l 1
 159.744 675.84 l 1
EndSplineSet
Fore
SplineSet
68 666 m 1
 1112 666 l 1
 1112 426 l 1
 68 426 l 1
 68 666 l 1
EndSplineSet
EndChar

StartChar: endash
Encoding: 8211 8211 187
Width: 1343
Flags: W
HStem: 426 240<119 1220>
LayerCount: 2
Back
SplineSet
159.744 675.84 m 1
 845.824 675.84 l 1
 845.824 540.672 l 1
 159.744 540.672 l 1
 159.744 675.84 l 1
EndSplineSet
Fore
SplineSet
119 666 m 1
 1220 666 l 1
 1220 426 l 1
 119 426 l 1
 119 666 l 1
EndSplineSet
EndChar

StartChar: emdash
Encoding: 8212 8212 188
Width: 1548
Flags: W
HStem: 426 239<66 1492>
LayerCount: 2
Back
SplineSet
139.264 675.84 m 1
 1148.93 675.84 l 1
 1148.93 540.672 l 1
 139.264 540.672 l 1
 139.264 675.84 l 1
EndSplineSet
Fore
SplineSet
66 665 m 1
 1492 665 l 1
 1492 426 l 1
 66 426 l 1
 66 665 l 1
EndSplineSet
EndChar

StartChar: OE
Encoding: 338 338 195
Width: 1661
Flags: W
HStem: -29 242<523.183 759.097> 0 240<1091 1585> 627 239<1091 1522> 1217 238<1091 1585> 1249 240<511.602 764.881>
VStem: 100 283<420.784 1065.1> 823 268<274.572 627 866 1193.73>
LayerCount: 2
Fore
SplineSet
823 0 m 9x76
 823 7 l 17
 767 -16 702 -29 625 -29 c 0
 180 -29 100 515 100 754 c 0
 100 990 180 1489 625 1489 c 0xae
 702 1489 767 1477 823 1455 c 1
 1585 1456 l 1
 1585 1217 l 0
 1091 1217 l 0
 1091 1119 l 1
 1091 866 l 1
 1126 866 l 1
 1522 866 l 1
 1522 627 l 0
 1126 627 l 1
 1091 627 l 0
 1091 368 l 1
 1091 240 l 0
 1585 240 l 0
 1585 0 l 0
 823 0 l 9x76
823 1118 m 1
 795 1196 739 1249 625 1249 c 0
 405 1249 383 885 383 754 c 1
 383 625 400 213 625 213 c 1
 739 213 795 272 823 359 c 1
 823 1118 l 1
EndSplineSet
EndChar

StartChar: oe
Encoding: 339 339 196
Width: 1627
Flags: W
HStem: -29 235<423.385 629.328 1012.74 1227.03> 469 182<953 1286> 866 234<421.577 630.311 1008.88 1227.91>
VStem: 92 252<293.627 779.607> 698 254<285.406 469 651 787.825>
LayerCount: 2
Fore
SplineSet
953 651 m 1
 1286 651 l 1
 1277 763 1246 868 1119 868 c 0
 993 868 961 760 953 651 c 1
820 111 m 1
 750 24 652 -29 525 -29 c 1
 244 -29 92 232 92 537 c 0
 92 842 244 1100 525 1100 c 0
 651 1100 749 1048 819 963 c 1
 894 1048 997 1098 1119 1098 c 0
 1386 1098 1536 860 1536 537 c 0
 1536 469 l 1
 952 469 l 1
 957 240 1052 201 1128 201 c 0
 1187 201 1204 221 1242 267 c 0
 1470 169 l 0
 1384 38 1261 -29 1128 -29 c 1
 1004 -29 898 23 820 111 c 1
344 537 m 0
 344 312 410 206 526 206 c 0
 615 206 669 269 689 402 c 0
 695 441 698 486 698 537 c 1
 698 589 695 634 689 673 c 0
 669 804 615 866 526 866 c 1
 410 866 344 762 344 537 c 0
EndSplineSet
EndChar

StartChar: trademark
Encoding: 8482 8482 197
Width: 1529
Flags: W
HStem: 1074 778<280 464 726 907 1307 1488> 1682 170<41 280 464 692>
VStem: 280 184<1074 1682> 726 181<1074 1431> 1307 181<1074 1438>
LayerCount: 2
Fore
SplineSet
726 1074 m 1xb8
 726 1852 l 1xb8
 948 1852 l 1
 1105 1388 l 1
 1266 1852 l 1x78
 1488 1852 l 1
 1488 1074 l 1
 1307 1074 l 1
 1307 1438 l 1
 1191 1074 l 1
 1020 1074 l 1
 907 1431 l 1
 907 1074 l 1
 726 1074 l 1xb8
41 1852 m 1x78
 692 1852 l 1
 692 1682 l 1
 464 1682 l 1x78
 464 1074 l 1
 280 1074 l 1xb8
 280 1682 l 1
 41 1682 l 1
 41 1852 l 1x78
EndSplineSet
EndChar

StartChar: dcaron
Encoding: 271 271 209
Width: 1348
GlyphClass: 2
Flags: W
HStem: -28 234<441.386 610.484> 0 21<760 1018> 866 234<436.375 613.039> 1434 20<760 1018>
VStem: 74 260<331.335 751.999> 760 258<0 157 307.939 764.48 917 1454>
LayerCount: 2
Fore
SplineSet
1302 1385 m 0x3c
 1302 1355 1297 1323 1287 1292 c 0
 1277 1261 1265 1233 1251 1209 c 0
 1237 1185 1223 1165 1210 1149 c 0
 1197 1133 1187 1121 1177 1112 c 1
 1125 1146 l 1
 1130 1156 1136 1172 1144 1194 c 0
 1152 1216 1156 1232 1156 1244 c 0
 1156 1248 1156 1250 1155 1252 c 1
 1133 1258 1114 1272 1098 1295 c 0
 1082 1318 1074 1348 1074 1385 c 0
 1074 1417 1085 1447 1107 1474 c 0
 1129 1501 1156 1514 1185 1514 c 0
 1222 1514 1250 1501 1271 1474 c 0
 1292 1447 1302 1417 1302 1385 c 0x3c
EndSplineSet
Refer: 123 100 N 1 0 0 1 0 0 2
EndChar

StartChar: Dcroat
Encoding: 272 272 210
Width: 1480
GlyphClass: 2
Flags: W
HStem: 0 243<528 870.307> 612 239<135 260 528 774> 1211 245<527 869.391>
VStem: 260 268<243 612 851 1211> 1090 267<489.347 964.653>
LayerCount: 2
Fore
SplineSet
260 612 m 1
 135 612 l 1
 135 851 l 1
 260 851 l 1
 260 1456 l 1
 696 1456 l 2
 794 1456 885 1437 968 1399 c 0
 1051 1361 1122 1309 1178 1244 c 0
 1234 1179 1278 1101 1310 1012 c 0
 1342 923 1357 828 1357 727 c 0
 1357 626 1340 531 1308 442 c 0
 1276 353 1231 275 1174 210 c 0
 1117 145 1048 94 965 56 c 0
 882 18 793 0 696 0 c 2
 471 0 l 1
 260 0 l 1
 260 612 l 1
528 612 m 1
 528 243 l 1
 696 243 l 2
 811 243 905 288 979 378 c 0
 1053 468 1090 584 1090 727 c 0
 1090 870 1052 986 978 1076 c 0
 904 1166 810 1211 696 1211 c 2
 527 1211 l 1
 527 851 l 1
 774 851 l 1
 774 612 l 1
 528 612 l 1
EndSplineSet
EndChar

StartChar: dcroat
Encoding: 273 273 211
Width: 1122
GlyphClass: 2
Flags: W
HStem: -28 234<441.386 610.484> 0 21G<760 1018> 866 234<436.375 613.039> 1140 240<576 760 1018 1086> 1434 20G<760 1018>
VStem: 74 260<331.335 751.999> 760 258<0 157 307.939 764.48 917 1140 1380 1454>
LayerCount: 2
Fore
SplineSet
334 537 m 0xbe
 334 313 452 206 546 206 c 0
 643 206 768 282 768 537 c 0
 768 790 643 866 546 866 c 0
 449 866 334 782 334 537 c 0xbe
760 0 m 1x7e
 760 157 l 1
 691 48 569 -28 453 -28 c 0xbe
 191 -28 74 228 74 532 c 0
 74 836 189 1100 453 1100 c 0
 569 1100 691 1026 760 917 c 1
 760 1140 l 1
 576 1140 l 1
 576 1380 l 1
 760 1380 l 1
 760 1454 l 1
 1018 1454 l 1
 1018 1380 l 1
 1086 1380 l 1
 1086 1140 l 1
 1018 1140 l 1
 1018 0 l 1
 760 0 l 1x7e
EndSplineSet
EndChar

StartChar: Lcaron
Encoding: 317 317 218
Width: 1220
GlyphClass: 2
Flags: W
HStem: 0 240<383 1099> 1436 20<115 383>
VStem: 115 268<240 1456>
LayerCount: 2
Fore
SplineSet
723 1385 m 0
 723 1355 718 1323 708 1292 c 0
 698 1261 686 1233 672 1209 c 0
 658 1185 644 1165 631 1149 c 0
 618 1133 608 1121 598 1112 c 1
 546 1146 l 1
 551 1156 557 1172 565 1194 c 0
 573 1216 577 1232 577 1244 c 0
 577 1248 577 1250 576 1252 c 1
 554 1258 535 1272 519 1295 c 0
 503 1318 495 1348 495 1385 c 0
 495 1417 506 1447 528 1474 c 0
 550 1501 577 1514 606 1514 c 0
 643 1514 671 1501 692 1474 c 0
 713 1447 723 1417 723 1385 c 0
EndSplineSet
Refer: 99 76 N 1 0 0 1 0 0 2
EndChar

StartChar: lcaron
Encoding: 318 318 219
Width: 772
GlyphClass: 2
Flags: W
HStem: -29 21<371.5 490> 1434 20<139 397>
VStem: 139 258<204.428 1454>
LayerCount: 2
Fore
SplineSet
723 1385 m 0
 723 1355 718 1323 708 1292 c 0
 698 1261 686 1233 672 1209 c 0
 658 1185 644 1165 631 1149 c 0
 618 1133 608 1121 598 1112 c 1
 546 1146 l 1
 551 1156 557 1172 565 1194 c 0
 573 1216 577 1232 577 1244 c 0
 577 1248 577 1250 576 1252 c 1
 554 1258 535 1272 519 1295 c 0
 503 1318 495 1348 495 1385 c 0
 495 1417 506 1447 528 1474 c 0
 550 1501 577 1514 606 1514 c 0
 643 1514 671 1501 692 1474 c 0
 713 1447 723 1417 723 1385 c 0
EndSplineSet
Refer: 131 108 N 1 0 0 1 0 0 2
EndChar

StartChar: Lslash
Encoding: 321 321 220
Width: 1220
GlyphClass: 2
Flags: W
HStem: 0 240<383 1149> 1436 20G<115 383>
VStem: 115 268<240 500 730 733 965 1456>
LayerCount: 2
Fore
SplineSet
0 400 m 1
 0 630 l 1
 115 730 l 1
 115 1456 l 1
 383 1456 l 1
 383 965 l 1
 641 1190 l 1
 640 956 l 1
 383 733 l 1
 383 240 l 1
 1149 240 l 1
 1149 0 l 1
 115 0 l 1
 115 500 l 1
 0 400 l 1
EndSplineSet
EndChar

StartChar: tcaron
Encoding: 357 357 238
Width: 884
GlyphClass: 2
Flags: W
HStem: -15 217<484.031 621> 844 229<72 213 471 625>
VStem: 213 258<220.047 844 1073 1323>
LayerCount: 2
Fore
SplineSet
852 1385 m 0
 852 1355 847 1323 837 1292 c 0
 827 1261 815 1233 801 1209 c 0
 787 1185 773 1165 760 1149 c 0
 747 1133 737 1121 727 1112 c 1
 675 1146 l 1
 680 1156 686 1172 694 1194 c 0
 702 1216 706 1232 706 1244 c 0
 706 1248 706 1250 705 1252 c 1
 683 1258 664 1272 648 1295 c 0
 632 1318 624 1348 624 1385 c 0
 624 1417 635 1447 657 1474 c 0
 679 1501 706 1514 735 1514 c 0
 772 1514 800 1501 821 1474 c 0
 842 1447 852 1417 852 1385 c 0
EndSplineSet
Refer: 40 116 N 1 0 0 1 0 0 2
EndChar

StartChar: circumflex
Encoding: 710 710 247
Width: 1347
GlyphClass: 2
Flags: W
HStem: 1562 344
LayerCount: 2
Fore
SplineSet
1121 1562 m 1
 850 1562 l 1
 718 1723 l 1
 594 1565 l 1
 317 1565 l 1
 601 1906 l 1
 837 1906 l 1
 1121 1562 l 1
EndSplineSet
EndChar

StartChar: caron
Encoding: 711 711 248
Width: 1347
GlyphClass: 2
Flags: W
HStem: 1562 344
LayerCount: 2
Fore
SplineSet
1121 1906 m 1
 837 1562 l 1
 601 1562 l 1
 317 1903 l 1
 594 1903 l 1
 718 1745 l 1
 850 1906 l 1
 1121 1906 l 1
EndSplineSet
EndChar

StartChar: breve
Encoding: 728 728 249
Width: 1214
GlyphClass: 2
Flags: W
HStem: 1516 236<644.312 806.768>
LayerCount: 2
Fore
SplineSet
793 1768 m 0
 825 1791 867 1849 920 1942 c 1
 1077 1942 l 1
 1078 1932 1078 1921 1078 1911 c 0
 1078 1833 1055 1755 1008 1676 c 0
 981 1630 940 1592 885 1561 c 0
 833 1531 780 1516 727 1516 c 0
 674 1516 621 1531 569 1561 c 0
 514 1592 473 1630 446 1676 c 0
 399 1755 376 1833 376 1911 c 0
 376 1921 376 1932 377 1942 c 1
 538 1942 l 1
 576 1855 617 1798 660 1769 c 0
 676 1758 700 1753 731 1752 c 1
 758 1753 779 1758 793 1768 c 0
EndSplineSet
EndChar

StartChar: dotaccent
Encoding: 729 729 250
Width: 876
GlyphClass: 2
Flags: W
HStem: 1593 328<356.546 580.98>
VStem: 304 328<1645.55 1869.98>
LayerCount: 2
Fore
SplineSet
304 1757 m 0
 304 1802 320 1841 352 1873 c 0
 384 1905 423 1921 468 1921 c 0
 513 1921 552 1905 584 1873 c 0
 616 1841 632 1802 632 1757 c 0
 632 1712 616 1673 584 1641 c 0
 552 1609 513 1593 468 1593 c 0
 423 1593 384 1610 352 1642 c 0
 320 1674 304 1712 304 1757 c 0
EndSplineSet
EndChar

StartChar: tilde
Encoding: 732 732 251
Width: 1089
GlyphClass: 2
Flags: W
HStem: 1514 247<606.05 819.951> 1666 247<321.115 522.603>
VStem: 252 637
LayerCount: 2
Fore
SplineSet
252 1810 m 1x60
 256 1813 266 1821 280 1834 c 0
 294 1847 305 1856 314 1863 c 0
 323 1870 335 1877 349 1886 c 0
 363 1895 378 1902 392 1906 c 0
 406 1910 420 1913 435 1913 c 0x60
 453 1913 472 1908 491 1898 c 0
 510 1888 529 1875 546 1860 c 0
 572 1838 570 1836 596 1814 c 0
 613 1799 632 1786 652 1776 c 0
 672 1766 692 1761 711 1761 c 0
 732 1761 756 1768 782 1782 c 0
 808 1796 825 1809 836 1819 c 0
 847 1829 865 1845 889 1868 c 1
 889 1608 l 1
 886 1605 875 1596 858 1582 c 0
 841 1568 827 1558 816 1550 c 0
 805 1542 790 1534 770 1526 c 0
 750 1518 730 1514 711 1514 c 0xa0
 685 1514 658 1522 630 1538 c 0
 602 1554 579 1571 559 1590 c 0
 539 1609 517 1626 494 1642 c 0
 471 1658 450 1666 432 1666 c 0
 414 1666 396 1663 379 1656 c 0
 362 1649 348 1643 338 1636 c 0
 328 1629 313 1617 294 1602 c 0
 275 1587 261 1576 252 1569 c 1
 252 1810 l 1x60
EndSplineSet
EndChar

StartChar: hungarumlaut
Encoding: 733 733 252
Width: 1298
GlyphClass: 2
Flags: W
HStem: 1484 462
LayerCount: 2
Fore
SplineSet
875 1493 m 2
 870 1487 863 1484 853 1484 c 0
 842 1484 828 1487 813 1494 c 0
 798 1501 785 1509 775 1516 c 256
 765 1523 755 1536 744 1554 c 0
 733 1572 727 1588 727 1601 c 0
 727 1606 728 1611 731 1615 c 2
 940 1927 l 1
 949 1940 964 1946 984 1946 c 0
 999 1946 1014 1942 1031 1936 c 0
 1048 1930 1062 1923 1073 1914 c 1
 1087 1905 1099 1890 1110 1870 c 0
 1121 1850 1127 1831 1127 1812 c 0
 1127 1799 1124 1788 1117 1779 c 2
 875 1493 l 2
486 1493 m 2
 481 1487 474 1484 464 1484 c 0
 453 1484 439 1487 424 1494 c 0
 409 1501 396 1509 386 1516 c 256
 376 1523 365 1536 354 1554 c 0
 343 1572 338 1588 338 1601 c 0
 338 1606 339 1611 342 1615 c 2
 551 1927 l 1
 560 1940 575 1946 595 1946 c 0
 610 1946 625 1942 642 1936 c 0
 659 1930 673 1923 684 1914 c 1
 698 1905 711 1890 722 1870 c 0
 733 1850 738 1831 738 1812 c 0
 738 1799 735 1788 728 1779 c 2
 486 1493 l 2
EndSplineSet
EndChar

StartChar: bullet
Encoding: 8226 8226 253
Width: 824
VWidth: 2050
GlyphClass: 2
Flags: W
HStem: 303 626<252.662 577.053>
VStem: 98 636<456.337 773.663>
LayerCount: 2
Fore
SplineSet
98 615 m 0
 98 719 140 802 223 865 c 0
 279 907 344 929 416 929 c 0
 521 929 605 888 668 806 c 0
 712 750 734 686 734 615 c 0
 734 511 692 429 609 367 c 0
 552 325 487 303 416 303 c 0
 311 303 227 343 164 424 c 0
 120 480 98 544 98 615 c 0
EndSplineSet
EndChar

StartChar: ellipsis
Encoding: 8230 8230 254
Width: 1739
GlyphClass: 2
Flags: W
HStem: -33 328<82.546 306.98 665.546 889.98 1242.55 1466.98>
VStem: 30 328<19.546 243.98> 613 328<19.546 243.98> 1190 328<19.546 243.98>
LayerCount: 2
Fore
SplineSet
1190 131 m 0
 1190 176 1206 215 1238 247 c 0
 1270 279 1309 295 1354 295 c 0
 1399 295 1438 279 1470 247 c 0
 1502 215 1518 176 1518 131 c 0
 1518 86 1502 47 1470 15 c 0
 1438 -17 1399 -33 1354 -33 c 0
 1309 -33 1270 -16 1238 16 c 0
 1206 48 1190 86 1190 131 c 0
613 131 m 0
 613 176 629 215 661 247 c 0
 693 279 732 295 777 295 c 0
 822 295 861 279 893 247 c 0
 925 215 941 176 941 131 c 0
 941 86 925 47 893 15 c 0
 861 -17 822 -33 777 -33 c 0
 732 -33 693 -16 661 16 c 0
 629 48 613 86 613 131 c 0
30 131 m 0
 30 176 46 215 78 247 c 0
 110 279 149 295 194 295 c 0
 239 295 278 279 310 247 c 0
 342 215 358 176 358 131 c 0
 358 86 342 47 310 15 c 0
 278 -17 239 -33 194 -33 c 0
 149 -33 110 -16 78 16 c 0
 46 48 30 86 30 131 c 0
EndSplineSet
EndChar

StartChar: ordmasculine
Encoding: 186 186 256
Width: 763
Flags: W
HStem: 866 162<199.752 402.248> 1328 162<199.752 402.248>
VStem: -17 173<1072.52 1283.48> 445 173<1070.77 1285.23>
LayerCount: 2
Fore
SplineSet
156 1178 m 0
 156 1136 170 1101 198 1072 c 0
 226 1043 260 1028 301 1028 c 0
 342 1028 376 1043 404 1072 c 0
 432 1101 445 1136 445 1178 c 0
 445 1219 432 1255 404 1284 c 0
 376 1313 342 1328 301 1328 c 0
 260 1328 226 1313 198 1284 c 0
 170 1255 156 1219 156 1178 c 0
-17 1178 m 0
 -17 1265 14 1338 76 1399 c 0
 138 1460 213 1490 301 1490 c 0
 389 1490 464 1460 526 1399 c 0
 588 1338 618 1265 618 1178 c 0
 618 1091 588 1018 526 957 c 0
 464 896 389 866 301 866 c 0
 213 866 138 896 76 957 c 0
 14 1018 -17 1091 -17 1178 c 0
EndSplineSet
EndChar

StartChar: ring
Encoding: 730 730 257
Width: 718
Flags: W
HStem: 1493 117<279.865 437.035> 1825 117<279.865 437.035>
VStem: 130 125<1635.13 1799.37> 463 125<1635.13 1799.37>
LayerCount: 2
Fore
SplineSet
255 1717 m 0
 255 1687 265 1662 285 1641 c 0
 305 1620 330 1610 359 1610 c 0
 388 1610 413 1620 433 1641 c 0
 453 1662 463 1687 463 1717 c 0
 463 1747 453 1773 433 1794 c 0
 413 1815 388 1825 359 1825 c 0
 330 1825 305 1815 285 1794 c 0
 265 1773 255 1747 255 1717 c 0
130 1717 m 0
 130 1779 152 1832 197 1876 c 0
 242 1920 296 1942 359 1942 c 0
 422 1942 477 1920 521 1876 c 0
 565 1832 588 1779 588 1717 c 0
 588 1655 565 1602 521 1558 c 0
 477 1514 422 1493 359 1493 c 0
 296 1493 242 1514 197 1558 c 0
 152 1602 130 1655 130 1717 c 0
EndSplineSet
EndChar

StartChar: ogonek
Encoding: 731 731 258
Width: 528
Flags: W
HStem: -344 439
VStem: 56 227<-164.887 14.2029>
LayerCount: 2
Fore
SplineSet
414 -217 m 1
 301 -344 l 1
 286 -337 270 -328 252 -318 c 0
 234 -308 216 -298 198 -288 c 0
 180 -278 163 -266 146 -252 c 0
 129 -238 113 -225 100 -211 c 0
 87 -197 76 -181 68 -164 c 0
 60 -147 56 -130 56 -112 c 0
 56 -38 92 31 164 95 c 1
 326 5 l 1
 313 -9 303 -24 296 -38 c 0
 289 -52 285 -64 284 -72 c 0
 283 -80 283 -91 283 -106 c 0
 283 -115 288 -126 298 -137 c 0
 308 -148 319 -159 332 -168 c 0
 345 -177 359 -186 374 -195 c 0
 389 -204 403 -212 414 -217 c 1
EndSplineSet
EndChar

StartChar: Hbar
Encoding: 294 294 270
Width: 1253
Flags: W
HStem: 0 21G<115 383 868 1138> 624 240<383 868> 1074 240<44 115 383 868 1138 1209> 1436 20G<115 383 868 1138>
VStem: 115 268<0 624 864 1074 1314 1456> 868 270<0 624 864 1074 1314 1456>
LayerCount: 2
Fore
SplineSet
115 1456 m 1
 383 1456 l 1
 383 1314 l 1
 868 1314 l 1
 868 1456 l 1
 1138 1456 l 1
 1138 1314 l 1
 1209 1314 l 1
 1209 1074 l 1
 1138 1074 l 1
 1138 0 l 1
 868 0 l 1
 868 624 l 1
 383 624 l 1
 383 0 l 1
 115 0 l 1
 115 1074 l 1
 44 1074 l 1
 44 1314 l 1
 115 1314 l 1
 115 1456 l 1
868 1074 m 1
 383 1074 l 1
 383 864 l 1
 868 864 l 1
 868 1074 l 1
EndSplineSet
EndChar

StartChar: IJ
Encoding: 306 306 276
Width: 1707
Flags: W
HStem: -35 254<922.319 1209.12> 0 21<143 411> 1436 20G<143 411 1316 1584>
VStem: 143 268<0 1456> 558 241<365.869 586> 1316 268<349.142 1456>
LayerCount: 2
Fore
SplineSet
558 586 m 1xbc
 799 586 l 1
 799 539 804 494 813 453 c 0
 822 412 838 372 858 336 c 0
 878 300 906 271 943 250 c 0
 980 229 1023 219 1072 219 c 0
 1118 219 1158 229 1191 250 c 0
 1224 271 1250 300 1267 336 c 0
 1284 372 1296 410 1304 451 c 0
 1312 492 1316 537 1316 586 c 2
 1316 1456 l 1
 1584 1456 l 1
 1584 586 l 2
 1584 463 1565 355 1528 263 c 0
 1491 171 1433 98 1355 45 c 0
 1277 -8 1183 -35 1072 -35 c 0
 1002 -35 939 -25 882 -4 c 0
 825 17 776 45 736 82 c 0
 696 119 663 164 636 216 c 0
 609 268 590 324 577 386 c 0
 564 448 558 515 558 586 c 1xbc
EndSplineSet
Refer: 96 73 N 1 0 0 1 0 0 2
EndChar

StartChar: Tbar
Encoding: 358 358 286
Width: 1353
Flags: W
HStem: 0 21G<555 823> 514 240<296 555 823 1068> 1216 240<78 555 823 1280>
VStem: 555 268<0 514 754 1216>
LayerCount: 2
Fore
SplineSet
78 1456 m 1
 1280 1456 l 1
 1280 1216 l 1
 823 1216 l 1
 823 754 l 1
 1068 754 l 1
 1068 514 l 1
 823 514 l 1
 823 0 l 1
 555 0 l 1
 555 514 l 1
 296 514 l 1
 296 754 l 1
 555 754 l 1
 555 1216 l 1
 78 1216 l 1
 78 1456 l 1
EndSplineSet
EndChar

StartChar: hbar
Encoding: 295 295 305
Width: 1121
Flags: W
HStem: 0 21G<119 377 756 1014> 867 235<527.483 771.5> 1160 240<40 119 377 624> 1434 20G<119 377>
VStem: 119 258<0 778.931 912 1160 1400 1454> 756 258<0 791.583>
LayerCount: 2
Fore
SplineSet
377 0 m 1
 119 0 l 1
 119 1160 l 1
 40 1160 l 1
 40 1400 l 1
 119 1400 l 1
 119 1454 l 1
 377 1454 l 1
 377 1400 l 1
 624 1400 l 1
 624 1160 l 1
 377 1160 l 1
 377 912 l 1
 434 1016 558 1102 700 1102 c 0
 843 1102 1014 953 1014 668 c 2
 1014 0 l 1
 756 0 l 1
 756 537 l 2
 756 812 684 867 576 867 c 0
 468 867 377 810 377 536 c 2
 377 0 l 1
EndSplineSet
EndChar

StartChar: itilde
Encoding: 297 297 306
Width: 534
Flags: W
HStem: 0 21G<139 397> 1053 20G<139 397> 1196 247<292.05 505.951> 1348 247<7.11454 208.603>
VStem: -62 637 139 258<0 1073>
LayerCount: 2
Fore
SplineSet
139 1073 m 1xc4
 397 1073 l 1
 397 0 l 1
 139 0 l 1
 139 1073 l 1xc4
EndSplineSet
Refer: 251 732 S 1 0 0 1 -314 -318 2
EndChar

StartChar: imacron
Encoding: 299 299 307
Width: 534
Flags: W
HStem: 0 21G<139 397> 1053 20G<139 397> 1287 127<-119 653>
VStem: 139 258<0 1073>
LayerCount: 2
Fore
SplineSet
139 1073 m 1
 397 1073 l 1
 397 0 l 1
 139 0 l 1
 139 1073 l 1
EndSplineSet
Refer: 150 175 S 1 0 0 1 -217 -399 2
EndChar

StartChar: ibreve
Encoding: 301 301 308
Width: 534
Flags: W
HStem: 0 21G<139 397> 1053 20G<139 397> 1128 236<192.312 354.768>
VStem: 139 258<0 1073>
LayerCount: 2
Fore
SplineSet
139 1073 m 1
 397 1073 l 1
 397 0 l 1
 139 0 l 1
 139 1073 l 1
EndSplineSet
Refer: 249 728 S 1 0 0 1 -452 -388 2
EndChar

StartChar: dotlessi
Encoding: 305 305 310
Width: 534
Flags: W
HStem: 0 21G<139 397> 1053 20G<139 397>
VStem: 139 258<0 1073>
LayerCount: 2
Fore
SplineSet
139 1073 m 1
 397 1073 l 1
 397 0 l 1
 139 0 l 1
 139 1073 l 1
EndSplineSet
EndChar

StartChar: ij
Encoding: 307 307 311
Width: 929
Flags: W
HStem: -432 229<285.859 506.075> 1053 20G<534 792> 1174 320<562.733 763.267>
VStem: 516 294<1222.01 1445.99> 534 258<-171.011 1073>
LayerCount: 2
Fore
SplineSet
516 1334 m 0xf0
 516 1377 531 1414 560 1446 c 0
 589 1478 623 1494 663 1494 c 0
 703 1494 737 1478 766 1446 c 0
 795 1414 810 1377 810 1334 c 0
 810 1291 795 1254 766 1222 c 0
 737 1190 703 1174 663 1174 c 0
 623 1174 589 1190 560 1222 c 0
 531 1254 516 1291 516 1334 c 0xf0
159 -333 m 1
 328 -161 l 1
 336 -172 349 -182 366 -190 c 0
 383 -198 401 -203 418 -203 c 0
 451 -203 479 -193 501 -172 c 0
 523 -151 534 -124 534 -92 c 2
 534 1073 l 1
 792 1073 l 1
 792 -35 l 2xe8
 792 -102 773 -166 736 -228 c 0
 699 -290 652 -339 592 -376 c 0
 532 -413 470 -432 407 -432 c 0
 352 -432 306 -425 268 -412 c 0
 230 -399 194 -372 159 -333 c 1
EndSplineSet
Refer: 128 105 N 1 0 0 1 0 0 2
EndChar

StartChar: jcircumflex
Encoding: 309 309 312
Width: 534
Flags: W
HStem: -432 229<-108.716 110.778> 1053 20G<139 397> 1146 344
VStem: 139 258<-171.011 1073>
LayerCount: 2
Fore
SplineSet
-236 -333 m 1
 -67 -161 l 1
 -59 -172 -46 -182 -29 -190 c 0
 -12 -198 6 -203 23 -203 c 0
 56 -203 84 -193 106 -172 c 0
 128 -151 139 -124 139 -92 c 2
 139 1073 l 1
 397 1073 l 1
 397 -35 l 2
 397 -102 379 -166 342 -228 c 0
 305 -290 256 -339 196 -376 c 0
 136 -413 75 -432 12 -432 c 0
 -43 -432 -90 -425 -128 -412 c 0
 -166 -399 -201 -372 -236 -333 c 1
EndSplineSet
Refer: 247 710 S 1 0 0 1 -452 -416 2
EndChar

StartChar: lslash
Encoding: 322 322 316
Width: 561
Flags: W
HStem: -29 21G<428.5 490> 1054 20G<485.113 507.915> 1434 20G<139 397>
VStem: 139 258<206.201 521 977 1454>
LayerCount: 2
Fore
SplineSet
0 400 m 1
 0 630 l 1
 139 751 l 1
 139 1454 l 1
 397 1454 l 1
 397 977 l 1
 508 1074 l 1
 507 840 l 1
 397 745 l 1
 397 281 l 2
 397 223 428 194 490 194 c 1
 490 -29 l 1
 367 -29 277 -7 222 38 c 0
 167 83 139 162 139 276 c 2
 139 521 l 1
 0 400 l 1
EndSplineSet
EndChar

StartChar: eng
Encoding: 331 331 319
Width: 1121
Flags: W
HStem: -432 229<511.284 730.778> 0 21G<119 377> 867 235<525.888 718.5> 1054 20G<119 377>
VStem: 119 258<0 781.888 912 1074> 756 261<-171.011 797.24>
LayerCount: 2
Fore
SplineSet
384 -333 m 1xdc
 553 -161 l 1
 561 -172 574 -182 591 -190 c 0
 608 -198 626 -203 643 -203 c 0
 676 -203 704 -193 726 -172 c 0
 748 -151 759 -124 759 -92 c 2
 759 0 l 1
 756 0 l 1
 756 537 l 2
 756 591 754 638 748 677 c 0
 742 716 734 748 724 772 c 0
 714 796 702 816 686 830 c 0
 670 844 653 854 636 859 c 0
 619 864 599 867 576 867 c 0xec
 553 867 532 864 514 859 c 0
 496 854 478 844 460 829 c 0
 442 814 428 795 416 771 c 0
 404 747 395 716 388 676 c 0
 381 636 377 589 377 536 c 2
 377 0 l 1
 119 0 l 1
 119 1074 l 1
 377 1074 l 1xdc
 377 912 l 1
 407 967 452 1012 510 1048 c 0
 568 1084 631 1102 700 1102 c 0xec
 737 1102 774 1093 810 1074 c 0
 846 1055 879 1027 910 992 c 0
 941 957 967 912 986 855 c 0
 1005 798 1014 736 1014 668 c 2
 1017 -35 l 2
 1017 -102 999 -166 962 -228 c 0
 925 -290 876 -339 816 -376 c 0
 756 -413 695 -432 632 -432 c 0
 577 -432 530 -425 492 -412 c 0
 454 -399 419 -372 384 -333 c 1xdc
EndSplineSet
EndChar

StartChar: tbar
Encoding: 359 359 325
Width: 706
Flags: W
HStem: -15 217<484.031 621> 514 240<40 213 471 655> 844 229<72 213 471 625>
VStem: 213 258<220.047 514 754 844 1073 1323>
LayerCount: 2
Fore
SplineSet
213 844 m 1
 72 844 l 1
 72 1073 l 1
 213 1073 l 1
 213 1323 l 1
 471 1323 l 1
 471 1073 l 1
 625 1073 l 1
 625 844 l 1
 471 844 l 1
 471 754 l 1
 655 754 l 1
 655 514 l 1
 471 514 l 1
 471 297 l 2
 471 212 537 202 582 202 c 2
 621 202 l 1
 621 -15 l 1
 582 -15 l 2
 296 -15 213 85 213 293 c 2
 213 514 l 1
 40 514 l 1
 40 754 l 1
 213 754 l 1
 213 844 l 1
EndSplineSet
EndChar

StartChar: Eng
Encoding: 330 330 334
Width: 1344
Flags: W
HStem: 0 229<715.859 936.075> 1248 235<657.475 923.5> 1435 20G<119 377> 1435 20G<119 377>
VStem: 119 258<0 1055.6 1293 1455> 961 261<260.989 1176.53>
LayerCount: 2
Fore
SplineSet
589 99 m 1xcc
 758 271 l 1
 766 260 779 250 796 242 c 0
 813 234 831 229 848 229 c 0
 881 229 909 239 931 260 c 0
 953 281 964 308 964 340 c 2
 964 432 l 1
 961 432 l 1
 961 918 l 2
 961 972 958 1019 952 1058 c 0
 946 1097 939 1129 929 1153 c 0
 919 1177 906 1196 890 1210 c 0
 874 1224 859 1235 842 1240 c 0
 825 1245 804 1248 781 1248 c 0xcc
 696 1248 624 1233 564 1202 c 0
 507 1172 448 1123 388 1056 c 0
 381 1048 377 1002 377 917 c 2
 377 0 l 1
 119 0 l 1
 119 1455 l 1
 377 1455 l 1xac
 377 1293 l 1
 508 1367 596 1413 639 1431 c 0
 722 1466 811 1483 905 1483 c 0
 942 1483 978 1473 1014 1454 c 0
 1050 1435 1085 1409 1116 1374 c 0
 1147 1339 1171 1293 1190 1236 c 0
 1209 1181 1219 1118 1219 1049 c 2
 1222 397 l 2
 1222 331 1203 266 1166 204 c 0
 1129 142 1082 93 1022 56 c 0
 962 19 900 0 837 0 c 0
 782 0 736 7 698 20 c 0
 660 33 624 60 589 99 c 1xcc
EndSplineSet
EndChar

StartChar: kgreenlandic
Encoding: 312 312 335
Width: 1029
Flags: W
HStem: 0 20G<23 291 665.966 1021> 1054 19G<23 291 671.05 1026>
VStem: 23 268<-1 414 672 1074>
LayerCount: 2
Fore
SplineSet
291 414 m 1
 291 -1 l 1
 23 -1 l 1
 23 1074 l 1
 291 1074 l 1
 291 672 l 1
 691 1073 l 1
 1026 1073 l 1
 519 549 l 1
 1021 0 l 1
 685 0 l 1
 291 414 l 1
EndSplineSet
EndChar

StartChar: twosuperior
Encoding: 178 178 336
Width: 728
Flags: W
HStem: 885 160<282 597> 1511 160<266.895 391.717>
VStem: 406 171<1331.84 1496.87>
LayerCount: 2
Fore
SplineSet
239 1418 m 1
 83 1465 l 1
 87 1482 l 2
 98 1535 127 1581 175 1617 c 0
 223 1653 275 1671 330 1671 c 0
 353 1671 374 1668 396 1664 c 0
 418 1660 440 1652 462 1640 c 0
 484 1628 504 1613 521 1595 c 0
 538 1577 552 1553 562 1524 c 0
 572 1495 577 1462 577 1426 c 0
 577 1383 571 1346 558 1316 c 0
 545 1286 522 1254 490 1222 c 0
 474 1206 459 1193 445 1183 c 2
 375 1130 l 2
 342 1105 320 1087 308 1074 c 0
 296 1061 287 1051 282 1045 c 1
 597 1045 l 1
 597 885 l 1
 72 885 l 1
 72 905 l 2
 72 934 74 960 77 982 c 0
 80 1004 85 1027 93 1051 c 0
 101 1075 111 1098 126 1120 c 0
 141 1142 159 1164 181 1186 c 0
 194 1199 212 1214 232 1230 c 0
 252 1246 269 1259 285 1270 c 0
 301 1281 317 1293 333 1306 c 0
 349 1319 362 1332 372 1343 c 0
 382 1354 391 1367 397 1381 c 0
 403 1395 406 1411 406 1426 c 0
 406 1455 399 1476 385 1490 c 0
 371 1504 353 1511 330 1511 c 0
 308 1511 289 1505 276 1494 c 0
 263 1483 253 1463 245 1437 c 2
 239 1418 l 1
EndSplineSet
EndChar

StartChar: onesuperior
Encoding: 185 185 337
Width: 502
Flags: W
VStem: 216 174<885 1488>
LayerCount: 2
Fore
SplineSet
216 1488 m 1
 49 1488 l 1
 230 1653 l 1
 390 1653 l 1
 390 885 l 1
 216 885 l 1
 216 1488 l 1
EndSplineSet
EndChar

StartChar: onequarter
Encoding: 188 188 338
Width: 1250
Flags: W
HStem: -54 160<855 962 1136 1205>
VStem: 198 174<885 1488> 962 174<-228 -54 106 277>
LayerCount: 2
Fore
SplineSet
1136 104 m 1
 1205 104 l 1
 1205 -54 l 1
 1136 -54 l 1
 1136 -228 l 1
 962 -228 l 1
 962 -54 l 1
 669 -54 l 1
 669 74 l 1
 960 540 l 1
 1136 540 l 1
 1136 104 l 1
966 277 m 1
 855 106 l 1
 966 106 l 1
 966 277 l 1
198 1488 m 1
 31 1488 l 1
 212 1653 l 1
 372 1653 l 1
 372 885 l 1
 198 885 l 1
 198 1488 l 1
260 -144 m 1
 50 -144 l 1
 999 1596 l 1
 1200 1596 l 1
 260 -144 l 1
EndSplineSet
LCarets2: 2 0 0 
EndChar

StartChar: onehalf
Encoding: 189 189 339
Width: 1250
Flags: W
HStem: -228 160<893 1208> 398 160<877.895 1002.72>
VStem: 198 174<885 1488> 1017 171<218.801 383.81>
LayerCount: 2
Fore
SplineSet
198 1488 m 1
 31 1488 l 1
 212 1653 l 1
 372 1653 l 1
 372 885 l 1
 198 885 l 1
 198 1488 l 1
850 305 m 1
 694 352 l 1
 698 369 l 2
 709 422 738 468 786 504 c 0
 834 540 886 558 941 558 c 0
 964 558 985 555 1007 551 c 0
 1029 547 1051 539 1073 527 c 0
 1095 515 1115 500 1132 482 c 0
 1149 464 1162 440 1172 411 c 0
 1182 382 1188 348 1188 312 c 0
 1188 269 1182 233 1169 203 c 0
 1156 173 1133 141 1101 109 c 0
 1085 93 1070 80 1056 70 c 2
 986 17 l 2
 953 -8 931 -26 919 -39 c 0
 907 -52 898 -62 893 -68 c 1
 1208 -68 l 1
 1208 -228 l 1
 684 -228 l 1
 684 -208 l 2
 684 -179 685 -153 688 -131 c 0
 691 -109 696 -86 704 -62 c 0
 712 -38 722 -15 737 7 c 0
 752 29 770 51 792 73 c 0
 805 86 823 101 843 117 c 0
 863 133 880 146 896 157 c 0
 912 168 928 180 944 193 c 0
 960 206 973 219 983 230 c 0
 993 241 1002 254 1008 268 c 0
 1014 282 1017 297 1017 312 c 0
 1017 341 1010 363 996 377 c 0
 982 391 964 398 941 398 c 0
 919 398 900 392 887 381 c 0
 874 370 864 350 856 324 c 2
 850 305 l 1
260 -144 m 1
 50 -144 l 1
 999 1596 l 1
 1200 1596 l 1
 260 -144 l 1
EndSplineSet
LCarets2: 2 0 0 
EndChar

StartChar: threequarters
Encoding: 190 190 340
Width: 1314
Flags: W
HStem: -54 160<927 1034 1208 1277> 885 161<220.909 385.276> 1224 146<206 361.007> 1466 21G<145.721 228> 1526 158<186.378 355.401>
VStem: 369 166<1378.04 1511.94> 404 174<1064.94 1209.22> 1034 174<-228 -54 106 277>
LayerCount: 2
Fore
SplineSet
29 1094 m 1xfb
 196 1139 l 1
 203 1123 l 2
 214 1096 229 1076 248 1064 c 0
 267 1052 287 1046 308 1046 c 0
 337 1046 360 1054 378 1071 c 0
 396 1088 404 1109 404 1134 c 0xfb
 404 1159 394 1179 375 1197 c 0
 356 1215 333 1224 308 1224 c 2
 206 1224 l 1
 206 1370 l 1
 296 1370 l 2
 315 1370 332 1379 347 1395 c 0
 362 1411 369 1428 369 1446 c 0
 369 1472 362 1492 348 1505 c 0
 334 1518 316 1526 294 1526 c 0
 279 1526 265 1522 253 1513 c 0
 241 1504 233 1494 228 1482 c 2
 222 1466 l 1
 58 1509 l 1
 66 1530 l 2
 105 1633 181 1684 293 1684 c 0
 325 1684 354 1680 382 1672 c 0
 410 1664 435 1652 459 1635 c 0
 483 1618 500 1595 514 1566 c 0
 528 1537 535 1504 535 1467 c 0xfd
 535 1412 516 1366 476 1330 c 1
 484 1324 492 1317 502 1308 c 0
 512 1299 524 1286 537 1269 c 0
 550 1252 561 1232 568 1209 c 0
 575 1186 578 1161 578 1134 c 0
 578 1101 572 1068 558 1038 c 0
 544 1008 526 982 502 959 c 0
 478 936 450 918 416 905 c 0
 382 892 346 885 308 885 c 0
 268 885 231 892 197 904 c 0
 163 916 132 937 103 966 c 0
 74 995 53 1031 37 1074 c 2
 29 1094 l 1xfb
1208 104 m 1
 1277 104 l 1
 1277 -54 l 1
 1208 -54 l 1
 1208 -228 l 1
 1034 -228 l 1
 1034 -54 l 1
 741 -54 l 1
 741 74 l 1
 1032 540 l 1
 1208 540 l 1
 1208 104 l 1
1038 277 m 1
 927 106 l 1
 1038 106 l 1
 1038 277 l 1
332 -144 m 1
 122 -144 l 1
 1071 1596 l 1
 1272 1596 l 1
 332 -144 l 1
EndSplineSet
LCarets2: 2 0 0 
EndChar

StartChar: threesuperior
Encoding: 179 179 341
Width: 667
Flags: W
HStem: 885 161<239.909 404.276> 1224 146<224 380.007> 1466 21G<164.721 247> 1526 158<205.378 374.4>
VStem: 388 166<1377.83 1511.94> 424 174<1064.94 1208.37>
LayerCount: 2
Fore
SplineSet
48 1094 m 1xf4
 215 1139 l 1
 222 1123 l 2
 233 1096 248 1076 267 1064 c 0
 286 1052 306 1046 327 1046 c 0
 356 1046 379 1054 397 1071 c 0
 415 1088 424 1109 424 1134 c 0xf4
 424 1159 413 1179 394 1197 c 0
 375 1215 352 1224 327 1224 c 2
 224 1224 l 1
 224 1370 l 1
 316 1370 l 2
 335 1370 351 1379 366 1395 c 0
 381 1411 388 1428 388 1446 c 0
 388 1472 381 1492 367 1505 c 0
 353 1518 334 1526 312 1526 c 0
 297 1526 284 1522 272 1513 c 0
 260 1504 252 1494 247 1482 c 2
 241 1466 l 1
 77 1509 l 1
 85 1530 l 2
 124 1633 200 1684 312 1684 c 0
 344 1684 373 1680 401 1672 c 0
 429 1664 454 1652 478 1635 c 0
 502 1618 519 1595 533 1566 c 0
 547 1537 554 1504 554 1467 c 0xf8
 554 1412 535 1366 495 1330 c 1
 503 1324 511 1317 521 1308 c 0
 531 1299 543 1286 556 1269 c 0
 569 1252 580 1232 587 1209 c 0
 594 1186 598 1161 598 1134 c 0
 598 1101 591 1068 577 1038 c 0
 563 1008 545 982 521 959 c 0
 497 936 469 918 435 905 c 0
 401 892 365 885 327 885 c 0
 287 885 250 892 216 904 c 0
 182 916 151 937 122 966 c 0
 93 995 72 1031 56 1074 c 2
 48 1094 l 1xf4
EndSplineSet
EndChar

StartChar: ordfeminine
Encoding: 170 170 342
Width: 584
Flags: W
HStem: 1060 160<212.715 337.647> 1336 158<213.224 335.177> 1490 21G<115.395 175.619> 1522 152<104.404 335.478>
VStem: 30 171<1231.6 1323.89> 346 178<1074 1095 1237.52 1317.44>
LayerCount: 2
Fore
SplineSet
277 1336 m 0xdc
 254 1336 236 1330 222 1318 c 0
 208 1306 201 1292 201 1277 c 0
 201 1262 208 1249 222 1237 c 0
 236 1225 255 1220 278 1220 c 0
 301 1220 318 1226 330 1237 c 0
 342 1248 348 1262 348 1277 c 0
 348 1293 342 1306 330 1318 c 0
 318 1330 300 1336 277 1336 c 0xdc
346 1095 m 1
 343 1093 340 1091 337 1089 c 0
 308 1069 275 1060 237 1060 c 0
 179 1060 130 1081 90 1123 c 0
 50 1165 30 1216 30 1278 c 0
 30 1340 49 1391 89 1432 c 0
 129 1473 178 1494 235 1494 c 0xdc
 273 1494 307 1485 336 1465 c 2
 341 1462 l 1
 340 1465 339 1468 338 1471 c 0
 334 1482 329 1491 323 1497 c 0
 317 1503 310 1508 301 1512 c 0
 291 1516 282 1519 274 1520 c 0
 265 1521 256 1522 246 1522 c 0
 232 1522 219 1521 206 1518 c 0
 193 1515 184 1513 178 1511 c 2
 128 1490 l 1xbc
 53 1609 l 1
 71 1623 l 2
 89 1637 115 1648 150 1659 c 0
 185 1669 217 1674 246 1674 c 0
 275 1674 302 1673 328 1667 c 0
 354 1661 380 1652 404 1638 c 0
 429 1624 449 1607 467 1586 c 0
 485 1565 499 1538 509 1507 c 0
 519 1476 524 1442 524 1404 c 2
 524 1074 l 1
 346 1074 l 1
 346 1095 l 1
EndSplineSet
EndChar

StartChar: florin
Encoding: 402 402 343
Width: 1282
Flags: W
HStem: 862 212<816 928> 1072 20G<392.744 556> 1088 21G<1210 1216.34> 1232 204<870.422 1140.63>
LayerCount: 2
Fore
SplineSet
744 862 m 1xb0
 304 -336 l 1
 28 -336 l 1
 476 874 l 1
 322 877 l 1
 400 1092 l 1x50
 556 1088 l 1
 600 1219 l 2
 610 1249 631 1280 663 1312 c 0
 694 1342 729 1368 769 1390 c 0
 812 1413 856 1427 903 1431 c 0
 938 1434 968 1436 993 1436 c 0
 1025 1436 1049 1433 1064 1428 c 0
 1150 1397 1202 1362 1220 1324 c 1
 1216 1088 l 1
 1204 1130 1175 1166 1128 1196 c 0
 1102 1213 1052 1225 980 1232 c 0
 978 1232 977 1232 975 1232 c 0
 956 1232 926 1223 890 1205 c 0
 876 1198 863 1180 850 1150 c 2
 816 1074 l 1
 1006 1074 l 1
 928 859 l 1
 744 862 l 1xb0
EndSplineSet
EndChar

StartChar: fraction
Encoding: 8260 8260 344
Width: 320
Flags: W
LayerCount: 2
Fore
SplineSet
-259 -144 m 1
 -469 -144 l 1
 480 1596 l 1
 681 1596 l 1
 -259 -144 l 1
EndSplineSet
EndChar

StartChar: perthousand
Encoding: 8240 8240 345
Width: 2134
VWidth: 2050
Flags: W
HStem: 64 207<954.303 1104.82 1651.51 1801.82> 480 205<958.309 1080.88 1655.31 1777.88> 769 207<321.176 472.287> 1185 205<326.692 447.608>
VStem: 94 216<986.912 1172.8> 484 219<984.883 1171.19> 726 215<281.626 467.801> 1115 217<279.747 466.7> 1423 215<281.626 467.801> 1812 218<279.747 466.7>
LayerCount: 2
Fore
SplineSet
941 371 m 0
 941 318 963 285 1007 273 c 0
 1014 272 1021 271 1029 271 c 0
 1077 271 1105 295 1113 344 c 0
 1114 352 1115 361 1115 371 c 0
 1115 419 1098 453 1062 472 c 0
 1051 477 1039 480 1027 480 c 0
 991 480 965 459 949 418 c 0
 944 403 941 387 941 371 c 0
726 371 m 0
 726 476 766 560 847 623 c 0
 902 664 962 685 1029 685 c 0
 1129 685 1209 644 1271 562 c 0
 1312 506 1332 442 1332 371 c 0
 1332 267 1293 185 1212 125 c 0
 1157 84 1096 64 1029 64 c 0
 926 64 845 105 785 187 c 0
 745 240 726 301 726 371 c 0
310 1076 m 0
 310 1023 331 990 375 978 c 0
 382 977 390 976 398 976 c 0
 446 976 474 1001 482 1050 c 0
 483 1058 484 1066 484 1076 c 0
 484 1124 466 1158 430 1177 c 0
 419 1182 408 1185 396 1185 c 0
 360 1185 334 1164 318 1123 c 0
 313 1108 310 1092 310 1076 c 0
94 1076 m 0
 94 1181 134 1265 215 1328 c 0
 268 1369 330 1390 398 1390 c 0
 499 1390 580 1349 642 1267 c 0
 683 1211 703 1147 703 1076 c 0
 703 972 662 890 580 830 c 1
 527 789 466 769 398 769 c 0
 296 769 214 810 154 892 c 0
 114 947 94 1008 94 1076 c 0
486 119 m 1
 275 121 l 1
 947 1341 l 1
 1148 1339 l 1
 486 119 l 1
1638 371 m 0
 1638 318 1660 285 1704 273 c 0
 1711 272 1718 271 1726 271 c 0
 1774 271 1802 295 1810 344 c 0
 1811 352 1812 361 1812 371 c 0
 1812 419 1795 453 1759 472 c 0
 1748 477 1736 480 1724 480 c 0
 1688 480 1662 459 1646 418 c 0
 1641 403 1638 387 1638 371 c 0
1423 371 m 0
 1423 476 1463 560 1544 623 c 0
 1599 664 1659 685 1726 685 c 0
 1826 685 1906 644 1968 562 c 0
 2009 506 2030 442 2030 371 c 0
 2030 267 1990 185 1909 125 c 0
 1854 84 1793 64 1726 64 c 0
 1624 64 1542 105 1482 187 c 0
 1442 240 1423 301 1423 371 c 0
EndSplineSet
EndChar

StartChar: dagger
Encoding: 8224 8224 346
Width: 864
Flags: W
HStem: 0 21G<310 553> 832 240<46 310 553 818> 1434 20G<310 553>
VStem: 310 243<0 832 1072 1454>
LayerCount: 2
Fore
SplineSet
553 1072 m 1
 818 1072 l 1
 818 832 l 1
 553 832 l 1
 553 0 l 1
 310 0 l 1
 310 832 l 1
 46 832 l 1
 46 1072 l 1
 310 1072 l 1
 310 1454 l 1
 553 1454 l 1
 553 1072 l 1
EndSplineSet
EndChar

StartChar: daggerdbl
Encoding: 8225 8225 347
Width: 864
Flags: W
HStem: 0 21G<310 553> 284 240<46 310 553 818> 1072 240<46 310 553 818> 1434 20G<310 553>
VStem: 310 243<0 284 524 1072 1312 1454>
LayerCount: 2
Fore
SplineSet
553 1312 m 1
 818 1312 l 1
 818 1072 l 1
 553 1072 l 1
 553 524 l 1
 818 524 l 1
 818 284 l 1
 553 284 l 1
 553 0 l 1
 310 0 l 1
 310 284 l 1
 46 284 l 1
 46 524 l 1
 310 524 l 1
 310 1072 l 1
 46 1072 l 1
 46 1312 l 1
 310 1312 l 1
 310 1454 l 1
 553 1454 l 1
 553 1312 l 1
EndSplineSet
EndChar

StartChar: guilsinglleft
Encoding: 8249 8249 348
Width: 559
VWidth: 2050
Flags: W
HStem: 324 584<240 266>
VStem: 51 408
LayerCount: 2
Fore
SplineSet
240 908 m 1
 459 906 l 1
 266 615 l 1
 455 324 l 1
 240 324 l 1
 51 615 l 1
 240 908 l 1
EndSplineSet
EndChar

StartChar: guilsinglright
Encoding: 8250 8250 349
Width: 635
VWidth: 2050
Flags: W
HStem: 324 582<105 127>
VStem: 127 408
LayerCount: 2
Fore
SplineSet
535 615 m 1
 342 324 l 1
 127 324 l 1
 320 615 l 1
 127 906 l 1
 342 908 l 1
 535 615 l 1
EndSplineSet
EndChar

StartChar: lessequal
Encoding: 8804 8804 350
Width: 983
Flags: W
HStem: 192 240<131 903>
LayerCount: 2
Fore
SplineSet
592 1351 m 1
 867 1352 l 1
 398 924 l 1
 864 520 l 1
 592 520 l 1
 124 924 l 1
 592 1351 l 1
EndSplineSet
Refer: 13 45 N 1 0 0 1 33 -322 2
EndChar

StartChar: greaterequal
Encoding: 8805 8805 351
Width: 983
Flags: W
HStem: 192 240<124 896>
LayerCount: 2
Fore
SplineSet
896 432 m 1
 896 192 l 1
 124 192 l 1
 124 432 l 1
 896 432 l 1
435 1351 m 1
 903 924 l 1
 435 520 l 1
 163 520 l 1
 629 924 l 1
 160 1352 l 1
 435 1351 l 1
EndSplineSet
EndChar

StartChar: partialdiff
Encoding: 8706 8706 352
Width: 1122
Flags: W
HStem: -29 235<408.385 670.278> 866 234<408.707 672.065>
VStem: 66 252<309.237 762.408> 762 248<310.592 761.764>
LayerCount: 2
Fore
SplineSet
318 537 m 0
 318 316 392 206 540 206 c 0
 688 206 762 316 762 537 c 0
 762 756 688 866 540 866 c 0
 392 866 318 756 318 537 c 0
66 537 m 0
 66 710 107 847 190 948 c 0
 273 1049 389 1100 539 1100 c 0
 592 1100 641 1094 686 1081 c 1
 622 1171 523 1294 390 1449 c 1
 726 1452 l 1
 915 1175 1010 877 1010 557 c 0
 1010 550 1010 544 1010 537 c 0
 1010 500 1008 464 1004 430 c 1
 996 345 978 274 951 217 c 1
 946 210 941 204 936 197 c 1
 921 171 905 147 887 124 c 0
 805 22 689 -29 539 -29 c 0
 388 -29 272 21 190 122 c 0
 108 223 66 361 66 537 c 0
EndSplineSet
EndChar

StartChar: integral
Encoding: 8747 8747 353
Width: 1022
Flags: W
HStem: -421 229<178.783 368.814> 1260 229<653.186 843.217>
VStem: 382 258<-170.338 1238.34>
LayerCount: 2
Fore
SplineSet
640 1073 m 1
 640 -85 l 2
 640 -118 631 -155 613 -194 c 0
 595 -233 570 -269 540 -303 c 0
 510 -337 472 -366 428 -388 c 0
 384 -410 337 -421 290 -421 c 0
 199 -421 125 -391 64 -332 c 1
 212 -153 l 1
 223 -166 237 -175 255 -182 c 0
 273 -189 287 -192 300 -192 c 0
 329 -192 350 -185 363 -171 c 0
 376 -157 382 -135 382 -105 c 2
 382 1073 l 1
 382 1153 l 2
 382 1186 391 1223 409 1262 c 0
 427 1301 452 1337 482 1371 c 0
 512 1405 550 1434 594 1456 c 0
 638 1478 685 1489 732 1489 c 0
 823 1489 897 1459 958 1400 c 1
 810 1221 l 1
 799 1234 785 1243 767 1250 c 0
 749 1257 735 1260 722 1260 c 0
 693 1260 672 1253 659 1239 c 0
 646 1225 640 1203 640 1173 c 2
 640 1073 l 1
EndSplineSet
EndChar

StartChar: summation
Encoding: 8721 8721 354
Width: 1548
Flags: W
HStem: 0 262<338 1152> 1163 262<328 1152>
LayerCount: 2
Fore
SplineSet
1152 0 m 1
 50 0 l 1
 50 360 l 1
 383 709 l 1
 50 1066 l 1
 50 1425 l 1
 1152 1425 l 1
 1152 1163 l 1
 328 1163 l 1
 750 708 l 1
 338 262 l 1
 1152 262 l 1
 1152 0 l 1
EndSplineSet
EndChar

StartChar: product
Encoding: 8719 8719 355
Width: 1253
Flags: W
HStem: 0 21G<115 383 868 1137> 1216 240<383 868>
VStem: 115 268<0 1216> 868 269<0 1216>
LayerCount: 2
Fore
SplineSet
115 1456 m 1
 1137 1456 l 1
 1137 0 l 1
 868 0 l 1
 868 1216 l 1
 383 1216 l 1
 383 0 l 1
 115 0 l 1
 115 1456 l 1
EndSplineSet
EndChar

StartChar: pi
Encoding: 960 960 356
Width: 1121
Flags: W
HStem: 1 21G<120 378 756 1014> 834 240<47 120 378 756 1014 1074>
VStem: 120 258<1 834> 756 258<1 834>
LayerCount: 2
Fore
SplineSet
756 834 m 1
 378 834 l 1
 378 1 l 1
 120 1 l 1
 120 834 l 1
 47 834 l 1
 47 1074 l 1
 1074 1074 l 1
 1074 834 l 1
 1014 834 l 1
 1014 1 l 1
 756 1 l 1
 756 834 l 1
EndSplineSet
EndChar

StartChar: infinity
Encoding: 8734 8734 357
Width: 2149
Flags: W
HStem: -1 252<400.354 853.763 1295.43 1747.76> 695 248<400.161 852.956 1292.12 1749.82>
VStem: 63 234<341.707 603.278> 957 235<342.735 603.891> 1851 235<342.385 604.278>
LayerCount: 2
Fore
SplineSet
626 -1 m 0
 453 -1 315 40 214 123 c 0
 113 206 63 322 63 472 c 0
 63 622 113 738 214 820 c 0
 315 902 452 943 626 943 c 0
 800 943 938 902 1040 820 c 0
 1052 810 1062 800 1073 789 c 1
 1084 800 1096 811 1108 821 c 0
 1209 903 1346 944 1520 944 c 0
 1694 944 1832 903 1934 821 c 0
 2036 739 2086 623 2086 473 c 0
 2086 322 2036 206 1935 124 c 0
 1834 42 1696 0 1520 0 c 0
 1347 0 1209 41 1108 124 c 0
 1096 134 1085 144 1075 154 c 1
 1064 143 1053 132 1041 122 c 0
 940 40 802 -1 626 -1 c 0
1520 252 m 0
 1741 252 1851 326 1851 474 c 0
 1851 622 1741 696 1520 696 c 0
 1310 696 1201 628 1192 493 c 1
 1192 486 1192 479 1192 472 c 0
 1192 466 1192 459 1192 453 c 0
 1202 319 1311 252 1520 252 c 0
957 473 m 0
 957 621 847 695 626 695 c 0
 407 695 297 621 297 473 c 0
 297 325 407 251 626 251 c 0
 847 251 957 325 957 473 c 0
EndSplineSet
EndChar

StartChar: Omega
Encoding: 937 937 358
Width: 1409
Flags: W
HStem: 0 229<31 243 776 866.559 1187 1378> 1249 240<557.595 873.17>
VStem: 100 283<454.858 1030.53> 1047 282<443.074 1028.37>
LayerCount: 2
Fore
SplineSet
633 229 m 1
 633 0 l 1
 31 0 l 1
 31 229 l 1
 243 229 l 1
 223 261 204 295 188 331 c 0
 157 400 134 470 120 541 c 0
 106 612 100 683 100 754 c 0
 100 821 107 888 120 954 c 0
 133 1020 156 1085 187 1150 c 0
 218 1215 257 1272 303 1322 c 0
 349 1372 407 1412 478 1443 c 0
 549 1474 628 1489 715 1489 c 0
 802 1489 881 1474 952 1443 c 0
 1023 1412 1081 1372 1127 1323 c 0
 1173 1274 1211 1216 1242 1151 c 0
 1273 1086 1296 1020 1309 954 c 0
 1322 888 1329 821 1329 754 c 0
 1329 683 1322 612 1309 542 c 0
 1296 472 1273 402 1242 332 c 0
 1226 296 1207 261 1187 229 c 1
 1378 229 l 1
 1378 0 l 1
 776 0 l 1
 776 229 l 1
 817 240 862 267 912 309 c 0
 960 350 991 397 1006 450 c 0
 1021 503 1032 553 1038 602 c 0
 1044 651 1047 702 1047 754 c 0
 1047 815 1041 873 1030 928 c 0
 1019 983 1002 1036 978 1086 c 0
 954 1136 919 1174 874 1204 c 0
 829 1234 776 1249 715 1249 c 0
 666 1249 621 1239 582 1219 c 0
 543 1199 512 1172 488 1140 c 0
 464 1108 442 1070 426 1026 c 0
 410 982 398 938 392 893 c 0
 386 848 383 802 383 754 c 0
 383 702 386 651 393 602 c 0
 400 553 411 505 427 457 c 0
 443 409 472 365 513 324 c 0
 554 283 594 251 633 229 c 1
EndSplineSet
EndChar

StartChar: notequal
Encoding: 8800 8800 359
Width: 907
Flags: W
HStem: 309 240<55 183 521 856> 676 239<55 385 720 856> 1054 20G<593.931 806>
LayerCount: 2
Fore
SplineSet
288 119 m 1
 78 119 l 1
 183 309 l 1
 55 309 l 1
 55 549 l 1
 315 549 l 1
 385 676 l 1
 55 676 l 1
 55 915 l 1
 517 915 l 1
 605 1074 l 1
 806 1074 l 1
 720 915 l 1
 856 915 l 1
 856 676 l 1
 590 676 l 1
 521 549 l 1
 856 549 l 1
 856 309 l 1
 391 309 l 1
 288 119 l 1
EndSplineSet
EndChar

StartChar: approxequal
Encoding: 8776 8776 360
Width: 759
Flags: W
HStem: 92 247<407.897 621.34> 244 247<122.902 323.307> 512 247<407.897 621.34> 664 247<122.902 323.307>
VStem: 53 637
LayerCount: 2
Fore
SplineSet
53 388 m 1x48
 57 391 66 399 80 412 c 0
 94 425 107 434 116 441 c 0
 125 448 136 455 150 464 c 0
 164 473 178 480 192 484 c 0
 206 488 221 491 236 491 c 0x48
 254 491 273 486 292 476 c 0
 311 466 329 453 346 438 c 0
 372 416 372 414 398 392 c 0
 415 377 433 364 453 354 c 0
 473 344 493 339 512 339 c 0
 533 339 556 346 582 360 c 0
 608 374 627 387 638 397 c 0
 649 407 666 423 690 446 c 1
 690 186 l 1
 687 183 677 174 660 160 c 0
 643 146 629 136 618 128 c 0
 607 120 591 112 571 104 c 0
 551 96 531 92 512 92 c 0x88
 486 92 460 100 432 116 c 0
 404 132 380 149 360 168 c 0
 340 187 318 204 295 220 c 0
 272 236 251 244 233 244 c 0
 215 244 197 241 180 234 c 0
 163 227 148 221 138 214 c 0
 128 207 114 195 95 180 c 0
 76 165 62 154 53 147 c 1
 53 388 l 1x48
53 808 m 1
 57 811 66 819 80 832 c 0
 94 845 107 854 116 861 c 0
 125 868 136 875 150 884 c 0
 164 893 178 900 192 904 c 0
 206 908 221 911 236 911 c 0x18
 254 911 273 906 292 896 c 0
 311 886 329 873 346 858 c 0
 372 836 372 834 398 812 c 0
 415 797 433 784 453 774 c 0
 473 764 493 759 512 759 c 0
 533 759 556 766 582 780 c 0
 608 794 627 807 638 817 c 0
 649 827 666 843 690 866 c 1
 690 606 l 1
 687 603 677 594 660 580 c 0
 643 566 629 556 618 548 c 0
 607 540 591 532 571 524 c 0
 551 516 531 512 512 512 c 0x28
 486 512 460 520 432 536 c 0
 404 552 380 569 360 588 c 0
 340 607 318 624 295 640 c 0
 272 656 251 664 233 664 c 0x18
 215 664 197 661 180 654 c 0
 163 647 148 641 138 634 c 0
 128 627 114 615 95 600 c 0
 76 585 62 574 53 567 c 1
 53 808 l 1
EndSplineSet
EndChar

StartChar: Delta
Encoding: 916 916 361
Width: 1548
Flags: W
HStem: 0 240<507 1049> 1436 20G<633.679 918.266>
LayerCount: 2
Fore
SplineSet
108 0 m 1
 641 1456 l 1
 911 1456 l 1
 1440 0 l 1
 108 0 l 1
507 240 m 1
 1049 240 l 1
 775 1032 l 1
 507 240 l 1
EndSplineSet
EndChar

StartChar: radical
Encoding: 8730 8730 362
Width: 1302
Flags: W
HStem: 0 21G<490.852 819.492> 514 240<0 339>
LayerCount: 2
Fore
SplineSet
1066 1930 m 1
 1344 1930 l 1
 814 0 l 1
 497 0 l 1
 339 514 l 1
 0 514 l 1
 0 754 l 1
 555 753 l 1
 654 411 l 1
 1066 1930 l 1
EndSplineSet
EndChar

StartChar: minus
Encoding: 8722 8722 363
Width: 782
Flags: W
HStem: 518 240<74 636>
VStem: 74 562<518 758>
LayerCount: 2
Fore
SplineSet
74 758 m 1
 636 758 l 1
 636 518 l 1
 74 518 l 1
 74 758 l 1
EndSplineSet
EndChar

StartChar: j.dotless
Encoding: 63166 63166 364
Width: 534
Flags: W
HStem: -432 229<-108.716 110.778> 1053 20G<139 397>
VStem: 139 258<-171.011 1073>
LayerCount: 2
Fore
SplineSet
-236 -333 m 1
 -67 -161 l 1
 -59 -172 -46 -182 -29 -190 c 0
 -12 -198 6 -203 23 -203 c 0
 56 -203 84 -193 106 -172 c 0
 128 -151 139 -124 139 -92 c 2
 139 1073 l 1
 397 1073 l 1
 397 -35 l 2
 397 -102 379 -166 342 -228 c 0
 305 -290 256 -339 196 -376 c 0
 136 -413 75 -432 12 -432 c 0
 -43 -432 -90 -425 -128 -412 c 0
 -166 -399 -201 -372 -236 -333 c 1
EndSplineSet
EndChar

StartChar: uni2206
Encoding: 8710 8710 365
Width: 1548
Flags: W
HStem: 0 240<507 1049> 1436 20G<633.679 918.266>
LayerCount: 2
Fore
SplineSet
108 0 m 1
 641 1456 l 1
 911 1456 l 1
 1440 0 l 1
 108 0 l 1
507 240 m 1
 1049 240 l 1
 775 1032 l 1
 507 240 l 1
EndSplineSet
EndChar

StartChar: uni2126
Encoding: 8486 8486 366
Width: 1409
Flags: W
HStem: 0 229<31 243 776 866.559 1187 1378> 1249 240<557.595 873.17>
VStem: 100 283<454.858 1030.53> 1047 282<443.074 1028.37>
LayerCount: 2
Fore
SplineSet
633 229 m 1
 633 0 l 1
 31 0 l 1
 31 229 l 1
 243 229 l 1
 223 261 204 295 188 331 c 0
 157 400 134 470 120 541 c 0
 106 612 100 683 100 754 c 0
 100 821 107 888 120 954 c 0
 133 1020 156 1085 187 1150 c 0
 218 1215 257 1272 303 1322 c 0
 349 1372 407 1412 478 1443 c 0
 549 1474 628 1489 715 1489 c 0
 802 1489 881 1474 952 1443 c 0
 1023 1412 1081 1372 1127 1323 c 0
 1173 1274 1211 1216 1242 1151 c 0
 1273 1086 1296 1020 1309 954 c 0
 1322 888 1329 821 1329 754 c 0
 1329 683 1322 612 1309 542 c 0
 1296 472 1273 402 1242 332 c 0
 1226 296 1207 261 1187 229 c 1
 1378 229 l 1
 1378 0 l 1
 776 0 l 1
 776 229 l 1
 817 240 862 267 912 309 c 0
 960 350 991 397 1006 450 c 0
 1021 503 1032 553 1038 602 c 0
 1044 651 1047 702 1047 754 c 0
 1047 815 1041 873 1030 928 c 0
 1019 983 1002 1036 978 1086 c 0
 954 1136 919 1174 874 1204 c 0
 829 1234 776 1249 715 1249 c 0
 666 1249 621 1239 582 1219 c 0
 543 1199 512 1172 488 1140 c 0
 464 1108 442 1070 426 1026 c 0
 410 982 398 938 392 893 c 0
 386 848 383 802 383 754 c 0
 383 702 386 651 393 602 c 0
 400 553 411 505 427 457 c 0
 443 409 472 365 513 324 c 0
 554 283 594 251 633 229 c 1
EndSplineSet
EndChar

StartChar: horizontalbar
Encoding: 8213 8213 367
Width: 1548
Flags: W
HStem: 426 238<0 1548>
LayerCount: 2
Fore
SplineSet
0 664 m 1
 1548 664 l 1
 1548 426 l 1
 0 426 l 1
 0 664 l 1
EndSplineSet
EndChar

StartChar: longs
Encoding: 383 383 390
Width: 782
Flags: W
HStem: 0 21G<213 471> 1260 229<484.517 674.536>
VStem: 213 258<0 1238.34>
LayerCount: 2
Fore
SplineSet
213 1073 m 1
 213 1153 l 2
 213 1186 222 1223 240 1262 c 0
 258 1301 284 1337 314 1371 c 0
 344 1405 382 1434 426 1456 c 0
 470 1478 516 1489 563 1489 c 0
 654 1489 729 1459 790 1400 c 1
 641 1221 l 1
 630 1234 616 1243 598 1250 c 0
 580 1257 566 1260 553 1260 c 0
 524 1260 503 1253 490 1239 c 0
 477 1225 471 1203 471 1173 c 2
 471 1073 l 1
 471 0 l 1
 213 0 l 1
 213 1073 l 1
EndSplineSet
EndChar

StartChar: uni21B0
Encoding: 8624 8624 391
Width: 1012
Flags: W
HStem: 1062 228<381 684>
VStem: 684 228<-50 1062>
LayerCount: 2
Fore
SplineSet
381 1062 m 1
 490 735 l 1
 49 1176 l 1
 490 1617 l 1
 381 1290 l 1
 912 1292 l 1
 912 -50 l 1
 684 -50 l 1
 684 1062 l 1
 381 1062 l 1
EndSplineSet
EndChar

StartChar: uni21B1
Encoding: 8625 8625 392
Width: 1012
Flags: W
HStem: 1062 230<328 631>
VStem: 100 228<-50 1062>
LayerCount: 2
Fore
SplineSet
328 -50 m 1
 100 -50 l 1
 100 1292 l 1
 631 1290 l 1
 522 1617 l 1
 963 1176 l 1
 522 735 l 1
 631 1062 l 1
 328 1062 l 1
 328 -50 l 1
EndSplineSet
EndChar

StartChar: uni21B2
Encoding: 8626 8626 393
Width: 1012
Flags: W
HStem: 142 228<381 684> 1462 20G<684 912>
VStem: 684 228<370 1482>
LayerCount: 2
Fore
SplineSet
684 1482 m 1
 912 1482 l 1
 912 142 l 1
 381 142 l 1
 490 -185 l 1
 49 256 l 1
 490 697 l 1
 381 370 l 1
 684 370 l 1
 684 1482 l 1
EndSplineSet
EndChar

StartChar: uni21B3
Encoding: 8627 8627 394
Width: 1012
Flags: W
HStem: 142 228<328 631> 1462 20G<100 328>
VStem: 100 228<370 1482>
LayerCount: 2
Fore
SplineSet
631 370 m 1
 522 697 l 1
 963 256 l 1
 522 -185 l 1
 631 142 l 1
 100 142 l 1
 100 1482 l 1
 328 1482 l 1
 328 370 l 1
 631 370 l 1
EndSplineSet
EndChar

StartChar: uni21B4
Encoding: 8628 8628 395
Width: 1012
Flags: W
HStem: 1256 228<70 536>
VStem: 536 228<265 1256>
LayerCount: 2
Fore
SplineSet
70 1256 m 1
 70 1484 l 1
 766 1484 l 1
 764 265 l 1
 1091 374 l 1
 650 -67 l 1
 209 374 l 1
 536 265 l 1
 536 1256 l 1
 70 1256 l 1
EndSplineSet
EndChar

StartChar: carriagereturn
Encoding: 8629 8629 396
Width: 1674
Flags: W
HStem: 142 228<381 1238> 1462 20G<1238 1466>
VStem: 1238 228<370 1482>
LayerCount: 2
Fore
SplineSet
1238 1482 m 1
 1466 1482 l 1
 1466 142 l 1
 381 142 l 1
 490 -185 l 1
 49 256 l 1
 490 697 l 1
 381 370 l 1
 1238 370 l 1
 1238 1482 l 1
EndSplineSet
EndChar

StartChar: uni21B6
Encoding: 8630 8630 397
Width: 1674
Flags: W
HStem: 1274 230<640.419 1080.27>
VStem: 1421 232<668 930.421>
LayerCount: 2
Fore
SplineSet
1350 986 m 0
 1305 1068 1240 1135 1155 1190 c 0
 1070 1245 975 1273 871 1274 c 0
 868 1274 866 1274 863 1274 c 0
 764 1274 675 1252 594 1208 c 1
 511 1162 443 1095 391 1008 c 0
 377 986 365 961 354 936 c 1
 537 947 l 1
 143 633 l 1
 -29 1110 l 1
 128 1000 l 1
 145 1042 166 1083 190 1122 c 0
 266 1245 364 1341 484 1408 c 1
 601 1472 730 1504 871 1504 c 0
 874 1504 913 1504 987 1503 c 0
 1061 1502 1159 1463 1279 1386 c 0
 1399 1309 1490 1213 1554 1098 c 0
 1617 985 1649 859 1652 719 c 2
 1653 668 l 1
 1421 668 l 1
 1420 717 l 2
 1418 816 1394 906 1350 986 c 0
EndSplineSet
EndChar

StartChar: uni21B7
Encoding: 8631 8631 398
Width: 1674
Flags: W
HStem: 1274 230<593.73 1033.58>
VStem: 21 234<668 936.021>
LayerCount: 2
Fore
SplineSet
120 1098 m 0
 184 1213 275 1309 395 1386 c 0
 515 1463 613 1502 687 1503 c 0
 761 1504 800 1504 803 1504 c 0
 944 1504 1073 1472 1190 1408 c 1
 1310 1341 1408 1245 1484 1122 c 0
 1508 1083 1529 1042 1546 1000 c 1
 1703 1110 l 1
 1531 633 l 1
 1137 947 l 1
 1320 936 l 1
 1309 961 1297 986 1283 1008 c 0
 1231 1095 1163 1162 1080 1208 c 1
 999 1252 910 1274 811 1274 c 0
 808 1274 806 1274 803 1274 c 0
 699 1273 604 1245 519 1190 c 0
 434 1135 369 1068 324 986 c 0
 280 906 257 816 256 717 c 2
 255 668 l 1
 21 668 l 1
 22 719 l 2
 25 859 57 985 120 1098 c 0
EndSplineSet
EndChar

StartChar: uni21B8
Encoding: 8632 8632 399
Width: 1674
Flags: W
HStem: 1256 228<258 1418>
LayerCount: 2
Fore
SplineSet
258 486 m 1
 258 1110 l 1
 882 1110 l 1
 574 956 l 1
 1439 92 l 1
 1276 -71 l 1
 412 794 l 1
 258 486 l 1
258 1484 m 1
 1418 1484 l 1
 1418 1256 l 1
 258 1256 l 1
 258 1484 l 1
EndSplineSet
EndChar

StartChar: uni21B9
Encoding: 8633 8633 400
Width: 1674
Flags: W
HStem: 144 228<70 591 624 1145> 650 228<531 1052 1085 1604>
VStem: 70 200<456 693 835 1068> 1404 200<-50 185 331 562>
LayerCount: 2
Fore
SplineSet
1145 144 m 1
 70 144 l 1
 70 372 l 1
 591 372 l 1
 270 693 l 1
 270 456 l 1
 70 456 l 1
 70 1068 l 1
 270 1068 l 1
 270 835 l 1
 640 1205 l 1
 531 878 l 1
 1604 878 l 1
 1604 650 l 1
 1085 650 l 1
 1404 331 l 1
 1404 562 l 1
 1604 562 l 1
 1604 -50 l 1
 1404 -50 l 1
 1404 185 l 1
 1036 -183 l 1
 1145 144 l 1
624 372 m 1
 1145 372 l 1
 1052 650 l 1
 531 650 l 1
 624 372 l 1
EndSplineSet
EndChar

StartChar: uni21BA
Encoding: 8634 8634 401
Width: 1674
Flags: W
HStem: -69 232<604.672 1043.16>
VStem: 40 228<503.498 768> 1385 228<505.616 933.573>
LayerCount: 2
Fore
SplineSet
275 628 m 0
 291 534 330 447 393 367 c 0
 456 287 529 233 610 205 c 0
 691 177 765 163 830 163 c 0
 861 163 890 165 916 169 c 0
 1007 184 1092 224 1173 285 c 0
 1254 346 1310 418 1340 501 c 0
 1370 584 1385 658 1385 725 c 0
 1385 754 1383 780 1379 806 c 0
 1363 900 1323 987 1259 1067 c 0
 1243 1087 1225 1106 1204 1125 c 1
 1150 952 l 1
 990 1426 l 1
 1491 1426 l 1
 1339 1315 l 1
 1373 1286 1405 1252 1435 1215 c 0
 1526 1101 1582 977 1603 842 c 0
 1609 801 1613 761 1613 721 c 0
 1613 627 1592 521 1550 405 c 0
 1508 289 1430 188 1318 101 c 0
 1206 14 1084 -39 952 -59 c 0
 908 -66 866 -69 827 -69 c 0
 737 -69 635 -50 522 -11 c 0
 409 28 307 104 217 218 c 0
 127 332 73 456 51 590 c 0
 44 634 40 677 40 718 c 2
 40 768 l 1
 268 768 l 1
 268 718 l 2
 268 687 270 657 275 628 c 0
EndSplineSet
EndChar

StartChar: uni21BB
Encoding: 8635 8635 402
Width: 1674
Flags: W
HStem: -69 232<630.835 1069.33>
VStem: 61 228<505.616 933.573> 1406 228<503.498 768>
LayerCount: 2
Fore
SplineSet
1623 590 m 0
 1601 456 1547 332 1457 218 c 0
 1367 104 1265 28 1152 -11 c 0
 1039 -50 937 -69 847 -69 c 0
 808 -69 766 -66 722 -59 c 0
 590 -39 468 14 356 101 c 0
 244 188 166 289 124 405 c 0
 82 521 61 627 61 721 c 0
 61 761 65 801 71 842 c 0
 92 977 148 1101 239 1215 c 0
 269 1252 301 1286 335 1315 c 1
 183 1426 l 1
 684 1426 l 1
 524 952 l 1
 470 1125 l 1
 449 1106 431 1087 415 1067 c 0
 351 987 311 900 295 806 c 0
 291 780 289 754 289 725 c 0
 289 658 304 584 334 501 c 0
 364 418 420 346 501 285 c 0
 582 224 667 184 758 169 c 0
 784 165 813 163 844 163 c 0
 909 163 983 177 1064 205 c 0
 1145 233 1218 287 1281 367 c 0
 1344 447 1383 534 1399 628 c 0
 1404 657 1406 687 1406 718 c 2
 1406 768 l 1
 1634 768 l 1
 1634 718 l 2
 1634 677 1630 634 1623 590 c 0
EndSplineSet
EndChar

StartChar: uni21BC
Encoding: 8636 8636 403
Width: 1674
Flags: W
HStem: 494 228<445 1604>
LayerCount: 2
Fore
SplineSet
-1 494 m 1
 554 1049 l 1
 445 722 l 1
 1604 722 l 1
 1604 494 l 1
 -1 494 l 1
EndSplineSet
EndChar

StartChar: uni21BD
Encoding: 8637 8637 404
Width: 1674
Flags: W
HStem: 366 228<445 1604>
LayerCount: 2
Fore
SplineSet
1604 594 m 1
 1604 366 l 1
 445 366 l 1
 554 39 l 1
 -1 594 l 1
 1604 594 l 1
EndSplineSet
EndChar

StartChar: uni21BE
Encoding: 8638 8638 405
Width: 1024
Flags: W
VStem: 398 228<-50 1109>
LayerCount: 2
Fore
SplineSet
398 1555 m 1
 953 1000 l 1
 626 1109 l 1
 626 -50 l 1
 398 -50 l 1
 398 1555 l 1
EndSplineSet
EndChar

StartChar: uni21BF
Encoding: 8639 8639 406
Width: 1024
Flags: W
VStem: 398 228<-50 1109>
LayerCount: 2
Fore
SplineSet
71 1000 m 1
 626 1555 l 1
 626 -50 l 1
 398 -50 l 1
 398 1109 l 1
 71 1000 l 1
EndSplineSet
EndChar

StartChar: uni21C0
Encoding: 8640 8640 407
Width: 1674
Flags: W
HStem: 492 228<70 1229>
LayerCount: 2
Fore
SplineSet
70 492 m 1
 70 720 l 1
 1229 720 l 1
 1120 1047 l 1
 1675 492 l 1
 70 492 l 1
EndSplineSet
EndChar

StartChar: uni21C1
Encoding: 8641 8641 408
Width: 1674
Flags: W
HStem: 366 228<70 1229>
LayerCount: 2
Fore
SplineSet
1229 366 m 1
 70 366 l 1
 70 594 l 1
 1675 594 l 1
 1120 39 l 1
 1229 366 l 1
EndSplineSet
EndChar

StartChar: uni21C2
Encoding: 8642 8642 409
Width: 1024
Flags: W
HStem: 1464 20G<398 626>
VStem: 398 228<327 1484>
LayerCount: 2
Fore
SplineSet
398 1484 m 1
 626 1484 l 1
 626 327 l 1
 952 436 l 1
 398 -121 l 1
 398 1484 l 1
EndSplineSet
EndChar

StartChar: uni21C3
Encoding: 8643 8643 410
Width: 1024
Flags: W
HStem: 1464 20G<398 626>
VStem: 398 228<327 1484>
LayerCount: 2
Fore
SplineSet
398 327 m 1
 398 1484 l 1
 626 1484 l 1
 626 -121 l 1
 72 436 l 1
 398 327 l 1
EndSplineSet
EndChar

StartChar: uni21C4
Encoding: 8644 8644 411
Width: 1674
Flags: W
HStem: 132 228<381 1216 1281 1604> 590 228<70 393 458 1293>
LayerCount: 2
Fore
SplineSet
490 -195 m 1
 49 246 l 1
 393 590 l 1
 70 590 l 1
 70 818 l 1
 1293 818 l 1
 1184 1145 l 1
 1625 704 l 1
 1281 360 l 1
 1604 360 l 1
 1604 132 l 1
 381 132 l 1
 490 -195 l 1
1216 360 m 1
 1293 590 l 1
 458 590 l 1
 381 360 l 1
 1216 360 l 1
EndSplineSet
EndChar

StartChar: uni21C5
Encoding: 8645 8645 412
Width: 1674
Flags: W
HStem: 1466 20G<974 1202>
VStem: 472 228<-50 319 355 1173> 974 228<263 1081 1117 1486>
LayerCount: 2
Fore
SplineSet
145 1064 m 1
 586 1505 l 1
 974 1117 l 1
 974 1486 l 1
 1202 1486 l 1
 1202 263 l 1
 1529 372 l 1
 1088 -69 l 1
 700 319 l 1
 700 -50 l 1
 472 -50 l 1
 472 1173 l 1
 145 1064 l 1
700 355 m 1
 974 263 l 1
 974 1081 l 1
 700 1173 l 1
 700 355 l 1
EndSplineSet
EndChar

StartChar: uni21C6
Encoding: 8646 8646 413
Width: 1674
Flags: W
HStem: 132 228<70 393 458 1293> 590 228<381 1216 1281 1604>
LayerCount: 2
Fore
SplineSet
1293 132 m 1
 70 132 l 1
 70 360 l 1
 393 360 l 1
 49 704 l 1
 490 1145 l 1
 381 818 l 1
 1604 818 l 1
 1604 590 l 1
 1281 590 l 1
 1625 246 l 1
 1184 -195 l 1
 1293 132 l 1
1216 590 m 1
 381 590 l 1
 458 360 l 1
 1293 360 l 1
 1216 590 l 1
EndSplineSet
EndChar

StartChar: uni21C7
Encoding: 8647 8647 414
Width: 1674
Flags: W
HStem: 132 228<396 495 500 1604> 590 228<396 495 497 1604>
LayerCount: 2
Fore
SplineSet
396 818 m 1
 1604 818 l 1
 1604 590 l 1
 497 590 l 1
 447 476 l 1
 500 360 l 1
 1604 360 l 1
 1604 132 l 1
 396 132 l 1
 498 -100 l 1
 37 246 l 1
 342 475 l 1
 37 704 l 1
 502 1053 l 1
 396 818 l 1
421 416 m 1
 396 360 l 1
 495 360 l 1
 421 416 l 1
421 534 m 1
 495 590 l 1
 396 590 l 1
 421 534 l 1
EndSplineSet
EndChar

StartChar: uni21C8
Encoding: 8648 8648 415
Width: 1674
Flags: W
VStem: 494 228<-50 1054 1059 1158> 952 228<-50 1057 1059 1158>
LayerCount: 2
Fore
SplineSet
1180 1158 m 1
 1180 -50 l 1
 952 -50 l 1
 952 1057 l 1
 838 1107 l 1
 722 1054 l 1
 722 -50 l 1
 494 -50 l 1
 494 1158 l 1
 262 1056 l 1
 608 1517 l 1
 837 1212 l 1
 1066 1517 l 1
 1415 1052 l 1
 1180 1158 l 1
778 1133 m 1
 722 1158 l 1
 722 1059 l 1
 778 1133 l 1
896 1133 m 1
 952 1059 l 1
 952 1158 l 1
 896 1133 l 1
EndSplineSet
EndChar

StartChar: arrowleft
Encoding: 8592 8592 416
Width: 1674
Flags: W
HStem: 366 228<381 1604>
LayerCount: 2
Fore
SplineSet
490 39 m 1
 49 480 l 1
 490 921 l 1
 381 594 l 1
 1604 594 l 1
 1604 366 l 1
 381 366 l 1
 490 39 l 1
EndSplineSet
EndChar

StartChar: arrowup
Encoding: 8593 8593 417
Width: 1012
Flags: W
VStem: 392 228<-50 1173>
LayerCount: 2
Fore
SplineSet
65 1064 m 1
 506 1505 l 1
 947 1064 l 1
 620 1173 l 1
 620 -50 l 1
 392 -50 l 1
 392 1173 l 1
 65 1064 l 1
EndSplineSet
EndChar

StartChar: arrowright
Encoding: 8594 8594 418
Width: 1674
Flags: W
HStem: 366 228<70 1293>
LayerCount: 2
Fore
SplineSet
1293 366 m 1
 70 366 l 1
 70 594 l 1
 1293 594 l 1
 1184 921 l 1
 1625 480 l 1
 1184 39 l 1
 1293 366 l 1
EndSplineSet
EndChar

StartChar: arrowdown
Encoding: 8595 8595 419
Width: 1012
Flags: W
HStem: 1464 20G<392 620>
VStem: 392 228<263 1484>
LayerCount: 2
Fore
SplineSet
392 263 m 1
 392 1484 l 1
 620 1484 l 1
 620 263 l 1
 945 372 l 1
 506 -71 l 1
 67 372 l 1
 392 263 l 1
EndSplineSet
EndChar

StartChar: arrowboth
Encoding: 8596 8596 420
Width: 1674
Flags: W
HStem: 366 228<381 1293>
LayerCount: 2
Fore
SplineSet
381 366 m 1
 490 39 l 1
 49 480 l 1
 490 921 l 1
 381 594 l 1
 1293 594 l 1
 1184 921 l 1
 1625 480 l 1
 1184 39 l 1
 1293 366 l 1
 381 366 l 1
EndSplineSet
EndChar

StartChar: arrowupdn
Encoding: 8597 8597 421
Width: 1012
Flags: W
VStem: 392 228<263 1173>
LayerCount: 2
Fore
SplineSet
620 263 m 1
 945 372 l 1
 506 -71 l 1
 67 372 l 1
 392 263 l 1
 392 1173 l 1
 65 1064 l 1
 506 1505 l 1
 947 1064 l 1
 620 1173 l 1
 620 263 l 1
EndSplineSet
EndChar

StartChar: uni2196
Encoding: 8598 8598 422
Width: 1674
Flags: W
LayerCount: 2
Fore
SplineSet
258 670 m 1
 258 1298 l 1
 879 1295 l 1
 574 1142 l 1
 1439 278 l 1
 1276 118 l 1
 412 981 l 1
 258 670 l 1
EndSplineSet
EndChar

StartChar: uni2197
Encoding: 8599 8599 423
Width: 1674
Flags: W
LayerCount: 2
Fore
SplineSet
792 1295 m 1
 1418 1298 l 1
 1415 672 l 1
 1262 981 l 1
 398 117 l 1
 237 278 l 1
 1101 1142 l 1
 792 1295 l 1
EndSplineSet
EndChar

StartChar: uni2198
Encoding: 8600 8600 424
Width: 1674
Flags: W
LayerCount: 2
Fore
SplineSet
1101 292 m 1
 238 1156 l 1
 398 1319 l 1
 1262 454 l 1
 1415 759 l 1
 1418 138 l 1
 790 138 l 1
 1101 292 l 1
EndSplineSet
EndChar

StartChar: uni2199
Encoding: 8601 8601 425
Width: 1674
Flags: W
LayerCount: 2
Fore
SplineSet
412 454 m 1
 1276 1319 l 1
 1439 1156 l 1
 574 292 l 1
 882 138 l 1
 258 138 l 1
 258 762 l 1
 412 454 l 1
EndSplineSet
EndChar

StartChar: uni219A
Encoding: 8602 8602 426
Width: 1674
Flags: W
HStem: 366 228<381 683 991 1604>
LayerCount: 2
Fore
SplineSet
381 366 m 1
 490 39 l 1
 49 480 l 1
 490 921 l 1
 381 594 l 1
 758 594 l 1
 866 922 l 1
 1099 922 l 1
 991 594 l 1
 1604 594 l 1
 1604 366 l 1
 916 366 l 1
 810 38 l 1
 577 38 l 1
 683 366 l 1
 381 366 l 1
EndSplineSet
EndChar

StartChar: uni219B
Encoding: 8603 8603 427
Width: 1674
Flags: W
HStem: 366 228<70 683 991 1293>
LayerCount: 2
Fore
SplineSet
1293 594 m 1
 1184 921 l 1
 1625 480 l 1
 1184 39 l 1
 1293 366 l 1
 916 366 l 1
 810 38 l 1
 577 38 l 1
 683 366 l 1
 70 366 l 1
 70 594 l 1
 758 594 l 1
 866 922 l 1
 1099 922 l 1
 991 594 l 1
 1293 594 l 1
EndSplineSet
EndChar

StartChar: uni219C
Encoding: 8604 8604 428
Width: 1674
Flags: W
HStem: 268 228<550.367 822.911> 478 234<1072.41 1348.07>
LayerCount: 2
Fore
SplineSet
307 40 m 1x80
 145 643 l 1
 746 805 l 1
 489 575 l 1
 562 534 l 1
 608 509 652 496 695 496 c 0x80
 752 496 824 532 912 604 c 0
 1000 676 1107 712 1232 712 c 0
 1287 712 1338 701 1382 680 c 1
 1538 588 l 1
 1424 389 l 1
 1306 459 l 2
 1285 472 1247 478 1192 478 c 0x40
 1141 478 1072 443 984 373 c 0
 896 303 799 268 694 268 c 1
 600 275 519 297 450 334 c 1
 375 378 l 1
 307 40 l 1x80
EndSplineSet
EndChar

StartChar: uni219D
Encoding: 8605 8605 429
Width: 1674
Flags: W
HStem: 268 228<853.213 1124.35> 478 234<325.53 603.42>
LayerCount: 2
Fore
SplineSet
1224 334 m 1x80
 1156 297 1076 275 982 268 c 1x80
 877 268 780 303 692 373 c 0
 604 443 534 478 482 478 c 0
 427 478 389 472 367 459 c 2
 252 388 l 1
 138 588 l 1
 294 680 l 1
 337 701 387 712 444 712 c 0x40
 569 712 676 676 764 604 c 0
 852 532 925 496 981 496 c 0
 1023 496 1067 509 1112 534 c 2
 1186 575 l 1
 930 805 l 1
 1531 643 l 1
 1369 40 l 1
 1301 378 l 1
 1224 334 l 1x80
EndSplineSet
EndChar

StartChar: uni219E
Encoding: 8606 8606 430
Width: 1674
Flags: W
HStem: 366 228<543 1604>
LayerCount: 2
Fore
SplineSet
409 282 m 1
 490 39 l 1
 49 480 l 1
 490 921 l 1
 409 678 l 1
 652 921 l 1
 543 594 l 1
 1604 594 l 1
 1604 366 l 1
 543 366 l 1
 652 39 l 1
 409 282 l 1
EndSplineSet
EndChar

StartChar: uni219F
Encoding: 8607 8607 431
Width: 1012
Flags: W
VStem: 392 228<-50 1011>
LayerCount: 2
Fore
SplineSet
308 1145 m 1
 65 1064 l 1
 506 1505 l 1
 947 1064 l 1
 704 1145 l 1
 947 902 l 1
 620 1011 l 1
 620 -50 l 1
 392 -50 l 1
 392 1011 l 1
 65 902 l 1
 308 1145 l 1
EndSplineSet
EndChar

StartChar: uni21A0
Encoding: 8608 8608 432
Width: 1674
Flags: W
HStem: 366 228<70 1131>
LayerCount: 2
Fore
SplineSet
1265 678 m 1
 1184 921 l 1
 1625 480 l 1
 1184 39 l 1
 1265 282 l 1
 1022 39 l 1
 1131 366 l 1
 70 366 l 1
 70 594 l 1
 1131 594 l 1
 1022 921 l 1
 1265 678 l 1
EndSplineSet
EndChar

StartChar: uni0326
Encoding: 806 806 437
Width: 444
Flags: W
HStem: -503 503
LayerCount: 2
Fore
SplineSet
382 -161 m 0
 382 -199 375 -238 361 -277 c 0
 347 -316 330 -351 309 -381 c 0
 288 -411 269 -436 251 -456 c 0
 233 -476 217 -492 203 -503 c 1
 129 -460 l 1
 136 -447 146 -427 157 -400 c 0
 168 -373 174 -353 174 -338 c 0
 174 -333 173 -330 172 -327 c 1
 141 -320 113 -302 90 -274 c 0
 67 -246 56 -208 56 -161 c 0
 56 -121 72 -84 104 -50 c 0
 136 -16 173 0 215 0 c 0
 268 0 309 -16 338 -50 c 0
 367 -84 382 -121 382 -161 c 0
EndSplineSet
EndChar

StartChar: uni037A
Encoding: 890 890 438
Width: 495
Flags: W
HStem: 578 328<144.02 369.98>
VStem: 93 328<629.02 854.98>
LayerCount: 2
Fore
SplineSet
93 742 m 0
 93 787 109 826 141 858 c 0
 173 890 212 906 257 906 c 0
 302 906 341 890 373 858 c 0
 405 826 421 787 421 742 c 0
 421 697 405 658 373 626 c 0
 341 594 302 578 257 578 c 0
 212 578 173 594 141 626 c 0
 109 658 93 697 93 742 c 0
EndSplineSet
EndChar

StartChar: tonos
Encoding: 900 900 439
Width: 1138
Flags: W
HStem: 1167 432<516.476 652.475>
VStem: 465 276<1242 1503>
LayerCount: 2
Fore
SplineSet
647 1192 m 2
 645 1184 639 1178 631 1174 c 0
 621 1169 608 1167 591 1167 c 0
 574 1167 559 1168 547 1170 c 256
 535 1172 520 1180 502 1192 c 0
 484 1204 474 1215 468 1227 c 0
 466 1232 464 1237 465 1242 c 2
 516 1552 l 1
 519 1567 530 1579 548 1587 c 0
 561 1593 576 1598 594 1599 c 0
 598 1599 603 1599 607 1599 c 0
 620 1599 632 1598 642 1596 c 1
 659 1593 677 1585 695 1572 c 0
 713 1559 727 1543 735 1526 c 0
 739 1518 741 1510 741 1503 c 0
 741 1499 740 1496 739 1492 c 2
 647 1192 l 2
EndSplineSet
EndChar

StartChar: dieresistonos
Encoding: 901 901 440
Width: 1138
Flags: W
HStem: 1184 328<129.02 354.98 783.02 1008.98>
VStem: 78 328<1235.02 1460.98> 732 328<1235.02 1460.98>
LayerCount: 2
Fore
SplineSet
617 1192 m 2
 615 1184 609 1178 601 1174 c 0
 591 1169 577 1167 560 1167 c 0
 543 1167 528 1168 516 1170 c 256
 504 1172 490 1180 472 1192 c 0
 454 1204 443 1215 437 1227 c 0
 435 1232 434 1237 435 1242 c 2
 485 1552 l 1
 488 1567 499 1579 517 1587 c 0
 530 1593 546 1598 564 1599 c 0
 568 1599 573 1599 577 1599 c 0
 590 1599 602 1598 612 1596 c 1
 629 1593 646 1585 664 1572 c 0
 682 1559 696 1543 704 1526 c 0
 710 1513 711 1502 708 1492 c 2
 617 1192 l 2
78 1348 m 0
 78 1393 94 1432 126 1464 c 0
 158 1496 197 1512 242 1512 c 0
 287 1512 326 1496 358 1464 c 0
 390 1432 406 1393 406 1348 c 0
 406 1303 390 1264 358 1232 c 0
 326 1200 287 1184 242 1184 c 0
 197 1184 158 1200 126 1232 c 0
 94 1264 78 1303 78 1348 c 0
732 1348 m 0
 732 1393 748 1432 780 1464 c 0
 812 1496 851 1512 896 1512 c 0
 941 1512 980 1496 1012 1464 c 0
 1044 1432 1060 1393 1060 1348 c 0
 1060 1303 1044 1264 1012 1232 c 0
 980 1200 941 1184 896 1184 c 0
 851 1184 812 1200 780 1232 c 0
 748 1264 732 1303 732 1348 c 0
EndSplineSet
EndChar

StartChar: Upsilontonos
Encoding: 910 910 446
Width: 1314
Flags: W
HStem: 0 21G<528 797> 1436 20G<66 361.546 958.454 1248>
VStem: 528 269<0 705>
LayerCount: 2
Fore
SplineSet
66 1456 m 1
 350 1456 l 1
 660 919 l 1
 970 1456 l 1
 1248 1456 l 1
 797 705 l 1
 797 0 l 1
 528 0 l 1
 528 705 l 1
 66 1456 l 1
EndSplineSet
EndChar

StartChar: Alpha
Encoding: 913 913 449
Width: 1421
Flags: W
HStem: 0 21G<47 365.177 1060.4 1374> 379 246<567 867> 1436 20G<602.266 872.978>
LayerCount: 2
Fore
SplineSet
726 1048 m 1
 567 625 l 1
 867 625 l 1
 726 1048 l 1
942 379 m 1
 494 379 l 1
 358 0 l 1
 47 0 l 1
 610 1456 l 1
 866 1456 l 1
 1374 0 l 1
 1067 0 l 1
 942 379 l 1
EndSplineSet
EndChar

StartChar: Beta
Encoding: 914 914 450
Width: 1226
Flags: W
HStem: 0 240<387 814.261> 639 238<387 738.688> 1219 237<387 744.196>
VStem: 119 268<240 639 877 1219> 811 264<941.8 1156.3> 899 264<319.04 567.653>
LayerCount: 2
Fore
SplineSet
387 639 m 1xf4
 387 240 l 1
 614 240 l 2
 717 240 790 259 834 298 c 0
 878 337 899 387 899 447 c 0
 899 575 804 639 614 639 c 2
 387 639 l 1xf4
387 1219 m 1
 387 877 l 1
 555 877 l 2
 646 877 712 894 752 928 c 0
 792 962 811 1002 811 1049 c 0xf8
 811 1096 792 1136 752 1169 c 0
 712 1202 646 1219 555 1219 c 2
 387 1219 l 1
119 1456 m 1
 555 1456 l 2
 617 1456 673 1451 724 1442 c 0
 775 1433 819 1421 854 1406 c 0
 889 1391 921 1372 948 1350 c 0
 975 1328 996 1306 1012 1284 c 0
 1028 1262 1040 1238 1050 1212 c 0
 1060 1186 1067 1160 1070 1138 c 0
 1073 1116 1075 1093 1075 1070 c 0xf8
 1075 997 1056 939 1019 894 c 0
 982 849 932 816 870 797 c 1
 934 782 990 752 1036 708 c 0
 1082 664 1115 619 1134 572 c 0
 1153 525 1163 481 1163 439 c 0xf4
 1163 404 1159 369 1152 334 c 0
 1145 299 1131 260 1108 218 c 0
 1085 176 1056 141 1020 110 c 0
 984 79 933 53 868 32 c 0
 803 11 729 0 644 0 c 2
 119 0 l 1
 119 1456 l 1
EndSplineSet
EndChar

StartChar: Gamma
Encoding: 915 915 451
Width: 1191
Flags: W
HStem: 0 21G<115 383> 1217 239<383 1097>
VStem: 115 268<0 1217>
LayerCount: 2
Fore
SplineSet
383 1217 m 1
 383 0 l 1
 115 0 l 1
 115 1456 l 1
 1097 1456 l 1
 1097 1217 l 1
 383 1217 l 1
EndSplineSet
EndChar

StartChar: Epsilon
Encoding: 917 917 452
Width: 1211
Flags: W
HStem: 0 240<382 1096> 627 239<382 1034> 1217 239<382 1096>
VStem: 114 268<240 627 866 1217>
LayerCount: 2
Fore
SplineSet
114 1456 m 1
 1096 1456 l 1
 1096 1217 l 1
 382 1217 l 1
 382 866 l 1
 1034 866 l 1
 1034 627 l 1
 382 627 l 1
 382 240 l 1
 1096 240 l 1
 1096 0 l 1
 114 0 l 1
 114 1456 l 1
EndSplineSet
EndChar

StartChar: Zeta
Encoding: 918 918 453
Width: 1417
Flags: W
HStem: 0 240<508 1300> 1217 239<139 872>
LayerCount: 2
Fore
SplineSet
139 1456 m 1
 1306 1456 l 1
 508 240 l 1
 1300 240 l 1
 1300 0 l 1
 72 0 l 1
 872 1217 l 1
 139 1217 l 1
 139 1456 l 1
EndSplineSet
EndChar

StartChar: Eta
Encoding: 919 919 454
Width: 1253
Flags: W
HStem: 0 21G<115 383 868 1137> 625 239<383 868> 1436 20G<115 383 868 1137>
VStem: 115 268<0 625 864 1456> 868 269<0 625 864 1456>
LayerCount: 2
Fore
SplineSet
115 1456 m 1
 383 1456 l 1
 383 864 l 1
 868 864 l 1
 868 1456 l 1
 1137 1456 l 1
 1137 0 l 1
 868 0 l 1
 868 625 l 1
 383 625 l 1
 383 0 l 1
 115 0 l 1
 115 1456 l 1
EndSplineSet
EndChar

StartChar: Theta
Encoding: 920 920 455
Width: 1409
Flags: W
HStem: -29 242<565.489 865.939> 627 240<486 939> 1249 240<557.595 873.17>
VStem: 100 283<454.859 1030.53> 1047 282<452.962 1028.37>
LayerCount: 2
Fore
SplineSet
486 867 m 1
 939 867 l 1
 939 627 l 1
 486 627 l 1
 486 867 l 1
1047 754 m 0
 1047 815 1041 873 1030 928 c 0
 1019 983 1002 1036 978 1086 c 0
 954 1136 919 1174 874 1204 c 0
 829 1234 776 1249 715 1249 c 0
 666 1249 621 1239 582 1219 c 0
 543 1199 512 1172 488 1140 c 0
 464 1108 442 1070 426 1026 c 0
 410 982 398 938 392 893 c 0
 386 848 383 802 383 754 c 0
 383 702 386 651 393 602 c 0
 400 553 411 505 427 457 c 0
 443 409 463 367 488 332 c 0
 513 297 545 268 584 246 c 0
 623 224 666 213 715 213 c 0
 764 213 809 224 848 246 c 0
 887 268 918 297 942 332 c 0
 966 367 988 409 1004 457 c 0
 1020 505 1032 553 1038 602 c 0
 1044 651 1047 702 1047 754 c 0
100 754 m 0
 100 821 107 888 120 954 c 0
 133 1020 156 1085 187 1150 c 0
 218 1215 257 1272 303 1322 c 0
 349 1372 407 1412 478 1443 c 0
 549 1474 628 1489 715 1489 c 0
 802 1489 881 1474 952 1443 c 0
 1023 1412 1081 1372 1127 1323 c 0
 1173 1274 1211 1216 1242 1151 c 0
 1273 1086 1296 1020 1309 954 c 0
 1322 888 1329 821 1329 754 c 0
 1329 683 1322 612 1309 542 c 0
 1296 472 1273 402 1242 332 c 0
 1211 262 1172 201 1126 148 c 0
 1080 95 1022 53 951 20 c 0
 880 -13 802 -29 715 -29 c 0
 629 -29 551 -13 480 20 c 0
 409 53 350 95 304 148 c 0
 258 201 219 262 188 331 c 0
 157 400 134 470 120 541 c 0
 106 612 100 683 100 754 c 0
EndSplineSet
EndChar

StartChar: Iota
Encoding: 921 921 456
Width: 555
Flags: W
HStem: 0 21G<143 412> 1436 20G<143 412>
VStem: 143 269<0 1456>
LayerCount: 2
Fore
SplineSet
143 0 m 1
 143 1456 l 1
 412 1456 l 1
 412 0 l 1
 143 0 l 1
EndSplineSet
EndChar

StartChar: Kappa
Encoding: 922 922 457
Width: 1333
Flags: W
HStem: 0 21G<115 383 939.541 1290> 1436 20G<115 383 908.568 1261>
VStem: 115 268<0 496 833 1456>
LayerCount: 2
Fore
SplineSet
115 1456 m 1
 383 1456 l 1
 383 833 l 1
 926 1456 l 1
 1261 1456 l 1
 705 808 l 1
 1290 0 l 1
 954 0 l 1
 500 628 l 1
 383 496 l 1
 383 0 l 1
 115 0 l 1
 115 1456 l 1
EndSplineSet
EndChar

StartChar: Lambda
Encoding: 923 923 458
Width: 1302
Flags: W
HStem: 0 21G<70 365.627 948.258 1232> 1436 20G<492.121 819.742>
LayerCount: 2
Fore
SplineSet
954 0 m 1
 654 1045 l 1
 360 0 l 1
 70 0 l 1
 498 1456 l 1
 814 1456 l 1
 1232 0 l 1
 954 0 l 1
EndSplineSet
EndChar

StartChar: Mu
Encoding: 924 924 459
Width: 1548
Flags: W
HStem: 0 21G<66 328 634.664 917.366 1229 1491> 1436 20G<66 432.764 1125.08 1491>
VStem: 66 262<0 988> 1229 262<0 999>
LayerCount: 2
Fore
SplineSet
66 0 m 1
 66 1456 l 1
 426 1456 l 1
 775 424 l 1
 1132 1456 l 1
 1491 1456 l 1
 1491 0 l 1
 1229 0 l 1
 1229 999 l 1
 911 0 l 1
 641 0 l 1
 328 988 l 1
 328 0 l 1
 66 0 l 1
EndSplineSet
EndChar

StartChar: Nu
Encoding: 925 925 460
Width: 1343
Flags: W
HStem: 0 21G<119 387 944.304 1221> 1436 20G<119 391.191 952 1221>
VStem: 119 268<0 973> 952 269<516 1456>
LayerCount: 2
Fore
SplineSet
119 0 m 1
 119 1456 l 1
 379 1456 l 1
 952 516 l 1
 952 1456 l 1
 1221 1456 l 1
 1221 0 l 1
 956 0 l 1
 387 973 l 1
 387 0 l 1
 119 0 l 1
EndSplineSet
EndChar

StartChar: Xi
Encoding: 926 926 461
Width: 1191
Flags: W
HStem: 0 240<115 1097> 626 240<202 988> 1216 240<115 1097>
LayerCount: 2
Fore
SplineSet
115 240 m 1
 1097 241 l 1
 1097 1 l 1
 115 0 l 1
 115 240 l 1
115 1456 m 1
 1097 1457 l 1
 1097 1217 l 1
 115 1216 l 1
 115 1456 l 1
202 866 m 1
 988 867 l 1
 988 627 l 1
 202 626 l 1
 202 866 l 1
EndSplineSet
EndChar

StartChar: Omicron
Encoding: 927 927 462
Width: 1409
Flags: W
HStem: -29 242<565.489 865.939> 1249 240<557.595 873.17>
VStem: 100 283<454.859 1030.53> 1047 282<452.962 1028.37>
LayerCount: 2
Fore
SplineSet
1047 754 m 0
 1047 815 1041 873 1030 928 c 0
 1019 983 1002 1036 978 1086 c 0
 954 1136 919 1174 874 1204 c 0
 829 1234 776 1249 715 1249 c 0
 666 1249 621 1239 582 1219 c 0
 543 1199 512 1172 488 1140 c 0
 464 1108 442 1070 426 1026 c 0
 410 982 398 938 392 893 c 0
 386 848 383 802 383 754 c 0
 383 702 386 651 393 602 c 0
 400 553 411 505 427 457 c 0
 443 409 463 367 488 332 c 0
 513 297 545 268 584 246 c 0
 623 224 666 213 715 213 c 0
 764 213 809 224 848 246 c 0
 887 268 918 297 942 332 c 0
 966 367 988 409 1004 457 c 0
 1020 505 1032 553 1038 602 c 0
 1044 651 1047 702 1047 754 c 0
100 754 m 0
 100 821 107 888 120 954 c 0
 133 1020 156 1085 187 1150 c 0
 218 1215 257 1272 303 1322 c 0
 349 1372 407 1412 478 1443 c 0
 549 1474 628 1489 715 1489 c 0
 802 1489 881 1474 952 1443 c 0
 1023 1412 1081 1372 1127 1323 c 0
 1173 1274 1211 1216 1242 1151 c 0
 1273 1086 1296 1020 1309 954 c 0
 1322 888 1329 821 1329 754 c 0
 1329 683 1322 612 1309 542 c 0
 1296 472 1273 402 1242 332 c 0
 1211 262 1172 201 1126 148 c 0
 1080 95 1022 53 951 20 c 0
 880 -13 802 -29 715 -29 c 0
 629 -29 551 -13 480 20 c 0
 409 53 350 95 304 148 c 0
 258 201 219 262 188 331 c 0
 157 400 134 470 120 541 c 0
 106 612 100 683 100 754 c 0
EndSplineSet
EndChar

StartChar: Pi
Encoding: 928 928 463
Width: 1253
Flags: W
HStem: 0 21G<115 383 868 1137> 1217 239<383 868>
VStem: 115 268<0 1217> 868 269<0 1217>
LayerCount: 2
Fore
SplineSet
115 1456 m 1
 1137 1456 l 1
 1137 0 l 1
 868 0 l 1
 868 1217 l 1
 383 1217 l 1
 383 0 l 1
 115 0 l 1
 115 1456 l 1
EndSplineSet
EndChar

StartChar: Rho
Encoding: 929 929 464
Width: 1148
Flags: W
HStem: 0 21G<121 389> 580 243<389 717.105> 1217 239<389 717.105>
VStem: 121 268<0 580 823 1217> 795 274<895.972 1144.33>
LayerCount: 2
Fore
SplineSet
389 823 m 1
 519 823 l 2
 703 823 795 889 795 1020 c 0
 795 1151 703 1217 519 1217 c 2
 389 1217 l 1
 389 823 l 1
121 1456 m 1
 389 1456 l 1
 519 1456 l 2
 609 1456 689 1445 760 1422 c 0
 831 1399 890 1368 934 1328 c 0
 978 1288 1011 1242 1034 1190 c 0
 1057 1138 1069 1081 1069 1020 c 0
 1069 960 1057 903 1032 850 c 0
 1007 797 972 750 926 710 c 0
 880 670 822 638 752 615 c 0
 682 592 604 580 519 580 c 2
 389 580 l 1
 389 0 l 1
 121 0 l 1
 121 1456 l 1
EndSplineSet
EndChar

